<svg xmlns="http://www.w3.org/2000/svg" width="64" height="64" viewBox="0 0 64 64">
  <g fill="none" fill-rule="evenodd">
    <path fill="#000" d="M56,0 C60.418278,-8.11624501e-16 64,3.581722 64,8 L64,56 C64,60.418278 60.418278,64 56,64 L8,64 C3.581722,64 5.41083001e-16,60.418278 0,56 L0,8 C-5.41083001e-16,3.581722 3.581722,8.11624501e-16 8,0 L56,0 Z M52,6 L12,6 C8.6862915,6 6,8.6862915 6,12 L6,12 L6,52 C6,55.3137085 8.6862915,58 12,58 L12,58 L52,58 C55.3137085,58 58,55.3137085 58,52 L58,52 L58,12 C58,8.6862915 55.3137085,6 52,6 L52,6 Z"/>
    <path fill="#000" d="M25.7142857,47.1428571 C26.1904755,47.1428571 26.6190469,46.9523817 27,46.5714286 L27,46.5714286 L51.5714286,22.1428571 C51.9523817,21.8571429 52.1428571,21.4761897 52.1428571,21 C52.1428571,20.5238103 51.9523817,20.0952388 51.5714286,19.7142857 L51.5714286,19.7142857 L48.4285714,16.5714286 C48.0476183,16.1904755 47.6190469,16 47.1428571,16 C46.6666674,16 46.2857143,16.1904755 46,16.5714286 L46,16.5714286 L25.7142857,36.5714286 L17.2857143,27.8571429 C16.9047612,27.5714286 16.4761897,27.4285714 16,27.4285714 C15.5238103,27.4285714 15.1428571,27.5714286 14.8571429,27.8571429 L14.8571429,27.8571429 L11.5714286,31.1428571 C11.1904755,31.4285714 11,31.8095245 11,32.2857143 C11,32.761904 11.1904755,33.1904755 11.5714286,33.5714286 L11.5714286,33.5714286 L24.5714286,46.5714286 C24.8571429,46.9523817 25.238096,47.1428571 25.7142857,47.1428571 Z"/>
  </g>
</svg>
