<svg xmlns="http://www.w3.org/2000/svg" width="512" height="512" viewBox="0 0 512 512">
  <path d="M236,345.980469 L236,275.980469 L166,275.980469 C154.953125,275.980469 146,267.027344 146,255.980469 C146,244.9375 154.953125,235.980469 166,235.980469 L236,235.980469 L236,165.980469 C236,154.9375 244.953125,145.980469 256,145.980469 C267.046875,145.980469 276,154.9375 276,165.980469 L276,235.980469 L346,235.980469 C357.046875,235.980469 366,244.9375 366,255.980469 C366,267.027344 357.046875,275.980469 346,275.980469 L276,275.980469 L276,345.980469 C276,357.027344 267.046875,365.980469 256,365.980469 C244.953125,365.980469 236,357.027344 236,345.980469 Z M437.019531,74.980469 C388.667969,26.628906 324.378906,2.84217094e-14 256,2.84217094e-14 C187.621094,2.84217094e-14 123.332031,26.628906 74.980469,74.980469 C26.628906,123.332031 0,187.621094 0,256 C0,324.378906 26.628906,388.667969 74.980469,437.019531 C123.332031,485.371094 187.621094,512 256,512 C302.8125,512 348.617188,499.242188 388.460938,475.105469 C397.910156,469.382812 400.929688,457.085938 395.207031,447.640625 C389.484375,438.191406 377.183594,435.171875 367.738281,440.894531 C334.144531,461.242188 295.503906,472 256,472 C136.898438,472 40,375.101562 40,256 C40,136.898438 136.898438,40 256,40 C375.101562,40 472,136.898438 472,256 C472,298.589844 459.335938,340.042969 435.375,375.886719 C429.234375,385.066406 431.703125,397.488281 440.886719,403.628906 C450.066406,409.765625 462.488281,407.296875 468.628906,398.117188 C497,355.675781 512,306.53125 512,256 C512,187.621094 485.371094,123.332031 437.019531,74.980469 Z"/>
</svg>
