<svg xmlns="http://www.w3.org/2000/svg" width="512" height="512" viewBox="0 0 512 512">
  <path d="M357.916903,465.716645 C361.414194,476.980645 355.517935,488.979613 344.472774,493.117935 C308.079484,506.752 273.809548,511.539613 229.424516,511.539613 C107.424,511.539613 0.12283871,424.096 0.12283871,280.021677 C0.121806452,130.107871 108.894968,0 274.993548,0 C404.352,0 496.966194,88.9352258 496.966194,212.422194 C496.966194,319.724387 436.69471,387.321806 357.320258,387.321806 C322.785032,387.321806 297.76929,369.694968 294.120258,330.740645 L292.651355,330.740645 C269.843613,368.236387 236.781419,387.321806 197.827097,387.321806 C150.035613,387.321806 115.501419,352.048516 115.501419,291.779097 C115.501419,202.135742 181.660903,120.529548 287.501419,120.529548 C305.126194,120.529548 324.082581,122.932645 340.653419,126.789161 C360.369548,131.376516 373.101419,150.413419 369.861161,170.394839 L352.920774,274.871742 C345.550452,318.264774 350.699355,338.100645 371.284645,338.819097 C402.891355,339.570581 442.563097,299.137032 442.563097,214.611613 C442.563097,119.068903 380.833032,44.8216774 266.914065,44.8216774 C154.462968,44.8216774 55.9618065,133.037419 55.9618065,273.412129 C55.9618065,396.149677 134.629161,465.988129 244.119742,465.988129 C273.256258,465.988129 303.709935,461.091097 329.642323,451.676903 C335.243355,449.644387 341.43071,449.995355 346.768516,452.642065 C352.106323,455.289806 356.141419,460.005161 357.908645,465.696 L357.916903,465.716645 Z M298.517677,181.546323 C292.648258,180.077419 285.28929,178.607484 275.741935,178.607484 C227.208258,178.607484 188.996129,226.370065 188.996129,282.979097 C188.996129,310.904774 201.504,328.519226 225.738323,328.519226 C252.934194,328.519226 281.60929,293.997419 288.217806,251.353806 L298.517677,181.546323 Z" transform="translate(7)"/>
</svg>
