<svg xmlns="http://www.w3.org/2000/svg" width="512" height="512" viewBox="0 0 512 512">
  <path d="M341,492 C341,503.046875 332.046875,512 321,512 L100,512 C66.914062,512 40,485.085938 40,452 L40,442.574219 C16.71875,434.316406 0,412.074219 0,386 C0,359.925781 16.722656,337.695312 40,329.441406 L40,322.574219 C16.71875,314.316406 0,292.074219 0,266 C0,239.925781 16.722656,217.695312 40,209.441406 L40,202.574219 C16.71875,194.316406 0,172.074219 0,146 C0,119.925781 16.722656,97.695312 40,89.441406 L40,60 C40,26.914062 66.914062,0 100,0 L451,0 C462.046875,0 471,8.953125 471,20 L471,278 C471,289.046875 462.046875,298 451,298 C439.953125,298 431,289.046875 431,278 L431,40 L100,40 C88.972656,40 80,48.972656 80,60 L80,86 L100,86 C111.046875,86 120,94.953125 120,106 C120,117.046875 111.046875,126 100,126 L60,126 C48.972656,126 40,134.972656 40,146 C40,157.027344 48.972656,166 60,166 C71.046875,166 80,174.953125 80,186 L80,206 L100,206 C111.046875,206 120,214.953125 120,226 C120,237.046875 111.046875,246 100,246 L60,246 C48.972656,246 40,254.972656 40,266 C40,277.027344 48.972656,286 60,286 C71.046875,286 80,294.953125 80,306 L80,326 L100,326 C111.046875,326 120,334.953125 120,346 C120,357.046875 111.046875,366 100,366 L60,366 C48.972656,366 40,374.972656 40,386 C40,397.027344 48.972656,406 60,406 C71.046875,406 80,414.953125 80,426 L80,452 C80,463.027344 88.972656,472 100,472 L321,472 C332.046875,472 341,480.953125 341,492 Z M494.425781,494.425781 C482.730469,506.121094 467.363281,511.972656 452,511.972656 C436.636719,511.972656 421.269531,506.121094 409.574219,494.425781 L300.207031,384.855469 C297.769531,382.414062 296.007812,379.386719 295.089844,376.0625 L278.777344,317.1875 C266.503906,321.449219 250.777344,325.492188 235.253906,325.492188 C218.25,325.492188 201.503906,320.644531 189.828125,305.929688 C175.90625,288.371094 175.277344,272.113281 177.199219,261.5625 C183.484375,227.101562 224.445312,202.570312 264.058594,178.847656 C283.066406,167.464844 302.71875,155.695312 314.429688,144.910156 C320.640625,139.1875 322.65625,135.546875 323.300781,133.886719 C323.789062,132.636719 323.769531,132.242188 323.175781,131.070312 C321.09375,126.980469 318.082031,124.667969 313.101562,123.34375 C304.589844,121.074219 283.726562,120.230469 239.625,140.046875 C211.046875,152.886719 188.25,167.542969 188.03125,167.683594 C178.84375,173.8125 166.457031,171.308594 160.328125,162.117188 C154.203125,152.925781 156.714844,140.488281 165.90625,134.363281 C166.136719,134.210938 190.640625,118.296875 222.34375,103.960938 C264.839844,84.742188 298.75,78.238281 323.128906,84.617188 C339.199219,88.824219 351.542969,98.617188 358.828125,112.933594 C366.011719,127.054688 368.84375,149.171875 341.527344,174.335938 C326.796875,187.902344 306.304688,200.175781 284.613281,213.164062 C257.167969,229.601562 219.585938,252.105469 216.554688,268.738281 C216.289062,270.1875 215.589844,274.035156 221.171875,281.074219 C229.109375,291.085938 262.46875,282.648438 282.890625,272.199219 C282.953125,272.164062 283.015625,272.144531 283.078125,272.113281 C283.621094,271.84375 284.171875,271.585938 284.734375,271.367188 C284.765625,271.355469 284.792969,271.347656 284.820312,271.335938 C285.335938,271.140625 285.863281,270.96875 286.390625,270.8125 C286.570312,270.761719 286.753906,270.710938 286.933594,270.664062 C287.414062,270.539062 287.894531,270.425781 288.382812,270.335938 C288.558594,270.304688 288.734375,270.277344 288.914062,270.25 C289.347656,270.183594 289.78125,270.128906 290.222656,270.089844 C290.429688,270.070312 290.632812,270.054688 290.839844,270.042969 C291.300781,270.015625 291.765625,270.003906 292.230469,270.011719 C292.347656,270.011719 292.46875,270.007812 292.585938,270.011719 C293.113281,270.027344 293.640625,270.070312 294.167969,270.128906 C294.339844,270.144531 294.511719,270.167969 294.683594,270.191406 C295.132812,270.253906 295.578125,270.328125 296.027344,270.421875 C296.144531,270.445312 296.265625,270.464844 296.386719,270.492188 C296.863281,270.597656 297.339844,270.722656 297.8125,270.863281 L376.539062,294.777344 C379.691406,295.734375 382.558594,297.457031 384.882812,299.789062 L494.441406,409.59375 C517.820312,432.96875 517.820312,471.03125 494.425781,494.425781 L494.425781,494.425781 Z M332.230469,360.316406 L405.746094,433.96875 L434.035156,405.679688 L360.109375,331.589844 L320.980469,319.703125 L332.230469,360.316406 Z M466.140625,437.859375 L462.289062,433.996094 L434.003906,462.28125 L437.871094,466.15625 C445.65625,473.941406 458.34375,473.941406 466.140625,466.140625 C473.941406,458.34375 473.941406,445.65625 466.140625,437.859375 Z"/>
</svg>
