<svg xmlns="http://www.w3.org/2000/svg" width="512" height="512" viewBox="0 0 512 512">
  <path d="M357.140625,181.140625 L283.785156,254.5 L357.140625,327.859375 C364.953125,335.667969 364.953125,348.332031 357.140625,356.140625 C353.238281,360.046875 348.117188,362 343,362 C337.882812,362 332.761719,360.046875 328.859375,356.140625 L255.5,282.785156 L182.140625,356.140625 C178.238281,360.046875 173.117188,362 168,362 C162.882812,362 157.761719,360.046875 153.859375,356.140625 C146.046875,348.332031 146.046875,335.667969 153.859375,327.859375 L227.214844,254.5 L153.859375,181.140625 C146.046875,173.332031 146.046875,160.667969 153.859375,152.859375 C161.667969,145.046875 174.332031,145.046875 182.140625,152.859375 L255.5,226.214844 L328.859375,152.859375 C336.667969,145.046875 349.332031,145.046875 357.140625,152.859375 C364.953125,160.667969 364.953125,173.332031 357.140625,181.140625 Z M437.019531,74.980469 C388.667969,26.628906 324.378906,0 256,0 C187.621094,0 123.332031,26.628906 74.980469,74.980469 C26.628906,123.332031 0,187.621094 0,256 C0,324.378906 26.628906,388.667969 74.980469,437.019531 C123.332031,485.371094 187.621094,512 256,512 C302.8125,512 348.617188,499.242188 388.460938,475.105469 C397.910156,469.382812 400.929688,457.085938 395.207031,447.640625 C389.484375,438.191406 377.183594,435.171875 367.738281,440.894531 C334.144531,461.242188 295.503906,472 256,472 C136.898438,472 40,375.101562 40,256 C40,136.898438 136.898438,40 256,40 C375.101562,40 472,136.898438 472,256 C472,298.589844 459.335938,340.042969 435.375,375.886719 C429.234375,385.066406 431.703125,397.488281 440.886719,403.628906 C450.066406,409.765625 462.488281,407.300781 468.628906,398.117188 C497,355.675781 512,306.53125 512,256 C512,187.621094 485.371094,123.332031 437.019531,74.980469 Z"/>
</svg>
