<svg xmlns="http://www.w3.org/2000/svg" width="512" height="512" viewBox="0 0 512 512">
  <path d="M512,225.441406 L512,100.195312 L470.417969,100.195312 L470.417969,115.226562 L496.96875,115.226562 L496.96875,199.101562 L413.09375,115.226562 L455.390625,115.226562 L455.390625,100.195312 L323.632812,100.195312 L323.632812,70.136719 L308.601562,70.136719 L308.601562,52.601562 C308.601562,23.597656 285.003906,0 256,0 C250.390625,0 244.867188,0.878906 239.582031,2.613281 L244.269531,16.894531 C248.039062,15.65625 251.984375,15.03125 256,15.03125 C276.71875,15.03125 293.574219,31.882812 293.574219,52.601562 L293.574219,70.136719 L218.425781,70.136719 L218.425781,52.601562 C218.425781,40.777344 223.828125,29.878906 233.246094,22.699219 L224.132812,10.746094 C210.957031,20.792969 203.398438,36.050781 203.398438,52.601562 L203.398438,70.136719 L188.367188,70.136719 L188.367188,100.195312 L-2.84217094e-14,100.195312 L-2.84217094e-14,225.441406 L40.078125,225.441406 L40.078125,250.488281 L-2.84217094e-14,250.488281 L-2.84217094e-14,335.65625 L40.078125,335.65625 L40.078125,396.273438 L55.109375,396.273438 L55.109375,335.65625 L100.195312,335.65625 L100.195312,456.890625 L55.109375,456.890625 L55.109375,411.304688 L40.078125,411.304688 L40.078125,456.890625 L20.039062,456.890625 L20.039062,512 L135.265625,512 L135.265625,456.890625 L115.226562,456.890625 L115.226562,335.65625 L316.117188,335.65625 L316.117188,320.625 L293.441406,320.625 L238.339844,265.519531 L302.105469,265.519531 L357.210938,320.625 L331.148438,320.625 L331.148438,335.65625 L396.773438,335.65625 L396.773438,381.246094 L411.804688,381.246094 L411.804688,335.65625 L456.890625,335.65625 L456.890625,456.890625 L411.804688,456.890625 L411.804688,396.273438 L396.773438,396.273438 L396.773438,456.890625 L376.734375,456.890625 L376.734375,512 L491.960938,512 L491.960938,456.890625 L471.921875,456.890625 L471.921875,335.65625 L512,335.65625 L512,250.488281 L471.921875,250.488281 L471.921875,225.441406 L512,225.441406 Z M402,210.410156 L338.246094,210.410156 L243.0625,115.226562 L306.8125,115.226562 L402,210.410156 Z M203.398438,85.167969 L308.601562,85.167969 L308.601562,100.195312 L203.398438,100.195312 L203.398438,85.167969 Z M221.808594,115.226562 L316.992188,210.410156 L253.222656,210.410156 L158.035156,115.226562 L221.808594,115.226562 Z M136.78125,115.226562 L231.96875,210.410156 L168.207031,210.410156 L73.019531,115.226562 L136.78125,115.226562 Z M15.03125,115.226562 L51.765625,115.226562 L146.949219,210.410156 L83.1875,210.410156 L15.03125,142.25 L15.03125,115.226562 Z M100.195312,225.441406 L100.195312,250.488281 L55.109375,250.488281 L55.109375,225.441406 L100.195312,225.441406 Z M15.03125,210.410156 L15.03125,163.507812 L61.933594,210.410156 L15.03125,210.410156 Z M15.03125,320.625 L15.03125,265.519531 L47.046875,265.519531 L102.152344,320.625 L15.03125,320.625 Z M120.234375,471.921875 L120.234375,496.96875 L35.070312,496.96875 L35.070312,471.921875 L120.234375,471.921875 Z M123.40625,320.625 L68.300781,265.519531 L132.070312,265.519531 L187.179688,320.625 L123.40625,320.625 Z M272.1875,320.625 L208.433594,320.625 L153.324219,265.519531 L217.085938,265.519531 L272.1875,320.625 Z M378.464844,320.625 L323.359375,265.519531 L354.191406,265.519531 L354.191406,250.488281 L115.226562,250.488281 L115.226562,225.441406 L396.773438,225.441406 L396.773438,250.488281 L369.222656,250.488281 L369.222656,265.519531 L387.128906,265.519531 L442.238281,320.625 L378.464844,320.625 Z M476.929688,471.921875 L476.929688,496.96875 L391.765625,496.96875 L391.765625,471.921875 L476.929688,471.921875 Z M496.96875,265.519531 L496.96875,320.625 L463.492188,320.625 L408.382812,265.519531 L496.96875,265.519531 Z M411.804688,250.488281 L411.804688,225.441406 L456.890625,225.441406 L456.890625,250.488281 L411.804688,250.488281 Z M423.253906,210.410156 L328.066406,115.226562 L391.839844,115.226562 L487.023438,210.410156 L423.253906,210.410156 Z"/>
  <polygon points="371.227 37.074 386.254 37.074 386.254 52.102 371.227 52.102"/>
  <polygon points="341.168 37.074 356.195 37.074 356.195 52.102 341.168 52.102"/>
  <polygon points="401.285 37.074 416.313 37.074 416.313 52.102 401.285 52.102"/>
  <polygon points="125.746 37.074 140.773 37.074 140.773 52.102 125.746 52.102"/>
  <polygon points="95.688 37.074 110.715 37.074 110.715 52.102 95.688 52.102"/>
  <polygon points="155.805 37.074 170.832 37.074 170.832 52.102 155.805 52.102"/>
  <polygon points="233.457 40.078 248.484 40.078 248.484 55.109 233.457 55.109"/>
  <polygon points="263.516 40.078 278.543 40.078 278.543 55.109 263.516 55.109"/>
  <polygon points="425.832 421.324 440.859 421.324 440.859 436.352 425.832 436.352"/>
  <polygon points="425.832 356.195 440.859 356.195 440.859 406.293 425.832 406.293"/>
  <polygon points="417.434 183.344 428.063 172.715 438.691 183.344 428.063 193.973"/>
  <polygon points="374.957 140.867 385.586 130.238 417.434 162.086 406.809 172.715"/>
</svg>
