<svg xmlns="http://www.w3.org/2000/svg" width="512" height="512" viewBox="0 0 512 512">
  <path d="M256,140 C192.037,140 140,192.038 140,256 C140,319.962 192.037,372 256,372 C267.947,372 279.735,370.187 291.036,366.61 C301.567,363.277 307.401,352.038 304.068,341.507 C300.736,330.976 289.494,325.141 278.965,328.474 C271.573,330.814 263.847,332 256,332 C214.094,332 180,297.907 180,256 C180,214.093 214.094,180 256,180 C297.906,180 332,214.093 332,256 C332,263.283 330.976,270.479 328.955,277.386 C325.854,287.988 331.935,299.095 342.537,302.196 C353.141,305.297 364.246,299.216 367.348,288.614 C370.435,278.058 372,267.084 372,256 C372,192.038 319.963,140 256,140 Z"/>
  <path d="M452,186.001 L441.929,186.001 C439.279,186.001 436.877,184.332 435.837,181.814 L435.659,181.382 C434.582,178.788 435.097,175.901 436.97,174.027 L444.093,166.905 C467.487,143.511 467.487,105.446 444.093,82.052 L429.951,67.91 C418.618,56.577 403.55,50.336 387.524,50.336 C371.496,50.336 356.429,56.577 345.097,67.91 L337.976,75.031 C336.101,76.906 333.211,77.42 330.629,76.347 L330.252,76.191 C327.669,75.124 326.001,72.723 326.001,70.074 L326.001,60 C326.001,26.916 299.085,0 266.001,0 L246.001,0 C212.917,0 186.001,26.916 186.001,60 L186.001,70.074 C186.001,72.723 184.333,75.124 181.772,76.181 L181.381,76.343 C178.79,77.421 175.9,76.906 174.027,75.032 L166.905,67.91 C155.573,56.577 140.505,50.336 124.478,50.336 C108.451,50.336 93.384,56.577 82.051,67.91 L67.909,82.05 C44.515,105.445 44.515,143.509 67.91,166.904 L75.031,174.025 C76.905,175.9 77.419,178.787 76.312,181.455 L76.191,181.747 C75.125,184.33 72.722,185.999 70.073,185.999 L60,185.999 C26.916,185.999 0,212.915 0,245.999 L0,265.999 C0,299.083 26.916,325.999 60,325.999 L70.072,325.999 C72.722,325.999 75.123,327.668 76.164,330.186 L76.342,330.618 C77.419,333.212 76.904,336.099 75.03,337.973 L67.909,345.095 C56.576,356.428 50.335,371.495 50.335,387.522 C50.335,403.548 56.576,418.615 67.908,429.948 L82.05,444.09 C93.383,455.423 108.451,461.664 124.477,461.664 C140.505,461.664 155.572,455.423 166.904,444.09 L174.025,436.969 C175.898,435.094 178.789,434.58 181.372,435.653 L181.749,435.809 C184.332,436.876 186,439.277 186,441.926 L186,452 C186,485.084 212.916,512 246,512 L266,512 C299.084,512 326,485.084 326,452 L326,441.926 C326,439.277 327.668,436.876 330.229,435.819 L330.62,435.657 C333.213,434.581 336.101,435.095 337.974,436.968 L345.096,444.09 C356.428,455.423 371.496,461.664 387.523,461.664 C403.55,461.664 418.617,455.423 429.95,444.09 L444.092,429.948 C455.424,418.616 461.665,403.548 461.665,387.522 C461.665,371.495 455.424,356.428 444.092,345.096 L436.97,337.974 C435.095,336.1 434.581,333.213 435.658,330.619 L435.809,330.253 C436.876,327.67 439.278,326.001 441.927,326.001 L452,326.001 C485.084,326.001 512,299.085 512,266.001 L512,246.001 C512,212.917 485.084,186.001 452,186.001 Z M472,266 C472,277.028 463.028,286 452,286 L441.927,286 C423.022,286 406.109,297.376 398.838,314.983 L398.708,315.297 C391.41,332.896 395.324,352.897 408.684,366.258 L415.807,373.38 C419.584,377.157 421.664,382.18 421.664,387.522 C421.664,392.864 419.584,397.886 415.806,401.664 L401.665,415.806 C397.886,419.583 392.864,421.664 387.522,421.664 C382.179,421.664 377.157,419.584 373.38,415.806 L366.257,408.683 C352.889,395.318 332.876,391.407 315.266,398.721 L314.984,398.838 C297.377,406.108 286,423.021 286,441.926 L286,452 C286,463.028 277.028,472 266,472 L246,472 C234.972,472 226,463.028 226,452 L226,441.926 C226,423.021 214.623,406.108 196.995,398.829 L196.725,398.717 C190.835,396.27 184.678,395.081 178.588,395.081 C166.477,395.081 154.637,399.79 145.742,408.684 L138.62,415.807 C134.842,419.584 129.821,421.664 124.478,421.664 C119.136,421.664 114.113,419.583 110.336,415.806 L96.194,401.664 C92.416,397.886 90.336,392.864 90.336,387.522 C90.336,382.18 92.416,377.157 96.194,373.38 L103.316,366.258 C116.677,352.897 120.591,332.896 113.292,315.297 L113.162,314.983 C105.89,297.376 88.977,286 70.073,286 L60,286 C48.972,286 40,277.028 40,266 L40,246 C40,234.972 48.972,226 60,226 L70.073,226 C88.978,226 105.891,214.624 113.189,196.953 L113.282,196.726 C120.594,179.122 116.682,159.11 103.315,145.742 L96.194,138.621 C88.395,130.822 88.395,118.134 96.194,110.336 L110.335,96.194 C114.114,92.417 119.136,90.336 124.478,90.336 C129.821,90.336 134.843,92.416 138.62,96.194 L145.743,103.317 C159.112,116.683 179.125,120.595 196.734,113.279 L197.016,113.162 C214.623,105.892 226,88.979 226,70.074 L226,60 C226,48.972 234.972,40 246,40 L266,40 C277.028,40 286,48.972 286,60 L286,70.074 C286,88.979 297.377,105.892 315.005,113.17 L315.275,113.282 C332.876,120.592 352.889,116.681 366.258,103.315 L373.38,96.192 C377.158,92.415 382.179,90.335 387.522,90.335 C392.864,90.335 397.887,92.416 401.664,96.193 L415.806,110.335 C423.605,118.133 423.605,130.821 415.807,138.619 L408.684,145.742 C395.318,159.11 391.406,179.121 398.688,196.652 L398.838,197.017 C406.11,214.624 423.023,226 441.927,226 L452,226 C463.028,226 472,234.972 472,246 L472,266 Z"/>
</svg>
