<svg xmlns="http://www.w3.org/2000/svg" width="512" height="512" viewBox="0 0 512 512">
  <path d="M368.33103,0.00662569267 C349.246243,0.199735196 330.348772,7.71587892 316.040034,22.0442822 L285.337296,52.7966488 L391.067002,158.493204 L421.786412,127.790403 C450.965258,98.6118785 451.177195,51.4703083 421.751008,22.0442822 C406.685924,6.97916616 387.413853,-0.177472034 368.32897,0.00662569267 L368.33103,0.00662569267 Z M199.183461,87.8737027 C195.825931,91.2048416 195.825931,96.6337934 199.183461,99.9652542 L218.709439,119.4912 L71.4163561,266.717885 C52.3782984,285.755907 49.8447371,307.96511 47.7156695,327.125113 C45.5883108,346.285438 43.878545,362.396242 28.8549958,377.420483 C25.5122831,380.749047 25.5122831,386.166412 28.8549958,389.495298 L54.3851664,415.008926 C57.7139977,418.351651 63.1144176,418.351651 66.4433358,415.008926 C81.4672229,399.984685 97.5782201,398.276953 116.738545,396.148242 C135.898548,394.017601 158.107718,391.485613 177.14603,372.447591 L324.389316,225.171019 L343.898622,244.680229 C347.230083,248.038081 352.658938,248.038081 355.990077,244.680229 L398.584723,202.10248 C401.899416,198.767479 401.875084,193.385195 398.54932,190.060815 L253.817551,45.3291043 C250.363369,41.8746971 244.970883,42.0832554 241.776401,45.2647344 L199.183461,87.8737027 Z M230.717792,131.499392 L312.364355,213.14609 L165.071182,360.38919 C150.047617,375.413109 134.019496,377.121163 114.859171,379.249873 C98.0921166,381.11338 79.722382,382.522436 60.7551666,397.212598 L46.584714,383.075373 C61.3936832,364.271335 62.7669814,345.788502 64.6304559,329.021448 C66.757879,309.861123 68.467574,293.81662 83.4911071,278.792701 L230.717792,131.499392 Z M168.198011,221.64484 C165.93863,221.64484 163.773905,222.542799 162.177243,224.139171 L95.4994606,290.817629 C90.2752371,296.041563 86.8202184,301.804273 85.0046672,308.214543 C83.1894379,314.625134 82.6197648,321.378496 81.5618144,330.900725 C80.824458,337.516657 78.8357519,347.435083 76.4724778,357.112766 C74.9758792,363.304822 80.5589324,368.887618 86.751053,367.391341 C96.4196596,365.028968 106.334964,363.055067 112.963061,362.318676 C122.4869,361.259792 129.252298,360.696556 135.665819,358.875855 C142.078986,357.057407 147.838348,353.588839 153.062925,348.364261 L265.17931,236.181479 C270.540384,230.816576 266.743497,221.648058 259.15851,221.64484 L168.198011,221.64484 Z M34.7593671,426.001979 C32.5353572,426.034835 30.4175188,426.948886 28.8549958,428.532384 C28.8549958,428.532384 22.0787962,435.238755 15.2832695,444.299453 C8.48808084,453.360151 0.813403869,464.341001 0.813403869,477.114229 C0.813403869,495.825575 16.181409,511.193229 34.8923777,511.193229 C53.6037778,511.193229 68.9714288,495.825897 68.9714288,477.114229 C68.9714288,464.341001 61.2305056,453.360151 54.4350691,444.299453 C47.6395393,435.238755 40.9298498,428.532384 40.9298498,428.532384 C39.3012286,426.884517 37.0740742,425.973683 34.7593671,426.001979 Z" transform="translate(34)"/>
</svg>
