<svg xmlns="http://www.w3.org/2000/svg" width="512" height="512" viewBox="0 0 512 512">
  <path d="M262.838643,127.750487 C262.838643,138.774955 253.902097,147.711501 242.87763,147.711501 L101.265216,147.711501 C90.2407485,147.711501 81.3042027,138.774955 81.3042027,127.750487 C81.3042027,116.726019 90.2407485,107.789474 101.265216,107.789474 L242.87763,107.789474 C253.901099,107.789474 262.838643,116.726019 262.838643,127.750487 Z M242.87763,187.633528 L101.265216,187.633528 C90.2407485,187.633528 81.3042027,196.570074 81.3042027,207.594542 C81.3042027,218.61901 90.2407485,227.555556 101.265216,227.555556 L242.87763,227.555556 C253.902097,227.555556 262.838643,218.61901 262.838643,207.594542 C262.838643,196.570074 253.901099,187.633528 242.87763,187.633528 Z M162.146308,267.477583 L101.265216,267.477583 C90.2407485,267.477583 81.3042027,276.414129 81.3042027,287.438596 C81.3042027,298.463064 90.2407485,307.39961 101.265216,307.39961 L162.146308,307.39961 C173.170776,307.39961 182.107322,298.463064 182.107322,287.438596 C182.107322,276.414129 173.170776,267.477583 162.146308,267.477583 Z M471.542019,332.350877 L471.542019,160.612304 C471.542019,138.599298 453.632998,120.690277 431.619992,120.690277 L343.791532,120.690277 L343.791532,188.631579 L403.563789,188.631579 C414.588257,188.631579 423.524803,197.568125 423.524803,208.592593 C423.524803,219.61706 414.588257,228.553606 403.563789,228.553606 L343.791532,228.553606 L343.791532,268.475634 L403.563789,268.475634 C414.588257,268.475634 423.524803,277.412179 423.524803,288.436647 C423.524803,299.461115 414.588257,308.397661 403.563789,308.397661 L343.791532,308.397661 L343.791532,348.319688 L403.563789,348.319688 C414.588257,348.319688 423.524803,357.256234 423.524803,368.280702 C423.524803,379.30517 414.588257,388.241715 403.563789,388.241715 L334.673341,388.241715 C321.312437,413.684023 294.64053,431.091025 263.967439,431.098012 L198.076133,431.113981 L198.076133,432.081092 C198.076133,454.094097 215.985154,472.003119 237.99816,472.003119 L431.619992,472.003119 C453.632998,472.003119 471.542019,454.094097 471.542019,432.081092 C471.542019,421.056624 480.478565,412.120078 491.503033,412.120078 C502.527501,412.120078 511.464047,421.056624 511.464047,432.081092 C511.464047,476.107103 475.646004,511.925146 431.619992,511.925146 L237.99816,511.925146 C193.972148,511.925146 158.154105,476.107103 158.154105,432.081092 L158.154105,431.123961 L80.3261131,431.142924 C80.3211228,431.142924 80.3121404,431.142924 80.306152,431.142924 C58.9808031,431.142924 38.9359532,422.842136 23.8544094,407.763587 C8.76987135,392.683041 0.462097466,372.629209 0.462097466,351.298869 L0.462097466,79.8440546 C0.462097466,35.8180429 36.2801404,-5.68434189e-14 80.306152,-5.68434189e-14 L263.947478,-5.68434189e-14 C307.973489,-5.68434189e-14 343.791532,35.8180429 343.791532,79.8440546 L343.791532,80.7682495 L431.619992,80.7682495 C475.646004,80.7682495 511.464047,116.586292 511.464047,160.612304 L511.464047,332.350877 C511.464047,343.375345 502.527501,352.311891 491.503033,352.311891 C480.478565,352.311891 471.542019,343.375345 471.542019,332.350877 Z M303.869505,79.8440546 C303.869505,57.8310487 285.960483,39.9220273 263.947478,39.9220273 L80.306152,39.9220273 C58.2931462,39.9220273 40.3841248,57.8310487 40.3841248,79.8440546 L40.3841248,351.298869 C40.3841248,361.965037 44.5380117,371.990456 52.0802807,379.530729 C59.6205536,387.070004 69.6439766,391.220897 80.306152,391.220897 L80.3151345,391.220897 L263.95646,391.175984 C285.964476,391.170994 303.868507,373.261973 303.868507,351.253957 L303.868507,79.8440546 L303.869505,79.8440546 Z"/>
</svg>
