<svg xmlns="http://www.w3.org/2000/svg" width="512" height="512" viewBox="0 0 512 512">
  <path d="M244,492 C244,503.046875 235.046875,512 224,512 L100,512 C55.886719,512 20,476.113281 20,432 L20,210 C20,198.953125 28.953125,190 40,190 C51.046875,190 60,198.953125 60,210 L60,432 C60,454.054688 77.945312,472 100,472 L224,472 C235.046875,472 244,480.953125 244,492 Z M512,60 L512,120 C512,131.046875 503.046875,140 492,140 L492,287 C492,298.046875 483.046875,307 472,307 C460.953125,307 452,298.046875 452,287 L452,140 L20,140 C8.953125,140 0,131.046875 0,120 L0,60 C0,26.917969 26.914062,0 60,0 L452,0 C485.085938,0 512,26.917969 512,60 Z M40,100 L472,100 L472,60 C472,48.972656 463.027344,40 452,40 L60,40 C48.972656,40 40,48.972656 40,60 L40,100 Z M300,220 C311.046875,220 320,211.046875 320,200 C320,188.953125 311.046875,180 300,180 L210,180 C198.953125,180 190,188.953125 190,200 C190,211.046875 198.953125,220 210,220 L300,220 Z M508.363281,403.503906 C513.214844,410.402344 513.214844,419.597656 508.363281,426.5 C507.660156,427.5 505.253906,430.910156 503.753906,432.796875 C497.054688,441.222656 481.375,460.945312 459.558594,478.355469 C431.585938,500.679688 402.800781,512 374,512 C345.199219,512 316.414062,500.679688 288.441406,478.355469 C266.625,460.945312 250.945312,441.21875 244.25,432.796875 C242.753906,430.914062 240.339844,427.5 239.636719,426.5 C234.789062,419.597656 234.789062,410.402344 239.636719,403.503906 C240.339844,402.5 242.753906,399.085938 244.253906,397.199219 C250.945312,388.78125 266.625,369.058594 288.441406,351.644531 C316.414062,329.320312 345.199219,318 374,318 C402.800781,318 431.585938,329.320312 459.558594,351.644531 C481.375,369.054688 497.054688,388.78125 503.75,397.203125 C505.25,399.089844 507.660156,402.5 508.363281,403.503906 L508.363281,403.503906 Z M466.644531,415 C434.84375,377.167969 403.707031,358 374,358 C344.292969,358 313.15625,377.167969 281.359375,415 C313.15625,452.832031 344.296875,472 374,472 C403.703125,472 434.84375,452.835938 466.644531,415 Z M375,377 C354.011719,377 337,394.011719 337,415 C337,435.988281 354.011719,453 375,453 C395.988281,453 413,435.988281 413,415 C413,394.011719 395.988281,377 375,377 Z"/>
</svg>
