<svg xmlns="http://www.w3.org/2000/svg" width="512" height="512" viewBox="0 0 512 512">
  <path d="M393.894,90.643961 C384.207,72.0133489 386.781,48.9723509 402.49,33.4267135 C424.216,11.9296998 463.948,14.8659649 493.643,2.08093567 C502.831,-1.87433918 512.95,5.54916179 511.929,15.3809591 C507.109,61.7613723 495.304,90.4703002 479,106.791423 C469.733,116.068304 456.517,121.083509 442.991,120.764133 C436.636,120.614425 430.213,119.303984 424.099,116.956569 L166.143,374.411727 C162.237,378.309115 157.118,380.25731 152,380.25731 C146.882,380.25731 141.763,378.309115 137.857,374.411727 C130.047,366.615953 130.047,353.976639 137.857,346.181864 L393.894,90.643961 Z M493.57,162.256094 C489.468,152.021084 477.831,147.040811 467.573,151.133817 C457.317,155.227821 452.328,166.844133 456.429,177.08014 C466.762,202.86478 472,229.584593 472,256.499025 C472,292.531649 447.523,296.421053 437,296.421053 C422.031,296.421053 414.83,292.722277 404.862,287.602277 C393.466,281.74871 379.282,274.463938 355,274.463938 C331.585,274.463938 310.095,282.856546 294.488,298.097778 C278.696,313.517661 270,334.897903 270,358.300195 C270,383.259446 278.218,396.842916 284.821,407.758596 C290.349,416.894752 294,422.930963 294,437.146199 C294,442.600546 293.051,452.924382 286.691,460.783033 C280.626,468.278394 270.3,472.077973 256,472.077973 C136.897,472.077973 40,375.369856 40,256.499025 C40,137.628195 136.897,40.920078 256,40.920078 C278.838,40.920078 302.867,45.2476257 327.422,53.7829552 C337.855,57.4068772 349.255,51.9076179 352.888,41.4969513 C356.521,31.0852865 351.009,19.7065107 340.578,16.0805926 C311.783,6.0731384 283.327,0.998050682 256,0.998050682 C187.62,0.998050682 123.333,27.5751423 74.98,75.8318908 C26.629,124.090635 -5.68434189e-14,188.25232 -5.68434189e-14,256.499025 C-5.68434189e-14,324.745731 26.629,388.907415 74.98,437.16616 C123.333,485.422908 187.62,512 256,512 C289.606,512 308.161,497.788756 317.809,485.866043 C328.25,472.96524 334,455.662035 334,437.146199 C334,411.812678 325.719,398.123415 319.063,387.123899 C313.605,378.102519 310,372.141162 310,358.300195 C310,332.444694 328.505,314.385965 355,314.385965 C369.594,314.385965 376.71,318.040827 386.559,323.098947 C398.046,329.000421 412.343,336.34308 437,336.34308 C447.716,336.34308 468.362,334.06952 486.236,318.837271 C497.989,308.821832 512,289.876834 512,256.499025 C512,224.484554 505.8,192.776483 493.57,162.256094 Z M80,263.48538 C80,279.995135 93.458,293.426901 110,293.426901 C126.542,293.426901 140,279.995135 140,263.48538 C140,246.975626 126.542,233.54386 110,233.54386 C93.458,233.54386 80,246.975626 80,263.48538 Z M284,110.783626 C284,94.2738713 270.542,80.8421053 254,80.8421053 C237.458,80.8421053 224,94.2738713 224,110.783626 C224,127.29338 237.458,140.725146 254,140.725146 C270.542,140.725146 284,127.29338 284,110.783626 Z M169.225,179.871688 C180.927,168.192499 180.927,149.188616 169.225,137.508429 L169.224,137.507431 C157.521,125.828242 138.479,125.828242 126.777,137.508429 C115.075,149.187618 115.075,168.192499 126.778,179.872686 C132.628,185.712281 140.314,188.631579 148,188.631579 C155.687,188.631579 163.374,185.711283 169.225,179.871688 L169.225,179.871688 Z"/>
</svg>
