<svg xmlns="http://www.w3.org/2000/svg" width="512" height="512" viewBox="0 0 512 512">
  <path d="M493.526163,18.4581761 C482.236265,7.19545912 467.224903,0.992716981 451.259268,0.992716981 L60.7417276,0.992716981 C44.7750973,0.992716981 29.7657276,7.19545912 18.4748327,18.4581761 C-4.8311284,41.7090189 -4.8311284,79.5375975 18.4748327,102.786453 L213.733105,297.574616 C225.382599,309.197057 240.681837,315.008277 255.988047,315.008277 C271.302226,315.008277 286.62537,309.186126 298.296778,297.543811 L426.525883,169.058013 C434.289556,161.279245 434.261665,148.693899 426.464125,140.948918 C418.665588,133.203937 406.050864,133.231761 398.287191,141.011522 L270.087969,269.465522 C262.320311,277.215472 249.679689,277.215472 241.912031,269.465522 L46.6527626,74.6773585 C38.8831128,66.9274088 38.8831128,54.3182138 46.6527626,46.5682642 C50.4160623,42.8150189 55.4195175,40.7461132 60.7417276,40.7461132 L451.259268,40.7461132 C456.581479,40.7461132 461.584934,42.8140252 465.348233,46.5682642 C473.117883,54.3182138 473.117883,66.9274088 465.348233,74.6773585 C457.567626,82.4392327 457.567626,95.0235849 465.348233,102.786453 C473.12884,110.549321 485.74456,110.549321 493.526163,102.786453 C516.831128,79.5356101 516.831128,41.7070314 493.526163,18.4581761 Z" transform="translate(0 98)"/>
</svg>
