<svg xmlns="http://www.w3.org/2000/svg" width="512" height="512" viewBox="0 0 512 512">
  <path d="M156.839844,263.347656 C147.21875,253.707031 144.378906,239.355469 149.59375,226.777344 C154.804688,214.21875 166.953125,206.101562 180.546875,206.101562 L235.058594,206.101562 L235,76.097656 C234.996094,65.054688 243.945312,56.09375 254.992188,56.089844 L255,56.089844 C266.042969,56.089844 274.996094,65.039062 275,76.082031 L275.058594,206.097656 C275.050781,228.535156 257.863281,246.101562 235.929688,246.101562 L196.144531,246.101562 L249.109375,299.136719 C251.597656,301.628906 254.503906,302 256.015625,302 C257.527344,302 260.433594,301.628906 262.921875,299.136719 L319.136719,242.855469 C313.671875,239.285156 310.0625,233.113281 310.0625,226.101562 C310.0625,215.054688 319.015625,206.101562 330.0625,206.101562 L331.5,206.101562 C345.089844,206.101562 357.238281,214.21875 362.449219,226.78125 C367.667969,239.355469 364.824219,253.710938 355.210938,263.34375 L291.222656,327.40625 C281.824219,336.816406 269.316406,342 256.015625,342 C242.710938,342 230.210938,336.816406 220.808594,327.402344 L156.839844,263.347656 Z M432,0 L393,0 C381.953125,0 373,8.953125 373,20 C373,31.046875 381.953125,40 393,40 L432,40 C454.054688,40 472,57.945312 472,80 L472,252 C472,263.046875 480.953125,272 492,272 C503.046875,272 512,263.046875 512,252 L512,80 C512,35.886719 476.113281,0 432,0 Z M512,352 L512,432 C512,476.113281 476.113281,512 432,512 L80,512 C35.886719,512 0,476.113281 0,432 L0,80 C0,35.886719 35.886719,0 80,0 L122,0 C133.046875,0 142,8.953125 142,20 C142,31.046875 133.046875,40 122,40 L80,40 C57.945312,40 40,57.945312 40,80 L40,332 L94.945312,332 C124.222656,332 151.398438,346.542969 167.640625,370.90625 C176.445312,384.113281 191.179688,392 207.054688,392 L303.945312,392 C319.820312,392 334.554688,384.113281 343.359375,370.90625 C359.601562,346.542969 386.777344,332 416.054688,332 L492,332 C503.046875,332 512,340.953125 512,352 Z M472,432 L472,372 L416.054688,372 C400.179688,372 385.445312,379.886719 376.640625,393.09375 C360.398438,417.457031 333.222656,432 303.945312,432 L207.054688,432 C177.777344,432 150.601562,417.457031 134.359375,393.09375 C125.554688,379.886719 110.820312,372 94.945312,372 L40,372 L40,432 C40,454.054688 57.945312,472 80,472 L432,472 C454.054688,472 472,454.054688 472,432 Z"/>
</svg>
