<svg xmlns="http://www.w3.org/2000/svg" width="512" height="512" viewBox="0 0 512 512">
  <path d="M166.125,432 C149.777344,432 133.945312,425.304688 122.671875,413.621094 L76.609375,365.886719 C68.9375,357.941406 69.164062,345.277344 77.113281,337.609375 C85.058594,329.9375 97.722656,330.164062 105.390625,338.113281 L151.457031,385.847656 C155.285156,389.816406 160.492188,392 166.121094,392 L166.152344,392 C171.789062,391.992188 177.003906,389.792969 180.828125,385.808594 L226.570312,338.152344 C234.21875,330.183594 246.878906,329.921875 254.847656,337.570312 C262.816406,345.21875 263.078125,357.882812 255.429688,365.851562 L209.683594,413.507812 C198.425781,425.238281 182.578125,431.976562 166.203125,432 C166.179688,432 166.148438,432 166.125,432 Z M254.851562,174.429688 C262.820312,166.78125 263.078125,154.117188 255.429688,146.152344 L209.683594,98.492188 C198.425781,86.761719 182.578125,80.023438 166.203125,80 C166.179688,80 166.152344,80 166.125,80 C149.777344,80 133.945312,86.695312 122.671875,98.378906 L76.609375,146.113281 C68.9375,154.058594 69.164062,166.722656 77.113281,174.390625 C85.058594,182.0625 97.722656,181.839844 105.390625,173.886719 L151.457031,126.152344 C155.285156,122.183594 160.492188,120 166.121094,120 L166.152344,120 C171.789062,120.007812 177.003906,122.207031 180.828125,126.191406 L226.570312,173.847656 C230.5,177.941406 235.746094,180 241.003906,180 C245.984375,180 250.972656,178.148438 254.851562,174.429688 Z M332,432 C332,420.953125 323.046875,412 312,412 C300.953125,412 292,420.953125 292,432 C292,454.054688 274.054688,472 252,472 L80,472 C57.945312,472 40,454.054688 40,432 L40,80 C40,57.945312 57.945312,40 80,40 L252,40 C274.054688,40 292,57.945312 292,80 L292,331 C292,342.046875 300.953125,351 312,351 C323.046875,351 332,342.046875 332,331 L332,80 C332,35.886719 296.113281,0 252,0 L80,0 C35.886719,0 0,35.886719 0,80 L0,432 C0,476.113281 35.886719,512 80,512 L252,512 C296.113281,512 332,476.113281 332,432 Z M166,235 C154.953125,235 146,243.953125 146,255 C146,266.046875 154.953125,275 166,275 C177.046875,275 186,266.046875 186,255 C186,243.953125 177.046875,235 166,235 Z" transform="translate(90)"/>
</svg>
