<svg xmlns="http://www.w3.org/2000/svg" width="512" height="512" viewBox="0 0 512 512">
  <path d="M269.586,96.562 L126.782,239.122 C124.452,241.448 122.732,244.313 121.775,247.464 L97.863,326.189 C95.743,333.168 97.591,340.748 102.684,345.968 C107.783,351.212 115.392,353.217 122.338,351.276 L203.063,328.914 C206.387,327.993 209.416,326.228 211.856,323.792 L354.426,181.429 C377.702,159.094 377.701,118.91 354.426,96.575 C331.032,73.181 292.967,73.179 269.586,96.562 Z M187.315,291.768 L146.705,303.018 L158.591,263.887 L265.688,156.974 L293.976,185.262 L187.315,291.768 Z M326.152,153.132 L322.281,156.997 L293.997,128.713 L297.858,124.859 C305.655,117.06 318.344,117.06 326.141,124.859 C333.94,132.656 333.94,145.344 326.152,153.132 L326.152,153.132 Z M472,312 L472,80 C472,57.944 454.056,40 432,40 L80,40 C57.944,40 40,57.944 40,80 L40,432 C40,454.056 57.944,472 80,472 L432,472 C454.056,472 472,454.056 472,432 L117,432 C90.464,430.944 90.484,393.047 117,392 L492,392 C503.046,392 512,400.954 512,412 L512,432 C512,476.112 476.112,512 432,512 L80,512 C35.888,512 0,476.112 0,432 L0,80 C0,35.888 35.888,0 80,0 L432,0 C476.112,0 512,35.888 512,80 L512,312 C510.944,338.536 473.047,338.516 472,312 Z"/>
</svg>
