<svg xmlns="http://www.w3.org/2000/svg" width="512" height="512" viewBox="0 0 512 512">
  <path d="M413.68794,409.163647 L244.81185,504.371824 C226.764545,514.535969 204.313168,514.549838 186.240258,504.371824 L17.3641679,409.163647 C-5.76787698,396.119999 -5.79028141,362.824876 17.3641679,349.791896 L52.6458174,329.901026 C55.2479324,328.434069 58.4293621,328.434069 61.0314771,329.902093 C78.6210917,339.825124 58.9948073,328.760534 177.865267,395.763662 C201.079462,408.863854 229.970513,408.864921 253.186841,395.763662 C371.281681,329.197954 370.020631,329.902093 370.020631,329.902093 C372.622746,328.434069 375.803109,328.434069 378.406291,329.901026 L413.68794,349.791896 C436.795447,362.798204 436.865861,396.094394 413.68794,409.163647 Z M413.68794,226.311457 L378.413759,206.428056 C375.812711,204.962165 372.635549,204.961099 370.034501,206.426989 C370.034501,206.426989 371.290216,205.711114 253.186841,272.293891 C229.828618,285.454896 200.962105,285.307667 177.865267,272.293891 C58.9724029,205.266226 78.6210917,216.340417 61.0176077,206.426989 C58.4165595,204.962165 55.2393974,204.962165 52.6383493,206.428056 L17.3641679,226.311457 C-5.78388014,239.363641 -5.77747888,272.645961 17.3641679,285.693877 L186.240258,380.891385 C204.463598,391.153682 226.863765,390.998985 244.81185,380.891385 L413.68794,285.693877 C436.835988,272.641694 436.82852,239.359373 413.68794,226.311457 Z M413.68794,102.841687 L244.81185,7.6335108 C226.749609,-2.5445036 204.302499,-2.5445036 186.240258,7.6335108 L17.3641679,102.841687 C-5.78174639,115.892804 -5.77854575,149.164455 17.3641679,162.213438 L186.240258,257.421615 C204.469999,267.68818 226.871233,267.524948 244.81185,257.421615 L413.68794,162.213438 C436.835988,149.161255 436.827453,115.889603 413.68794,102.841687 Z" transform="translate(40)"/>
</svg>
