<svg xmlns="http://www.w3.org/2000/svg" width="512" height="512" viewBox="0 0 512 512">
  <path d="M330.03125,325.511719 C337.800781,317.683594 337.753906,305.042969 329.929688,297.273438 C322.101562,289.503906 309.460938,289.550781 301.691406,297.378906 L181.890625,418.074219 L94.1875,330.105469 L266.375,157.328125 L367.722656,258.675781 C375.519531,266.472656 388.160156,266.472656 395.957031,258.675781 L396.808594,257.824219 L489.347656,166.78125 C489.386719,166.742188 489.425781,166.707031 489.464844,166.667969 C514.886719,141.246094 513.757812,115.542969 508.335938,98.460938 C502.882812,81.277344 490.800781,63.96875 469.167969,42.335938 C447.53125,20.699219 430.222656,8.621094 413.042969,3.167969 C395.957031,-2.253906 370.253906,-3.386719 344.808594,22.058594 L51.21875,316.652344 C48.796875,319.078125 47.042969,322.089844 46.125,325.390625 L1.230469,486.679688 C-0.703125,493.636719 1.265625,501.097656 6.386719,506.1875 C10.179688,509.960938 15.261719,512 20.46875,512 C22.289062,512 24.121094,511.75 25.921875,511.238281 L185.746094,465.839844 C189.601562,465.125 193.285156,463.277344 196.257812,460.285156 L330.03125,325.511719 Z M400.960938,41.226562 C414.914062,45.65625 430.453125,60.097656 440.929688,70.570312 C451.40625,81.046875 465.84375,96.585938 470.273438,110.542969 C472.628906,117.960938 473.167969,126.46875 461.277344,138.378906 L435.113281,164.121094 L347.214844,76.222656 L373.074219,50.273438 C385.007812,38.332031 393.53125,38.871094 400.960938,41.226562 L400.960938,41.226562 Z M319.023438,104.503906 L406.644531,192.128906 L381.945312,216.429688 L294.566406,129.046875 L319.023438,104.503906 Z M87.503906,452.234375 L59.96875,424.566406 L75.683594,368.109375 L143.65625,436.285156 L87.503906,452.234375 Z M511.535156,491.144531 C511.535156,502.171875 502.597656,511.109375 491.570312,511.109375 L248.976562,511.109375 C237.949219,511.109375 229.007812,502.171875 229.007812,491.144531 C229.007812,480.117188 237.949219,471.175781 248.976562,471.175781 L491.570312,471.175781 C502.59375,471.175781 511.535156,480.117188 511.535156,491.144531 Z"/>
</svg>
