<svg xmlns="http://www.w3.org/2000/svg" width="512" height="512" viewBox="0 0 512 512">
  <path d="M492,231.5 C503.046,231.5 512,222.546 512,211.5 L512,80.5 C512,36.388 476.112,0.5 432,0.5 L80,0.5 C35.888,0.5 0,36.388 0,80.5 L0,311.5 C0,355.612 35.888,391.5 80,391.5 L432,391.5 C476.112,391.5 512,355.612 512,311.5 C512,300.454 503.046,291.5 492,291.5 C480.954,291.5 472,300.454 472,311.5 C472,333.556 454.056,351.5 432,351.5 L80,351.5 C57.944,351.5 40,333.556 40,311.5 L40,84.738 L213.755,192.783 C226.784,200.884 241.392,204.935 256,204.935 C270.608,204.935 285.216,200.884 298.245,192.783 L472,84.738 L472,211.5 C472,222.546 480.954,231.5 492,231.5 Z M277.122,158.814 C264.094,166.915 247.906,166.916 234.878,158.814 L56.689,48.012 C63.257,43.286 71.309,40.5 80,40.5 L432,40.5 C440.691,40.5 448.743,43.287 455.311,48.013 L277.122,158.814 Z" transform="translate(0 60)"/>
</svg>
