<svg xmlns="http://www.w3.org/2000/svg" width="512" height="512" viewBox="0 0 512 512">
  <path d="M505.155368,5.858 C497.359595,-1.953 484.721279,-1.953 476.926503,5.858 L421.49876,61.394 C375.25009,21.69 316.941973,6.21724894e-15 255.500975,6.21724894e-15 C187.254269,6.21724894e-15 123.092585,26.628 74.8338402,74.98 C26.5750955,123.332 -1.95018155e-14,187.62 -1.95018155e-14,256 C-1.95018155e-14,317.619 21.6287563,376 61.2643431,422.332 L5.8465809,477.858 C-1.94919298,485.669 -1.94919298,498.332 5.8465809,506.142 C9.74396881,510.047 14.8519922,512 19.9610136,512 C25.0700351,512 30.1780585,510.047 34.0754464,506.142 L505.155368,34.142 C512.951142,26.332 512.951142,13.668 505.155368,5.858 Z M39.9220273,256 C39.9220273,136.897 136.630144,40 255.500975,40 C306.289778,40 354.538542,57.567 393.169092,89.779 L89.6029942,393.938 C57.4477973,355.238 39.9220273,306.934 39.9220273,256 Z M486.477848,146.43 C502.751064,180.813 511.001949,217.677 511.001949,256 C511.001949,306.531 496.032187,355.674 467.712499,398.116 C463.864016,403.884 457.541365,407.002 451.099945,407.002 C447.286394,407.002 443.431922,405.91 440.023579,403.627 C430.85848,397.488 428.396288,385.067 434.523322,375.885 C458.43961,340.044 471.079922,298.589 471.079922,256 C471.079922,223.652 464.124507,192.554 450.4063,163.57 C445.682526,153.59 449.928234,141.662 459.88878,136.929 C469.851322,132.194 481.754074,136.45 486.477848,146.43 L486.477848,146.43 Z M394.435618,447.639 C400.147462,457.086 397.133349,469.385 387.703766,475.107 C347.937435,499.243 302.222721,512 255.500975,512 C218.085053,512 182.021489,504.075 148.311329,488.445 C138.306869,483.806 133.94938,471.919 138.579337,461.895 C143.209294,451.871 155.073123,447.507 165.077583,452.144 C193.49508,465.319 223.917661,472 255.500975,472 C294.928967,472 333.491649,461.244 367.021162,440.894 C376.448749,435.17 388.723774,438.19 394.435618,447.639 Z"/>
</svg>
