<svg xmlns="http://www.w3.org/2000/svg" width="512" height="512" viewBox="0 0 512 512">
  <path d="M489.423 174.596C477.031 174.596 466.95 184.678 466.95 197.07L466.95 232.985 454.964 237.868 454.964 229.032C454.964 213.887 442.643 201.564 427.496 201.564 412.349 201.564 400.028 213.887 400.028 229.032L400.028 287.946 377.554 281.353 377.554 259.994C377.554 247.603 367.473 237.521 355.081 237.521 342.689 237.521 332.607 247.603 332.607 259.994L332.607 289.081C332.607 305.42 343.06 319.752 358.617 324.745L400.027 338.034 400.027 391.339 376.555 391.339 376.555 406.321 476.437 406.321 476.437 391.339 454.962 391.339 454.962 286.693 485.87 274.267C501.45 269.278 511.895 254.983 511.895 238.597L511.895 197.069C511.896 184.678 501.815 174.596 489.423 174.596zM496.914 238.598C496.914 248.493 490.566 257.118 481.117 260.058L439.982 276.571 439.982 391.34 415.01 391.34 415.01 327.108 363.195 310.48C353.861 307.485 347.589 298.886 347.589 289.082L347.589 259.995C347.589 255.864 350.949 252.504 355.08 252.504 359.211 252.504 362.571 255.864 362.571 259.995L362.571 292.573 415.009 307.954 415.009 229.031C415.009 222.146 420.609 216.546 427.494 216.546 434.379 216.546 439.979 222.146 439.979 229.031L439.979 260.148 481.93 243.057 481.93 197.068C481.93 192.937 485.29 189.577 489.421 189.577 493.552 189.577 496.912 192.937 496.912 197.068L496.912 238.598 496.914 238.598zM290.302 391.34C285.563 389.073 268.29 380.166 246.983 361.493 223.952 341.309 191.355 305.244 166.851 248.055 157.237 225.62 142.225 205.91 122.855 190.071L122.855 146.917 162.308 136.582C178.775 132.27 190.275 117.371 190.275 100.349L190.275 72.537C190.275 66.423 187.737 60.496 183.313 56.275 178.825 51.993 172.93 49.79 166.725 50.089 154.726 50.654 145.328 60.701 145.328 72.96L145.328 93.912 122.854 100.57 122.854 28.269C122.854 13.124 110.533.801 95.386.801 80.24.801 67.918 13.124 67.918 28.269L67.918 65.387 45.446 65.387 45.446 39.256C45.446 26.996 36.047 16.95 24.05 16.386 17.832 16.091 11.949 18.29 7.463 22.57 3.037 26.792.499 32.719.499 38.833L.499 72.879C.499 93.533 17.301 110.335 37.955 110.335L67.92 110.335 67.92 159.959C48.978 153.584 28.877 150.27 8.402 150.27L0 150.27 0 165.252 8.402 165.252C73.201 165.252 129.991 200.07 153.079 253.956 178.84 314.075 213.307 352.02 237.686 373.265 246.214 380.696 254.112 386.656 260.941 391.34L190.275 391.34 190.275 379.175C190.275 373.061 187.737 367.133 183.312 362.912 178.824 358.632 172.935 356.44 166.726 356.727 154.727 357.29 145.328 367.337 145.328 379.598L145.328 400.55 122.854 407.208 122.854 334.905C122.854 319.76 110.533 307.437 95.386 307.437 80.24 307.437 67.918 319.759 67.918 334.905L67.918 372.023 45.446 372.023 45.446 345.892C45.446 333.632 36.047 323.586 24.05 323.022 17.838 322.729 11.95 324.925 7.463 329.206 3.038 333.43.5 339.357.5 345.47L.5 379.516C.5 400.17 17.302 416.972 37.956 416.972L67.921 416.972 67.921 496.217 45.446 496.217 45.446 511.199 145.328 511.199 145.328 496.217 122.854 496.217 122.854 453.556 162.307 443.221C178.774 438.909 190.274 424.01 190.274 406.988L190.274 406.323 265.685 406.323 288.658 406.323 331.607 406.323 331.607 391.34 290.302 391.34zM107.873 135.353L107.873 179.156C106.137 178.032 104.375 176.935 102.585 175.867 96.244 172.083 89.662 168.724 82.902 165.758L82.902 95.351 37.955 95.351C25.563 95.351 15.482 85.269 15.482 72.878L15.482 38.832C15.482 36.764 16.307 34.839 17.804 33.41 19.299 31.983 21.264 31.272 23.345 31.349 27.27 31.535 30.464 35.081 30.464 39.255L30.464 80.369 82.902 80.369 82.902 28.269C82.902 21.384 88.502 15.784 95.387 15.784 102.272 15.784 107.872 21.384 107.872 28.269L107.872 120.638 160.31 105.099 160.31 72.961C160.31 68.787 163.504 65.24 167.429 65.055 169.499 64.956 171.474 65.689 172.97 67.116 174.467 68.545 175.292 70.47 175.292 72.539L175.292 100.351C175.292 110.565 168.392 119.504 158.512 122.092L107.873 135.353zM175.293 406.988C175.293 417.202 168.393 426.141 158.513 428.729L107.873 441.991 107.873 496.216 82.902 496.216 82.902 401.99 37.955 401.99C25.563 401.99 15.482 391.908 15.482 379.517L15.482 345.47C15.482 343.402 16.307 341.477 17.804 340.048 19.299 338.621 21.264 337.885 23.345 337.987 27.27 338.172 30.464 341.718 30.464 345.892L30.464 387.005 82.902 387.005 82.902 334.904C82.902 328.019 88.502 322.419 95.387 322.419 102.272 322.419 107.872 328.019 107.872 334.904L107.872 427.273 160.31 411.734 160.31 379.596C160.31 375.421 163.503 371.876 167.43 371.69 169.508 371.608 171.475 372.325 172.97 373.751 174.467 375.179 175.292 377.104 175.292 379.173L175.292 406.988 175.293 406.988z"/>
  <rect width="14.982" height="14.982" x="240.756" y="120.658"/>
  <path d="M283.874,118.413 C279.383,119.423 274.777,120.099 270.182,120.426 L271.244,135.371 C276.585,134.991 281.939,134.204 287.159,133.031 L283.874,118.413 Z"/>
  <path d="M470.14,24.601 C459.591,10.027 443.224,1.668 425.233,1.668 C407.242,1.668 390.875,10.026 380.326,24.601 L364.806,46.045 L349.283,24.607 C338.736,10.03 322.369,1.67 304.375,1.67 C286.382,1.67 270.015,10.03 259.469,24.606 L217.608,82.436 C214.076,87.313 210.054,91.861 205.652,95.95 L215.85,106.925 C220.966,102.173 225.64,96.89 229.744,91.222 L271.606,33.39 C279.302,22.754 291.246,16.653 304.376,16.653 C317.506,16.653 329.45,22.753 337.148,33.392 L355.56,58.821 L338.466,82.439 C328.02,96.871 313.722,107.915 297.114,114.377 L302.547,128.34 C321.846,120.831 338.464,107.997 350.603,91.225 L392.463,33.388 C400.161,22.753 412.105,16.653 425.233,16.653 C438.362,16.653 450.306,22.752 458.003,33.388 L499.863,91.225 L512,82.44 L470.14,24.601 Z"/>
  <path d="M.057 14.77C17.409 19.292 33.779 27.211 47.397 37.675L56.524 25.794C41.33 14.12 23.109 5.294 3.834.271L.057 14.77zM88.278 61.102L75.421 68.794C77.732 72.657 79.79 76.682 81.537 80.759L95.308 74.857C93.297 70.165 90.932 65.537 88.278 61.102zM68.514 36.18L58.046 46.897C61.417 50.19 64.584 53.692 67.459 57.307L79.184 47.98C75.923 43.879 72.332 39.908 68.514 36.18z" transform="translate(44 185)"/>
  <path d="M.622 26.695L.622 41.677C13.901 41.677 27.066 38.207 38.691 31.643L31.324 18.597C21.942 23.894 11.325 26.695.622 26.695zM51.14.939C48.529 4.536 45.517 7.864 42.187 10.83L52.152 22.018C56.285 18.338 60.025 14.206 63.266 9.739L51.14.939z" transform="translate(263 64)"/>
  <g transform="translate(404 31)">
    <path d="M41.867,11.169 C37.02,4.473 29.501,0.632 21.234,0.632 C12.968,0.632 5.449,4.472 0.601,11.169 L12.737,19.954 C15.333,16.368 18.79,15.615 21.233,15.615 C23.676,15.615 27.133,16.368 29.729,19.954 L52.54,51.472 L64.678,42.687 L41.867,11.169 Z"/>
    <rect width="14.982" height="14.982" x="64.306" y="57.814" transform="rotate(-35.895 71.797 65.305)"/>
  </g>
  <g transform="translate(265 162)">
    <rect width="11.986" height="14.982" x=".687" y=".61"/>
    <rect width="14.982" height="14.982" x="27.655" y=".61"/>
    <rect width="14.982" height="14.982" x="57.619" y=".61"/>
    <rect width="59.929" height="14.982" x="87.584" y=".61"/>
  </g>
  <g transform="translate(144 155)">
    <rect width="55.934" height="14.982" x="30.794" y=".618"/>
    <rect width="14.982" height="14.982" x=".829" y=".618"/>
  </g>
  <rect width="22.973" height="14.982" x="207.755" y="206.556"/>
  <rect width="72.914" height="14.982" x="256.697" y="206.556"/>
  <rect width="41.951" height="14.982" x="230.728" y="286.462"/>
  <rect width="58.93" height="14.982" x="285.663" y="342.396"/>
  <rect width="51.939" height="14.982" x="190.775" y="459.258"/>
  <g transform="translate(267 438)">
    <rect width="59.929" height="14.982" x=".684" y=".285"/>
    <rect width="14.982" height="14.982" x="75.596" y=".285"/>
  </g>
  <rect width="59.929" height="14.982" x="399.529" y="447.272"/>
  <rect width="64.923" height="14.982" x="430.492" y="486.226"/>
</svg>
