<svg xmlns="http://www.w3.org/2000/svg" width="512" height="512" viewBox="0 0 512 512">
  <path d="M492,0.103 L20,0.103 C8.954,0.103 0,9.057 0,20.103 C0,97.593 22.928,165.435 72.155,233.605 C102.867,276.136 157.963,307.449 186,321.471 L186,442.897 C186,450.53 190.346,457.498 197.2,460.857 L297.2,509.857 C299.984,511.221 302.995,511.897 305.999,511.897 C309.683,511.897 313.356,510.88 316.583,508.868 C322.44,505.215 326,498.8 326,491.897 L326,409.472 C326,398.426 317.046,389.472 306,389.472 C294.954,389.472 286,398.426 286,409.472 L286,459.825 L226,430.425 L226,308.897 C226,301.084 221.45,293.986 214.35,290.724 C177.012,273.568 128.568,243.402 104.584,210.188 C64.849,155.163 44.258,100.64 40.597,40.103 L471.403,40.103 C467.742,100.639 447.151,155.163 407.416,210.188 C382.068,245.291 334.37,276.067 298.344,290.995 C288.14,295.224 283.295,306.923 287.524,317.128 C291.752,327.332 303.451,332.177 313.657,327.948 C351.878,312.11 407.861,277.899 439.845,233.605 C489.072,165.435 512,97.593 512,20.103 C512,9.057 503.046,0.103 492,0.103 Z"/>
</svg>
