<svg xmlns="http://www.w3.org/2000/svg" width="512" height="512" viewBox="0 0 512 512">
  <path d="M15 90L30 90 30 135.55C30 143.834 36.716 150.55 45 150.55 53.284 150.55 60 143.834 60 135.55L60 90 75 90C83.284 90 90 83.284 90 75L90 60 136 60C144.284 60 151 53.284 151 45 151 36.716 144.284 30 136 30L90 30 90 15C90 6.716 83.284 1.42108547e-14 75 1.42108547e-14L15 1.42108547e-14C6.716 1.42108547e-14 0 6.716 0 15L0 75C0 83.284 6.716 90 15 90zM497 0L437 0C428.716 0 422 6.716 422 15L422 30 376 30C367.716 30 361 36.716 361 45 361 53.284 367.716 60 376 60L422 60 422 75C422 83.284 428.716 90 437 90L452 90 452 136C452 144.284 458.716 151 467 151 475.284 151 482 144.284 482 136L482 90 497 90C505.284 90 512 83.284 512 75L512 15C512 6.716 505.284 0 497 0zM497 422L482 422 482 376C482 367.716 475.284 361 467 361 458.716 361 452 367.716 452 376L452 422 437 422C428.716 422 422 428.716 422 437L422 451.55 376 451.55C367.716 451.55 361 458.266 361 466.55 361 474.834 367.716 481.55 376 481.55L422 481.55 422 497C422 505.284 428.716 512 437 512L497 512C505.284 512 512 505.284 512 497L512 437C512 428.716 505.284 422 497 422zM466 241C474.284 241 481 234.284 481 226L481 196C481 187.716 474.284 181 466 181 457.716 181 451 187.716 451 196L451 226C451 234.284 457.716 241 466 241zM451 316C451 324.284 457.716 331 466 331 474.284 331 481 324.284 481 316L481 286C481 277.716 474.284 271 466 271 457.716 271 451 277.716 451 286L451 316zM286 61L316 61C324.284 61 331 54.284 331 46 331 37.716 324.284 31 316 31L286 31C277.716 31 271 37.716 271 46 271 54.284 277.716 61 286 61zM196 61L226 61C234.284 61 241 54.284 241 46 241 37.716 234.284 31 226 31L196 31C187.716 31 181 37.716 181 46 181 54.284 187.716 61 196 61zM136 451.55L90 451.55 90 437C90 428.716 83.284 422 75 422L60 422 60 375.55C60 367.266 53.284 360.55 45 360.55 36.716 360.55 30 367.266 30 375.55L30 422 15 422C6.716 422 0 428.716 0 437L0 497C0 505.284 6.716 512 15 512L75 512C83.284 512 90 505.284 90 497L90 481.55 136 481.55C144.284 481.55 151 474.834 151 466.55 151 458.266 144.284 451.55 136 451.55zM46 270.55C37.716 270.55 31 277.266 31 285.55L31 315.55C31 323.834 37.716 330.55 46 330.55 54.284 330.55 61 323.834 61 315.55L61 285.55C61 277.266 54.284 270.55 46 270.55zM61 195.55C61 187.266 54.284 180.55 46 180.55 37.716 180.55 31 187.266 31 195.55L31 225.55C31 233.834 37.716 240.55 46 240.55 54.284 240.55 61 233.834 61 225.55L61 195.55zM226 450.55L196 450.55C187.716 450.55 181 457.266 181 465.55 181 473.834 187.716 480.55 196 480.55L226 480.55C234.284 480.55 241 473.834 241 465.55 241 457.266 234.284 450.55 226 450.55zM316 450.55L286 450.55C277.716 450.55 271 457.266 271 465.55 271 473.834 277.716 480.55 286 480.55L316 480.55C324.284 480.55 331 473.834 331 465.55 331 457.266 324.284 450.55 316 450.55zM210.95 376C210.95 384.284 217.666 391 225.95 391L286.05 391C294.334 391 301.05 384.284 301.05 376L301.05 211 361 211C369.284 211 376 204.284 376 196L376 136C376 127.716 369.284 121 361 121L151 121C142.716 121 136 127.716 136 136L136 196C136 204.284 142.716 211 151 211L210.95 211 210.95 376z"/>
</svg>
