<svg xmlns="http://www.w3.org/2000/svg" width="1024" height="800" viewBox="0 0 1024 800">
  <g fill="none" fill-rule="evenodd">
    <path fill="currentColor" d="M974,0 C1001.61424,-5.07265313e-15 1024,22.3857625 1024,50 L1024,750 C1024,777.614237 1001.61424,800 974,800 L50,800 C22.3857625,800 3.38176876e-15,777.614237 0,750 L0,50 C-3.38176876e-15,22.3857625 22.3857625,5.07265313e-15 50,0 L974,0 Z M959,30 L65,30 C45.6700338,30 30,45.6700338 30,65 L30,65 L30,735 C30,754.329966 45.6700338,770 65,770 L65,770 L959,770 C978.329966,770 994,754.329966 994,735 L994,735 L994,65 C994,45.6700338 978.329966,30 959,30 L959,30 Z"/>
    <line x1="24" x2="999" y1="195" y2="195" stroke="currentColor" stroke-linecap="square" stroke-width="30"/>
    <circle cx="105" cy="105" r="20" fill="currentColor"/>
    <line x1="200" x2="424" y1="105" y2="105" stroke="currentColor" stroke-linecap="round" stroke-width="40"/>
    <g transform="translate(112 286)">
      <g fill="currentColor">
        <path d="M302,-2.4253192e-14 C310.284271,-2.5774988e-14 317,6.71572875 317,15 L317,51.3666667 C317,59.6509379 310.284271,66.3666667 302,66.3666667 L15,66.3666667 C6.71572875,66.3666667 1.01453063e-15,59.6509379 0,51.3666667 L0,15 C-1.01453063e-15,6.71572875 6.71572875,-2.27313961e-14 15,-2.4253192e-14 L302,-2.4253192e-14 Z M50,20 L30,20 C24.4771525,20 20,24.4771525 20,30 L20,30 L20,36.3666667 C20,41.8895142 24.4771525,46.3666667 30,46.3666667 L30,46.3666667 L50,46.3666667 C55.5228475,46.3666667 60,41.8895142 60,36.3666667 L60,36.3666667 L60,30 C60,24.4771525 55.5228475,20 50,20 L50,20 Z" transform="translate(0 114.633)"/>
        <path d="M156.961644,0 C165.245915,1.31940259e-14 171.961644,6.71572875 171.961644,15 L171.961644,75.5 C171.961644,83.7842712 165.245915,90.5 156.961644,90.5 L15,90.5 C6.71572875,90.5 1.01453063e-15,83.7842712 0,75.5 L0,15 C-1.01453063e-15,6.71572875 6.71572875,3.29815278e-15 15,0 L156.961644,0 Z M50,30 L30,30 C24.4771525,30 20,34.4771525 20,40 L20,40 L20,50.5 C20,56.0228475 24.4771525,60.5 30,60.5 L30,60.5 L50,60.5 C55.5228475,60.5 60,56.0228475 60,50.5 L60,50.5 L60,40 C60,34.4771525 55.5228475,30 50,30 L50,30 Z"/>
      </g>
      <rect width="785" height="166" x="7.5" y="7.5" stroke="currentColor" stroke-width="15" rx="30" transform="translate(0 205)"/>
    </g>
    <text fill="currentColor" font-family="SourceSansPro-Black, Source Sans Pro Black" font-size="104" font-weight="700">
      <tspan x="415" y="618">…%</tspan>
    </text>
  </g>
</svg>
