<svg xmlns="http://www.w3.org/2000/svg" width="1024" height="740" viewBox="0 0 1024 740">
  <g fill="none" fill-rule="evenodd">
    <g fill="currentColor" transform="translate(609 50)">
      <path d="M350,-3.55271368e-14 C358.284271,-4.06016464e-14 365,6.71572875 365,15 L365,95 C365,103.284271 358.284271,110 350,110 L15,110 C6.71572875,110 1.01453063e-15,103.284271 0,95 L0,15 C-1.01453063e-15,6.71572875 6.71572875,-3.40053408e-14 15,-3.55271368e-14 L350,-3.55271368e-14 Z M50,20 L30,20 C24.4771525,20 20,24.4771525 20,30 L20,30 L20,80 C20,85.5228475 24.4771525,90 30,90 L30,90 L50,90 C55.5228475,90 60,85.5228475 60,80 L60,80 L60,30 C60,24.4771525 55.5228475,20 50,20 L50,20 Z" transform="translate(0 190)"/>
      <path d="M183,0 C191.284271,-1.52179594e-15 198,6.71572875 198,15 L198,135 C198,143.284271 191.284271,150 183,150 L15,150 C6.71572875,150 1.01453063e-15,143.284271 0,135 L0,15 C-1.01453063e-15,6.71572875 6.71572875,1.52179594e-15 15,0 L183,0 Z M50,30 L30,30 C24.4771525,30 20,34.4771525 20,40 L20,40 L20,110 C20,115.522847 24.4771525,120 30,120 L30,120 L50,120 C55.5228475,120 60,115.522847 60,110 L60,110 L60,40 C60,34.4771525 55.5228475,30 50,30 L50,30 Z" transform="translate(167)"/>
    </g>
    <rect width="909" height="285" x="7.5" y="7.5" stroke="currentColor" stroke-width="15" rx="30" transform="translate(50 390)"/>
  </g>
</svg>
