<svg xmlns="http://www.w3.org/2000/svg" width="512" height="512" viewBox="0 0 512 512">
  <path d="M493.714286,237.714286 C483.615365,237.714286 475.428571,245.901079 475.428571,256 L475.428571,420.571429 C475.428571,450.868192 450.868192,475.428571 420.571429,475.428571 L91.4285714,475.428571 C61.131808,475.428571 36.5714286,450.868192 36.5714286,420.571429 L36.5714286,91.4285714 C36.5714286,61.131808 61.131808,36.5714286 91.4285714,36.5714286 L256,36.5714286 C266.098921,36.5714286 274.285714,28.3846354 274.285714,18.2857143 C274.285714,8.18679315 266.098921,-6.49639073e-14 256,-6.49639073e-14 L91.4285714,-6.49639073e-14 C40.9339657,-6.49639073e-14 -6.49639073e-14,40.9339657 -6.49639073e-14,91.4285714 L-6.49639073e-14,420.571429 C-6.49639073e-14,444.819793 9.6326254,468.075008 26.7788086,485.221191 C43.9249917,502.367375 67.1802066,512 91.4285714,512 L420.571429,512 C471.066034,512 512,471.066034 512,420.571429 L512,256 C512,245.901079 503.813207,237.714286 493.714286,237.714286 Z"/>
  <path d="M365.714286,36.5714286 L449.645714,36.5714286 L243.017143,243.017143 C239.555426,246.450589 237.608259,251.124342 237.608259,256 C237.608259,260.875658 239.555426,265.549411 243.017143,268.982857 C246.450589,272.444574 251.124342,274.391741 256,274.391741 C260.875658,274.391741 265.549411,272.444574 268.982857,268.982857 L475.428571,62.5371429 L475.428571,146.285714 C475.428571,156.384635 483.615365,164.571429 493.714286,164.571429 C503.813207,164.571429 512.000306,156.384635 512.000306,146.285714 L512.000306,18.2857143 C512.028101,13.4253169 510.119982,8.75371576 506.697143,5.30285714 C503.246284,1.88001802 498.574683,-0.0281007323 493.714286,-0.000306034825 L365.714286,-0.000306034825 C355.615365,-0.000306034825 347.428571,8.18679315 347.428571,18.2857143 C347.428571,28.3846354 355.615365,36.5714286 365.714286,36.5714286 Z"/>
</svg>
