<svg xmlns="http://www.w3.org/2000/svg" width="1024" height="740" viewBox="0 0 1024 740">
  <g fill="none" fill-rule="evenodd">
    <rect width="909" height="285" x="7.5" y="7.5" stroke="currentColor" stroke-width="15" rx="30" transform="translate(50 390)"/>
    <path fill="currentColor" d="M183,0 C191.284271,-1.52179594e-15 198,6.71572875 198,15 L198,135 C198,143.284271 191.284271,150 183,150 L15,150 C6.71572875,150 1.01453063e-15,143.284271 0,135 L0,15 C-1.01453063e-15,6.71572875 6.71572875,1.52179594e-15 15,0 L183,0 Z M50,30 L30,30 C24.4771525,30 20,34.4771525 20,40 L20,40 L20,110 C20,115.522847 24.4771525,120 30,120 L30,120 L50,120 C55.5228475,120 60,115.522847 60,110 L60,110 L60,40 C60,34.4771525 55.5228475,30 50,30 L50,30 Z" transform="translate(413 465)"/>
  </g>
</svg>
