<svg xmlns="http://www.w3.org/2000/svg" width="512" height="512" viewBox="0 0 512 512">
  <path d="M511.867188,330.25 C511.851562,314.75 502.582031,300.902344 488.253906,294.976562 C473.941406,289.058594 457.628906,292.304688 446.6875,303.246094 L389.097656,360.835938 L284.195312,256.007812 L389.042969,151.101562 C404.628906,135.503906 404.625,110.136719 389.035156,94.546875 L334.480469,39.992188 L451.949219,40.042969 L451.960938,40.042969 C457.300781,40.042969 462.324219,42.125 466.101562,45.902344 C469.878906,49.679688 471.960938,54.707031 471.957031,60.054688 L471.878906,177.390625 L460.917969,166.429688 C453.105469,158.621094 440.445312,158.621094 432.640625,166.429688 C424.828125,174.238281 424.828125,186.898438 432.636719,194.707031 L446.6875,208.757812 C457.628906,219.699219 473.945312,222.941406 488.253906,217.023438 C502.582031,211.097656 511.851562,197.253906 511.867188,181.746094 L511.949219,60.082031 C511.960938,44.042969 505.722656,28.960938 494.378906,17.621094 C483.046875,6.289062 467.984375,0.0507812 451.984375,0.0507812 C451.96875,0.0507812 451.957031,0.0507812 451.941406,0.0507812 L330.246094,5.62605518e-14 C314.761719,0.015625 300.921875,9.300781 294.988281,23.648438 C289.050781,38.007812 292.289062,54.359375 303.242188,65.3125 L360.757812,122.828125 L255.90625,227.738281 L151.070312,122.976562 C135.476562,107.394531 110.109375,107.402344 94.519531,122.988281 L40.117188,177.390625 L40.039062,60.0625 C40.035156,54.71875 42.113281,49.691406 45.894531,45.910156 C49.671875,42.132812 54.691406,40.054688 60.054688,40.054688 L60.066406,40.054688 L177.511719,39.992188 L166.425781,51.082031 C158.617188,58.890625 158.617188,71.550781 166.425781,79.359375 C174.234375,87.171875 186.898438,87.171875 194.707031,79.359375 L208.753906,65.3125 C219.707031,54.359375 222.945312,38.003906 217.007812,23.648438 C211.074219,9.300781 197.234375,0.015625 181.71875,5.62605518e-14 L60.070312,0.0625 C60.058594,0.0625 60.046875,0.0625 60.035156,0.0625 C44.011719,0.0625 28.945312,6.304688 17.613281,17.636719 C6.273438,28.976562 0.0351562,44.054688 0.046875,60.089844 L0.128906,181.753906 C0.144531,197.253906 9.414062,211.101562 23.742188,217.027344 C38.054688,222.941406 54.367188,219.699219 65.308594,208.757812 L122.800781,151.265625 L227.632812,256.023438 L122.878906,360.832031 C107.292969,376.425781 107.296875,401.796875 122.886719,417.382812 L177.386719,471.882812 L60.011719,472.007812 C60.003906,472.007812 59.996094,472.007812 59.988281,472.007812 C54.648438,472.007812 49.628906,469.925781 45.851562,466.148438 C42.066406,462.367188 39.988281,457.339844 39.996094,451.988281 L40.117188,334.613281 L51.078125,345.574219 C58.890625,353.382812 71.550781,353.382812 79.359375,345.574219 C87.167969,337.765625 87.167969,325.101562 79.359375,317.292969 L65.308594,303.246094 C54.367188,292.304688 38.054688,289.058594 23.746094,294.976562 C9.414062,300.902344 0.144531,314.75 0.128906,330.25 L-2.92808086e-05,451.945312 C-0.015625,467.996094 6.222656,483.082031 17.570312,494.429688 C28.902344,505.761719 43.964844,512 59.988281,512 L60.050781,512 L181.75,511.871094 C197.25,511.855469 211.09375,502.585938 217.019531,488.257812 C222.941406,473.949219 219.695312,457.632812 208.753906,446.691406 L151.167969,389.105469 L255.921875,284.292969 L360.828125,389.125 C376.421875,404.707031 401.789062,404.699219 417.375,389.113281 L471.878906,334.609375 L472,451.988281 C472.007812,457.335938 469.929688,462.367188 466.144531,466.148438 C462.367188,469.925781 457.347656,472.007812 452.003906,472.007812 C452,472.007812 451.992188,472.007812 451.984375,472.007812 L334.605469,471.882812 L345.570312,460.921875 C353.378906,453.113281 353.378906,440.449219 345.570312,432.640625 C337.761719,424.832031 325.097656,424.832031 317.289062,432.640625 L303.242188,446.6875 C292.300781,457.628906 289.054688,473.945312 294.972656,488.253906 C300.898438,502.585938 314.742188,511.855469 330.246094,511.871094 L451.941406,512 L452.007812,512 C468.027344,512 483.09375,505.761719 494.425781,494.429688 C505.773438,483.082031 512.011719,467.992188 511.992234,451.945312 L511.867188,330.25 Z"/>
</svg>
