<svg xmlns="http://www.w3.org/2000/svg" width="512" height="512" viewBox="0 0 512 512">
  <path d="M492,352 C503.046875,352 512,343.046875 512,332 L512,80 C512,35.886719 476.113281,0 432,0 L80,0 C35.886719,0 0,35.886719 0,80 L0,432 C0,476.113281 35.886719,512 80,512 L432,512 C476.113281,512 512,476.113281 512,432 C512,420.953125 503.046875,412 492,412 C480.953125,412 472,420.953125 472,432 C472,454.054688 454.054688,472 432,472 L276,472 L276,428.867188 C286.03125,431.117188 295.433594,432.417969 302.175781,432.417969 C333.003906,432.417969 358.085938,406.210938 358.085938,374 C358.085938,341.789062 333.003906,315.582031 302.175781,315.582031 C295.433594,315.582031 286.03125,316.882812 276,319.132812 L276,276 L332.03125,276 C341.566406,276 350.316406,271.625 356.035156,263.996094 C361.753906,256.371094 363.5,246.757812 360.832031,237.613281 C357.007812,224.507812 355.582031,213.613281 355.582031,209.824219 C355.582031,201.050781 363.84375,193.914062 374,193.914062 C384.15625,193.914062 392.417969,201.050781 392.417969,209.824219 C392.417969,213.613281 390.992188,224.507812 387.167969,237.613281 C384.5,246.757812 386.246094,256.371094 391.964844,263.996094 C397.683594,271.625 406.433594,276 415.96875,276 L472,276 L472,332 C472,343.046875 480.953125,352 492,352 Z M80,40 L236,40 L236,83.132812 C225.96875,80.882812 216.566406,79.582031 209.824219,79.582031 C178.996094,79.582031 153.914062,105.789062 153.914062,138 C153.914062,170.210938 178.996094,196.417969 209.824219,196.417969 C216.566406,196.417969 225.96875,195.117188 236,192.867188 L236,236 L179.96875,236 C170.433594,236 161.683594,240.375 155.964844,248.003906 C150.246094,255.628906 148.5,265.242188 151.167969,274.386719 C154.992188,287.492188 156.417969,298.386719 156.417969,302.175781 C156.417969,310.949219 148.15625,318.085938 138,318.085938 C127.84375,318.085938 119.582031,310.949219 119.582031,302.175781 C119.582031,298.386719 121.007812,287.492188 124.832031,274.386719 C127.5,265.242188 125.753906,255.628906 120.035156,248.003906 C114.316406,240.375 105.566406,236 96.03125,236 L40,236 L40,80 C40,57.945312 57.945312,40 80,40 Z M248.003906,356.035156 C255.628906,361.753906 265.246094,363.5 274.386719,360.832031 C287.492188,357.007812 298.386719,355.582031 302.175781,355.582031 C310.949219,355.582031 318.085938,363.84375 318.085938,374 C318.085938,384.15625 310.949219,392.417969 302.175781,392.417969 C298.386719,392.417969 287.492188,390.992188 274.386719,387.167969 C265.242188,384.5 255.628906,386.246094 248.003906,391.964844 C240.375,397.683594 236,406.433594 236,415.96875 L236,472 L80,472 C57.945312,472 40,454.054688 40,432 L40,276 L83.132812,276 C80.882812,286.03125 79.582031,295.433594 79.582031,302.175781 C79.582031,333.003906 105.789062,358.085938 138,358.085938 C170.210938,358.085938 196.417969,333.003906 196.417969,302.175781 C196.417969,295.433594 195.117188,286.03125 192.867188,276 L236,276 L236,332.03125 C236,341.566406 240.375,350.316406 248.003906,356.035156 L248.003906,356.035156 Z M428.867188,236 C431.117188,225.96875 432.417969,216.566406 432.417969,209.824219 C432.417969,178.996094 406.210938,153.914062 374,153.914062 C341.789062,153.914062 315.582031,178.996094 315.582031,209.824219 C315.582031,216.566406 316.882812,225.96875 319.132812,236 L276,236 L276,179.96875 C276,170.433594 271.625,161.683594 263.996094,155.964844 C256.371094,150.246094 246.753906,148.5 237.613281,151.167969 C224.507812,154.992188 213.613281,156.417969 209.824219,156.417969 C201.050781,156.417969 193.914062,148.15625 193.914062,138 C193.914062,127.847656 201.050781,119.582031 209.824219,119.582031 C213.613281,119.582031 224.507812,121.007812 237.613281,124.835938 C246.753906,127.503906 256.371094,125.753906 263.996094,120.039062 C271.625,114.316406 276,105.566406 276,96.035156 L276,40 L432,40 C454.054688,40 472,57.945312 472,80 L472,236 L428.867188,236 Z"/>
</svg>
