<svg xmlns="http://www.w3.org/2000/svg" width="64" height="64" viewBox="0 0 64 64">
  <path fill-rule="evenodd" d="M56,0 C60.418278,-8.11624501e-16 64,3.581722 64,8 L64,56 C64,60.418278 60.418278,64 56,64 L8,64 C3.581722,64 5.41083001e-16,60.418278 0,56 L0,8 C-5.41083001e-16,3.581722 3.581722,8.11624501e-16 8,0 L56,0 Z M52,6 L12,6 C8.6862915,6 6,8.6862915 6,12 L6,12 L6,52 C6,55.3137085 8.6862915,58 12,58 L12,58 L52,58 C55.3137085,58 58,55.3137085 58,52 L58,52 L58,12 C58,8.6862915 55.3137085,6 52,6 L52,6 Z"/>
</svg>
