<svg xmlns="http://www.w3.org/2000/svg" width="512" height="512" viewBox="0 0 512 512">
  <path d="M491.997,232.998 C503.043,232.998 511.997,224.044 511.997,212.998 L511.997,107.305 C511.997,88.549 505.016,71.506 492.34,59.314 C479.977,47.423 462.931,40.875 444.344,40.875 C432.837,40.875 421.836,44.117 412.158,50.178 C401.012,29.256 379.125,14.999 353.997,14.999 C339.43,14.999 325.957,19.799 315.028,27.902 C302.992,11.592 283.704,0.999 261.997,0.999 C238.9,0.999 218.549,12.998 206.752,31.112 C196.259,24.098 183.648,19.999 170.092,19.999 C133.699,19.999 104.092,49.511 104.092,85.787 L104.092,99.333 C84.269,102.382 69.305,112.445 59.502,129.375 C56.714,133.422 43.844,152.342 30.817,175.357 C10.08,211.99 0,239.19 0,258.511 C0,304.97 34.909,345.34 71.868,388.08 C87.632,406.309 124.546,448.998 222.996,448.998 L375.41,448.998 C450.724,448.998 511.996,388.437 511.996,313.998 C511.996,302.952 503.042,293.998 491.996,293.998 C480.95,293.998 471.996,302.952 471.996,313.998 C471.996,366.381 428.667,408.998 375.41,408.998 L222.997,408.998 C142.839,408.998 115.34,377.198 102.125,361.916 C64.598,318.52 40,287.878 40,258.511 C40,237.015 70.906,182.978 92.849,151.476 C93.222,150.941 93.569,150.388 93.888,149.819 C96.19,145.714 99.096,142.436 104.092,140.447 L104.092,237.998 C104.092,249.044 113.046,257.998 124.092,257.998 C135.138,257.998 144.092,249.044 144.092,237.998 L144.092,85.786 C144.092,71.567 155.756,59.998 170.092,59.998 C183.707,59.998 194.904,70.434 195.997,83.663 L195.997,96.998 C195.997,108.044 204.951,116.998 215.997,116.998 C227.043,116.998 235.997,108.044 235.997,96.998 L235.997,95.609 C236.055,94.988 236.092,94.36 236.092,93.724 L236.092,85.786 C236.092,84.612 236.058,83.445 235.997,82.286 L235.997,67.35 C235.997,52.82 247.661,40.998 261.997,40.998 C276.333,40.998 287.997,52.819 287.997,67.35 L287.997,96.998 C287.997,108.044 296.951,116.998 307.997,116.998 C319.043,116.998 327.997,108.044 327.997,96.998 L327.997,81.648 C327.997,66.953 339.661,54.998 353.997,54.998 C368.333,54.998 379.997,66.953 379.997,81.648 L379.997,108.931 C379.997,108.938 379.998,108.945 379.998,108.952 C379.998,108.967 379.997,108.982 379.997,108.997 C379.997,120.043 388.951,128.997 399.997,128.997 C411.043,128.997 419.997,120.043 419.997,108.997 C419.997,95.695 429.996,80.873 444.344,80.873 C461.142,80.873 471.997,91.248 471.997,107.303 L471.997,212.996 C471.997,224.044 480.951,232.998 491.997,232.998 Z" transform="translate(0 32)"/>
</svg>
