<svg xmlns="http://www.w3.org/2000/svg" width="512" height="512" viewBox="0 0 512 512">
  <path d="M256,512 C397.384896,512 512,397.384896 512,256 C512,114.615104 397.384896,7.57912251e-15 256,0 C114.615104,-7.57912251e-15 1.89478063e-14,114.615104 0,256 C1.89478063e-14,397.384896 114.615104,512 256,512 L256,512 Z M256,95.9146667 C274.851319,95.9146667 290.133333,111.196681 290.133333,130.048 C290.133333,148.899319 274.851319,164.181333 256,164.181333 C237.148681,164.181333 221.866667,148.899319 221.866667,130.048 C221.866667,111.196681 237.148681,95.9146667 256,95.9146667 Z M221.866667,256 C221.866667,237.148681 237.148681,221.866667 256,221.866667 C274.851319,221.866667 290.133333,237.148681 290.133333,256 L290.133333,392.533333 C290.133333,411.384653 274.851319,426.666667 256,426.666667 C237.148681,426.666667 221.866667,411.384653 221.866667,392.533333 L221.866667,256 Z"/>
</svg>
