<svg xmlns="http://www.w3.org/2000/svg" width="512" height="512" viewBox="0 0 512 512">
  <path d="M134.042969,488.03125 C129.914062,488.03125 125.746094,487.226562 121.761719,485.578125 C109.757812,480.605469 102,468.996094 102,456.003906 L102,422 C102,409.867188 92.132812,400 80,400 C35.886719,400 0,364.113281 0,320 L0,80 C0,35.886719 35.886719,0 80,0 L432,0 C476.113281,0 512,35.886719 512,80 L512,220 C512,231.046875 503.046875,240 492,240 C480.953125,240 472,231.046875 472,220 L472,80 C472,57.945312 454.054688,40 432,40 L80,40 C57.945312,40 40,57.945312 40,80 L40,320 C40,342.054688 57.945312,360 80,360 C114.1875,360 142,387.8125 142,422 L142,436.714844 L185.550781,393.164062 C206.9375,371.777344 235.371094,360 265.617188,360 L432,360 C454.054688,360 472,342.054688 472,320 C472,308.953125 480.953125,300 492,300 C503.046875,300 512,308.953125 512,320 C512,364.109375 476.113281,400 432,400 L265.617188,400 C246.058594,400 227.667969,407.617188 213.835938,421.445312 L156.644531,478.636719 C150.507812,484.777344 142.355469,488.03125 134.042969,488.03125 Z M276,301 C276,289.953125 267.046875,281 256,281 C244.953125,281 236,289.953125 236,301 C236,312.046875 244.953125,321 256,321 C267.046875,321 276,312.046875 276,301 Z M276,231 L276,217.015625 C276,215.882812 276.648438,214.808594 277.511719,214.519531 C305.996094,205.027344 325.089844,177.414062 323.949219,147.371094 C322.609375,112.082031 293.917969,83.390625 258.628906,82.050781 C239.964844,81.339844 222.277344,88.074219 208.84375,101.007812 C195.402344,113.949219 188,131.347656 188,150 C188,161.046875 196.953125,170 208,170 C219.046875,170 228,161.046875 228,150 C228,142.320312 231.050781,135.152344 236.585938,129.824219 C242.113281,124.5 249.40625,121.726562 257.109375,122.019531 C271.625,122.570312 283.425781,134.375 283.980469,148.890625 C284.449219,161.28125 276.589844,172.664062 264.863281,176.574219 C247.601562,182.328125 236,198.578125 236,217.015625 L236,231 C236,242.046875 244.953125,251 256,251 C267.046875,251 276,242.046875 276,231 Z" transform="translate(0 12)"/>
</svg>
