<svg xmlns="http://www.w3.org/2000/svg" width="512" height="512" viewBox="0 0 512 512">
  <path d="M181.116,511.916 C180.981,511.916 180.846,511.915 180.711,511.915 C148.029,511.7 120.419,483.308 120.419,449.915 L120.419,190.96 C120.419,167.402 133.763,146.57 155.245,136.595 C176.618,126.669 200.999,129.782 219.041,144.69 L346.365,239.507 C355.224,246.105 357.058,258.634 350.461,267.493 C343.864,276.352 331.334,278.187 322.475,271.589 L194.707,176.442 C194.379,176.198 194.06,175.944 193.748,175.681 C184.628,167.98 174.867,171.587 172.093,172.875 C169.355,174.147 160.42,179.209 160.42,190.961 L160.42,449.916 C160.42,462.802 171.253,471.853 180.975,471.916 C185.072,471.944 189.863,471.313 195.491,463.491 L260.394,369.632 C264.125,364.236 270.267,361.013 276.827,361.007 L383.403,360.916 C393.61,360.39 399.932,352.713 402.254,346.244 C403.753,342.07 405.215,334.132 398.164,327.861 C389.91,320.521 389.169,307.88 396.509,299.626 C403.85,291.371 416.491,290.631 424.745,297.971 C442.205,313.497 448.012,337.175 439.9,359.764 C431.26,383.823 409.55,399.97 384.59,400.903 C384.347,400.912 384.104,400.917 383.861,400.917 L287.336,400.999 L228.294,486.383 C228.236,486.467 228.178,486.55 228.118,486.633 C216.297,503.179 200.051,511.916 181.116,511.916 Z M144.251,112.422 C153.87,106.992 157.266,94.793 151.835,85.173 L116.835,23.173 C111.405,13.555 99.207,10.158 89.586,15.589 C79.967,21.019 76.571,33.218 82.002,42.838 L117.002,104.838 C120.678,111.35 127.457,115.009 134.437,115.009 C137.767,115.009 141.144,114.176 144.251,112.422 Z M100.862,157.74 C105.133,147.554 100.339,135.833 90.153,131.562 L28.153,105.562 C17.969,101.291 6.247,106.085 1.975,116.271 C-2.296,126.457 2.498,138.178 12.684,142.449 L74.684,168.449 C77.21,169.509 79.831,170.011 82.41,170.011 C90.227,170.011 97.651,165.4 100.862,157.74 Z M226.503,92.988 L247.503,25.988 C250.807,15.447 244.94,4.225 234.4,0.922 C223.858,-2.383 212.637,3.484 209.334,14.025 L188.334,81.025 C185.03,91.566 190.897,102.788 201.437,106.091 C203.428,106.715 205.443,107.012 207.425,107.012 C215.934,107.011 223.823,101.537 226.503,92.988 Z M281.219,142.154 L333.219,104.154 C342.137,97.637 344.084,85.124 337.567,76.206 C331.05,67.288 318.537,65.342 309.619,71.858 L257.619,109.858 C248.701,116.375 246.754,128.888 253.271,137.806 C257.188,143.166 263.269,146.007 269.435,146.007 C273.529,146.007 277.661,144.754 281.219,142.154 Z M31.017,267.506 L87.017,244.506 C97.234,240.309 102.115,228.625 97.919,218.407 C93.723,208.189 82.039,203.309 71.82,207.505 L15.82,230.505 C5.603,234.702 0.722,246.386 4.918,256.604 C8.093,264.334 15.556,269.01 23.426,269.01 C25.957,269.011 28.53,268.527 31.017,267.506 Z" transform="translate(34)"/>
</svg>
