<svg xmlns="http://www.w3.org/2000/svg" width="512" height="512" viewBox="0 0 512 512">
  <path d="M255,394.948 L80,394.948 C35.888,394.948 0,359.06 0,314.948 L0,196.948 C0,152.836 35.888,116.948 80,116.948 L255,116.948 C266.046,116.948 275,125.902 275,136.948 C275,147.994 266.046,156.948 255,156.948 L80,156.948 C57.944,156.948 40,174.892 40,196.948 L40,314.948 C40,337.004 57.944,354.948 80,354.948 L255,354.948 C266.046,354.948 275,363.902 275,374.948 C275,385.994 266.046,394.948 255,394.948 Z M432,116.948 L414,116.948 C402.954,116.948 394,125.902 394,136.948 C394,147.994 402.954,156.948 414,156.948 L432,156.948 C454.056,156.948 472,174.892 472,196.948 L472,314.948 C472,337.004 454.056,354.948 432,354.948 L414,354.948 C402.954,354.948 394,363.902 394,374.948 C394,385.994 402.954,394.948 414,394.948 L432,394.948 C476.112,394.948 512,359.06 512,314.948 L512,196.948 C512,152.835 476.112,116.948 432,116.948 Z M414,472 C380.916,472 354,445.084 354,412 L354,100 C354,66.916 380.916,40 414,40 C425.046,40 434,31.046 434,20 C434,8.954 425.046,0 414,0 C381.324,0 352.26,15.755 334,40.066 C315.74,15.755 286.676,0 254,0 C242.954,0 234,8.954 234,20 C234,31.046 242.954,40 254,40 C287.084,40 314,66.916 314,100 L314,412 C314,445.084 287.084,472 254,472 C242.954,472 234,480.954 234,492 C234,503.046 242.954,512 254,512 C286.676,512 315.74,496.245 334,471.934 C352.26,496.245 381.324,512 414,512 C425.046,512 434,503.046 434,492 C434,480.954 425.046,472 414,472 Z"/>
</svg>
