<svg xmlns="http://www.w3.org/2000/svg" width="512" height="512" viewBox="0 0 512 512">
  <path d="M492,312 C503.046875,312 512,303.046875 512,292 L512,20 C512,8.953125 503.046875,0 492,0 L410,0 C398.953125,0 390,8.953125 390,20 C390,31.046875 398.953125,40 410,40 L472,40 L472,80 L356,80 L356,20 C356,8.953125 347.046875,0 336,0 L256,0 C244.953125,0 236,8.953125 236,20 C236,31.046875 244.953125,40 256,40 L316,40 L316,80 L202,80 L202,20 C202,8.953125 193.046875,0 182,0 L20,0 C8.953125,0 0,8.953125 0,20 L0,392 C0,436.113281 35.886719,472 80,472 L432,472 C476.113281,472 512,436.113281 512,392 C512,380.953125 503.046875,372 492,372 C480.953125,372 472,380.953125 472,392 C472,414.054688 454.054688,432 432,432 L80,432 C57.945312,432 40,414.054688 40,392 L40,40 L162,40 L162,100 C162,111.046875 170.953125,120 182,120 L472,120 L472,292 C472,303.046875 480.953125,312 492,312 Z" transform="translate(0 20)"/>
</svg>
