<svg xmlns="http://www.w3.org/2000/svg" width="512" height="512" viewBox="0 0 512 512">
  <path d="M512,237.878906 L512,331 C512,342.046875 503.046875,351 492,351 C480.953125,351 472,342.046875 472,331 L472,237.878906 C472,215.820312 454.054688,197.878906 432,197.878906 L420,197.878906 C408.953125,197.878906 400,188.925781 400,177.878906 C400,166.832031 408.953125,157.878906 420,157.878906 L432,157.878906 C476.113281,157.878906 512,193.765625 512,237.878906 Z M492,411.878906 C480.953125,411.878906 472,420.832031 472,431.878906 C472,453.933594 454.054688,471.878906 432,471.878906 L80,471.878906 C57.945312,471.878906 40,453.933594 40,431.878906 L40,237.878906 C40,215.820312 57.945312,197.878906 80,197.878906 L92,197.878906 C103.046875,197.878906 112,188.925781 112,177.878906 C112,166.832031 103.046875,157.878906 92,157.878906 L80,157.878906 C35.886719,157.878906 0,193.765625 0,237.878906 L0,431.878906 C0,475.988281 35.886719,511.878906 80,511.878906 L432,511.878906 C476.113281,511.878906 512,475.988281 512,431.878906 C512,420.832031 503.046875,411.878906 492,411.878906 Z M441,335 C441,323.953125 432.046875,315 421,315 C409.953125,315 401,323.953125 401,335 C401,346.046875 409.953125,355 421,355 C432.046875,355 441,346.046875 441,335 Z M91.121094,294.878906 C80.074219,294.878906 71.121094,303.832031 71.121094,314.878906 L71.121094,354.878906 C71.121094,365.925781 80.074219,374.878906 91.121094,374.878906 C102.167969,374.878906 111.121094,365.925781 111.121094,354.878906 L111.121094,314.878906 C111.121094,303.832031 102.167969,294.878906 91.121094,294.878906 Z M152,224.984375 L152,124.984375 C152,99.453125 171.242188,78.34375 195.984375,75.359375 L195.984375,58.984375 C195.984375,26.460938 222.898438,2.84217094e-14 255.984375,2.84217094e-14 C289.066406,2.84217094e-14 315.984375,26.460938 315.984375,58.984375 L315.984375,75.355469 C340.742188,78.324219 360,99.441406 360,124.984375 L360,224.984375 C360,236.03125 351.046875,244.984375 340,244.984375 L172,244.984375 C160.953125,244.984375 152,236.03125 152,224.984375 Z M235.984375,58.984375 L235.984375,74.984375 L275.984375,74.984375 L275.984375,58.984375 C275.984375,48.515625 267.011719,40 255.984375,40 C244.953125,40 235.984375,48.519531 235.984375,58.984375 L235.984375,58.984375 Z M192,204.984375 L320,204.984375 L320,124.984375 C320,119.472656 315.515625,114.984375 310,114.984375 L202,114.984375 C196.484375,114.984375 192,119.472656 192,124.984375 L192,204.984375 Z"/>
</svg>
