<svg xmlns="http://www.w3.org/2000/svg" width="512" height="512" viewBox="0 0 512 512">
  <path d="M472,336 L472,80 C472,57.945312 454.054688,40 432,40 L80,40 C57.945312,40 40,57.945312 40,80 L40,432 C40,454.054688 57.945312,472 80,472 L432,472 C454.054688,472 472,454.054688 472,432 C472,420.953125 480.953125,412 492,412 C503.046875,412 512,420.953125 512,432 C512,476.113281 476.113281,512 432,512 L80,512 C35.886719,512 0,476.113281 0,432 L0,80 C0,35.886719 35.886719,0 80,0 L432,0 C476.113281,0 512,35.886719 512,80 L512,336 C512,347.046875 503.046875,356 492,356 C480.953125,356 472,347.046875 472,336 Z M176,316 C164.953125,316 156,324.953125 156,336 C156,347.046875 164.953125,356 176,356 C187.046875,356 196,347.046875 196,336 C196,324.953125 187.046875,316 176,316 Z M254,316 C242.953125,316 234,324.953125 234,336 C234,347.046875 242.953125,356 254,356 C265.046875,356 274,347.046875 274,336 C274,324.953125 265.046875,316 254,316 Z M332,316 C320.953125,316 312,324.953125 312,336 C312,347.046875 320.953125,356 332,356 C343.046875,356 352,347.046875 352,336 C352,324.953125 343.046875,316 332,316 Z M98,316 C86.953125,316 78,324.953125 78,336 C78,347.046875 86.953125,356 98,356 C109.046875,356 118,347.046875 118,336 C118,324.953125 109.046875,316 98,316 Z M196,175 C196,163.953125 187.046875,155 176,155 C164.953125,155 156,163.953125 156,175 C156,186.046875 164.953125,195 176,195 C187.046875,195 196,186.046875 196,175 Z M118,175 C118,163.953125 109.046875,155 98,155 C86.953125,155 78,163.953125 78,175 C78,186.046875 86.953125,195 98,195 C109.046875,195 118,186.046875 118,175 Z M274,175 C274,163.953125 265.046875,155 254,155 C242.953125,155 234,163.953125 234,175 C234,186.046875 242.953125,195 254,195 C265.046875,195 274,186.046875 274,175 Z M352,175 C352,163.953125 343.046875,155 332,155 C320.953125,155 312,163.953125 312,175 C312,186.046875 320.953125,195 332,195 C343.046875,195 352,186.046875 352,175 Z M412,316 C400.953125,316 392,324.953125 392,336 C392,347.046875 400.953125,356 412,356 C423.046875,356 432,347.046875 432,336 C432,324.953125 423.046875,316 412,316 Z M432,175 C432,163.953125 423.046875,155 412,155 C400.953125,155 392,163.953125 392,175 C392,186.046875 400.953125,195 412,195 C423.046875,195 432,186.046875 432,175 Z"/>
  <path d="M472,336 L472,80 C472,57.945312 454.054688,40 432,40 L80,40 C57.945312,40 40,57.945312 40,80 L40,432 C40,454.054688 57.945312,472 80,472 L432,472 C454.054688,472 472,454.054688 472,432 C472,420.953125 480.953125,412 492,412 C503.046875,412 512,420.953125 512,432 C512,476.113281 476.113281,512 432,512 L80,512 C35.886719,512 0,476.113281 0,432 L0,80 C0,35.886719 35.886719,0 80,0 L432,0 C476.113281,0 512,35.886719 512,80 L512,336 C512,347.046875 503.046875,356 492,356 C480.953125,356 472,347.046875 472,336 Z M176,316 C164.953125,316 156,324.953125 156,336 C156,347.046875 164.953125,356 176,356 C187.046875,356 196,347.046875 196,336 C196,324.953125 187.046875,316 176,316 Z M254,316 C242.953125,316 234,324.953125 234,336 C234,347.046875 242.953125,356 254,356 C265.046875,356 274,347.046875 274,336 C274,324.953125 265.046875,316 254,316 Z M332,316 C320.953125,316 312,324.953125 312,336 C312,347.046875 320.953125,356 332,356 C343.046875,356 352,347.046875 352,336 C352,324.953125 343.046875,316 332,316 Z M98,316 C86.953125,316 78,324.953125 78,336 C78,347.046875 86.953125,356 98,356 C109.046875,356 118,347.046875 118,336 C118,324.953125 109.046875,316 98,316 Z M196,175 C196,163.953125 187.046875,155 176,155 C164.953125,155 156,163.953125 156,175 C156,186.046875 164.953125,195 176,195 C187.046875,195 196,186.046875 196,175 Z M118,175 C118,163.953125 109.046875,155 98,155 C86.953125,155 78,163.953125 78,175 C78,186.046875 86.953125,195 98,195 C109.046875,195 118,186.046875 118,175 Z M274,175 C274,163.953125 265.046875,155 254,155 C242.953125,155 234,163.953125 234,175 C234,186.046875 242.953125,195 254,195 C265.046875,195 274,186.046875 274,175 Z M352,175 C352,163.953125 343.046875,155 332,155 C320.953125,155 312,163.953125 312,175 C312,186.046875 320.953125,195 332,195 C343.046875,195 352,186.046875 352,175 Z M412,316 C400.953125,316 392,324.953125 392,336 C392,347.046875 400.953125,356 412,356 C423.046875,356 432,347.046875 432,336 C432,324.953125 423.046875,316 412,316 Z M432,175 C432,163.953125 423.046875,155 412,155 C400.953125,155 392,163.953125 392,175 C392,186.046875 400.953125,195 412,195 C423.046875,195 432,186.046875 432,175 Z"/>
</svg>
