<svg xmlns="http://www.w3.org/2000/svg" width="512" height="512" viewBox="0 0 512 512">
  <g fill="none" fill-rule="evenodd">
    <path fill="currentColor" fill-rule="nonzero" d="M252,40 L20,40 C8.953125,40 0,31.046875 0,20 C0,8.953125 8.953125,0 20,0 L252,0 C263.046875,0 272,8.953125 272,20 C272,31.046875 263.046875,40 252,40 Z M272,260 C272,248.953125 263.046875,240 252,240 L20,240 C8.953125,240 0,248.953125 0,260 C0,271.046875 8.953125,280 20,280 L252,280 C263.046875,280 272,271.046875 272,260 Z" transform="translate(240 116)"/>
    <path fill="currentColor" fill-rule="nonzero" d="M168.75,200 L31.25,200 C14.0182496,200 0,185.98175 0,168.75 L0,31.25 C0,14.0182496 14.0182496,0 31.25,0 L168.75,0 C185.98175,0 200,14.0182496 200,31.25 L200,129.6875 C200,134.002686 196.502686,137.5 192.1875,137.5 C187.872314,137.5 184.375,134.002686 184.375,129.6875 L184.375,31.25 C184.375,22.6348875 177.365113,15.625 168.75,15.625 L31.25,15.625 C22.6348875,15.625 15.625,22.6348875 15.625,31.25 L15.625,168.75 C15.625,177.365113 22.6348875,184.375 31.25,184.375 L168.75,184.375 C177.365113,184.375 184.375,177.365113 184.375,168.75 C184.375,164.434814 187.872314,160.9375 192.1875,160.9375 C196.502686,160.9375 200,164.434814 200,168.75 C200,185.98175 185.98175,200 168.75,200 Z M85.1959227,155.839539 C91.5847777,155.583191 97.4502563,152.819824 101.715088,148.05603 C101.786804,147.976684 101.856995,147.894287 101.925659,147.81189 L164.233398,72.1542359 C166.976929,68.8232422 166.500855,63.900757 163.169861,61.1572266 C159.838867,58.4136961 154.914856,58.8912965 152.172852,62.2207641 L89.9841309,137.733459 C88.5711672,139.259338 86.6531371,140.144348 84.5687867,140.228271 C82.4432375,140.313721 80.4168703,139.552307 78.8726805,138.084412 C78.8116453,138.027954 78.7506102,137.969971 78.6880492,137.915039 L49.3408203,111.747742 C46.1196898,108.876037 41.1819457,109.158325 38.3102418,112.379455 C35.4385375,115.59906 35.720825,120.53833 38.9419555,123.410034 L68.2052613,149.502563 C72.5906371,153.623963 78.2409668,155.860901 84.2269898,155.860901 C84.5474242,155.859375 84.8724367,155.853271 85.1959227,155.839539 L85.1959227,155.839539 Z" transform="translate(0 36)"/>
    <path fill="currentColor" fill-rule="nonzero" d="M168.75,200 L31.25,200 C14.0182496,200 0,185.98175 0,168.75 L0,31.25 C0,14.0182496 14.0182496,0 31.25,0 L168.75,0 C185.98175,0 200,14.0182496 200,31.25 L200,129.6875 C200,134.002686 196.502686,137.5 192.1875,137.5 C187.872314,137.5 184.375,134.002686 184.375,129.6875 L184.375,31.25 C184.375,22.6348875 177.365113,15.625 168.75,15.625 L31.25,15.625 C22.6348875,15.625 15.625,22.6348875 15.625,31.25 L15.625,168.75 C15.625,177.365113 22.6348875,184.375 31.25,184.375 L168.75,184.375 C177.365113,184.375 184.375,177.365113 184.375,168.75 C184.375,164.434814 187.872314,160.9375 192.1875,160.9375 C196.502686,160.9375 200,164.434814 200,168.75 C200,185.98175 185.98175,200 168.75,200 Z" transform="translate(0 276)"/>
  </g>
</svg>
