<svg xmlns="http://www.w3.org/2000/svg" width="512" height="512" viewBox="0 0 512 512">
  <path d="M432,512 L80,512 C35.886719,512 0,476.113281 0,432 L0,80 C0,35.886719 35.886719,0 80,0 L432,0 C476.113281,0 512,35.886719 512,80 L512,332 C512,343.046875 503.046875,352 492,352 C480.953125,352 472,343.046875 472,332 L472,80 C472,57.945312 454.054688,40 432,40 L80,40 C57.945312,40 40,57.945312 40,80 L40,432 C40,454.054688 57.945312,472 80,472 L432,472 C454.054688,472 472,454.054688 472,432 C472,420.953125 480.953125,412 492,412 C503.046875,412 512,420.953125 512,432 C512,476.113281 476.113281,512 432,512 Z M218.101562,398.949219 C234.457031,398.292969 249.472656,391.21875 260.390625,379.023438 C260.574219,378.820312 260.753906,378.609375 260.929688,378.398438 L420.4375,184.714844 C427.460938,176.1875 426.242188,163.585938 417.714844,156.5625 C409.1875,149.539062 396.582031,150.761719 389.5625,159.285156 L230.359375,352.597656 C226.742188,356.503906 221.832031,358.769531 216.496094,358.984375 C211.054688,359.203125 205.867188,357.253906 201.914062,353.496094 C201.757812,353.351562 201.601562,353.203125 201.441406,353.0625 L126.3125,286.074219 C118.066406,278.722656 105.425781,279.445312 98.074219,287.691406 C90.722656,295.933594 91.445312,308.578125 99.691406,315.929688 L174.605469,382.726562 C185.832031,393.277344 200.296875,399.003906 215.621094,399.003906 C216.441406,399 217.273438,398.984375 218.101562,398.949219 L218.101562,398.949219 Z"/>
</svg>
