<svg xmlns="http://www.w3.org/2000/svg" width="512" height="512" viewBox="0 0 512 512">
  <path d="M492,120 L260,120 C248.953125,120 240,111.046875 240,100 C240,88.953125 248.953125,80 260,80 L492,80 C503.046875,80 512,88.953125 512,100 C512,111.046875 503.046875,120 492,120 Z M100,80 C88.972656,80 80,88.972656 80,100 C80,111.027344 88.972656,120 100,120 C111.027344,120 120,111.027344 120,100 C120,88.972656 111.027344,80 100,80 Z M117.488281,438.46875 C128.363281,436.539062 135.621094,426.160156 133.691406,415.285156 C131.765625,404.40625 121.386719,397.152344 110.511719,399.078125 C107.066406,399.691406 103.53125,400 100,400 C66.914062,400 40,373.085938 40,340 C40,306.914062 66.914062,280 100,280 C133.085938,280 160,306.914062 160,340 C160,344.304688 159.542969,348.59375 158.636719,352.753906 C156.292969,363.550781 163.144531,374.199219 173.9375,376.542969 C184.730469,378.894531 195.382812,372.039062 197.726562,361.246094 C199.234375,354.300781 200,347.152344 200,340 C200,284.859375 155.140625,240 100,240 C44.859375,240 0,284.859375 0,340 C0,395.140625 44.859375,440 100,440 C105.863281,440 111.746094,439.484375 117.488281,438.46875 Z M117.488281,198.46875 C128.363281,196.539062 135.621094,186.160156 133.691406,175.285156 C131.765625,164.40625 121.386719,157.152344 110.511719,159.078125 C107.066406,159.691406 103.53125,160 100,160 C66.914062,160 40,133.085938 40,100 C40,66.914062 66.914062,40 100,40 C133.085938,40 160,66.914062 160,100 C160,104.304688 159.542969,108.59375 158.636719,112.753906 C156.292969,123.550781 163.144531,134.199219 173.9375,136.542969 C184.730469,138.894531 195.382812,132.039062 197.726562,121.246094 C199.234375,114.300781 200,107.152344 200,100 C200,44.859375 155.140625,0 100,0 C44.859375,0 0,44.859375 0,100 C0,155.140625 44.859375,200 100,200 C105.863281,200 111.746094,199.484375 117.488281,198.46875 Z M512,340 C512,328.953125 503.046875,320 492,320 L260,320 C248.953125,320 240,328.953125 240,340 C240,351.046875 248.953125,360 260,360 L492,360 C503.046875,360 512,351.046875 512,340 Z" transform="translate(0 36)"/>
</svg>
