<svg xmlns="http://www.w3.org/2000/svg" width="512" height="512" viewBox="0 0 512 512">
  <path d="M426.253906,86.972656 C434.003906,94.84375 433.902344,107.507812 426.027344,115.253906 L400.429688,140.445312 C400.351562,140.527344 400.269531,140.601562 400.1875,140.679688 C391.503906,148.949219 380.324219,153.085938 369.144531,153.085938 C358.050781,153.085938 346.949219,149.011719 338.28125,140.851562 C338.199219,140.773438 338.117188,140.699219 338.039062,140.621094 L312.050781,115.335938 C304.132812,107.632812 303.960938,94.96875 311.664062,87.054688 C319.367188,79.136719 332.027344,78.964844 339.945312,86.664062 L365.765625,111.785156 C367.570312,113.410156 370.742188,113.402344 372.539062,111.773438 L397.96875,86.746094 C405.84375,78.996094 418.507812,79.097656 426.253906,86.972656 L426.253906,86.972656 Z M512,80 L512,153 C512,197.113281 476.113281,233 432,233 L352,233 L352,331 C352,342.046875 343.046875,351 332,351 C320.953125,351 312,342.046875 312,331 L312,233 L40,233 L40,432 C40,454.054688 57.945312,472 80,472 L272,472 C294.054688,472 312,454.054688 312,432 C312,420.953125 320.953125,412 332,412 C343.046875,412 352,420.953125 352,432 C352,476.113281 316.113281,512 272,512 L80,512 C35.886719,512 0,476.113281 0,432 L0,80 C0,35.886719 35.886719,0 80,0 L432,0 C476.113281,0 512,35.886719 512,80 Z M472,80 C472,57.945312 454.054688,40 432,40 L80,40 C57.945312,40 40,57.945312 40,80 L40,193 L432,193 C454.054688,193 472,175.054688 472,153 L472,80 Z M252,289 L100,289 C88.953125,289 80,297.953125 80,309 C80,320.046875 88.953125,329 100,329 L252,329 C263.046875,329 272,320.046875 272,309 C272,297.953125 263.046875,289 252,289 Z M252,379 L100,379 C88.953125,379 80,387.953125 80,399 C80,410.046875 88.953125,419 100,419 L252,419 C263.046875,419 272,410.046875 272,399 C272,387.953125 263.046875,379 252,379 Z"/>
</svg>
