<svg xmlns="http://www.w3.org/2000/svg" width="512" height="512" viewBox="0 0 512 512">
  <path d="M432,512 L80,512 C35.886719,512 0,476.113281 0,432 L0,80 C0,35.886719 35.886719,0 80,0 L432,0 C476.113281,0 512,35.886719 512,80 L512,336 C512,347.046875 503.046875,356 492,356 C480.953125,356 472,347.046875 472,336 L472,80 C472,57.945312 454.054688,40 432,40 L80,40 C57.945312,40 40,57.945312 40,80 L40,432 C40,454.054688 57.945312,472 80,472 L432,472 C454.054688,472 472,454.054688 472,432 C472,420.953125 480.953125,412 492,412 C503.046875,412 512,420.953125 512,432 C512,476.113281 476.113281,512 432,512 Z M194,176 C194,164.953125 185.046875,156 174,156 C162.953125,156 154,164.953125 154,176 C154,187.046875 162.953125,196 174,196 C185.046875,196 194,187.046875 194,176 Z M194,254 C194,242.953125 185.046875,234 174,234 C162.953125,234 154,242.953125 154,254 C154,265.046875 162.953125,274 174,274 C185.046875,274 194,265.046875 194,254 Z M194,333 C194,321.953125 185.046875,313 174,313 C162.953125,313 154,321.953125 154,333 C154,344.046875 162.953125,353 174,353 C185.046875,353 194,344.046875 194,333 Z M174,78 C162.953125,78 154,86.953125 154,98 C154,109.046875 162.953125,118 174,118 C185.046875,118 194,109.046875 194,98 C194,86.953125 185.046875,78 174,78 Z M355,176 C355,164.953125 346.046875,156 335,156 C323.953125,156 315,164.953125 315,176 C315,187.046875 323.953125,196 335,196 C346.046875,196 355,187.046875 355,176 Z M355,98 C355,86.953125 346.046875,78 335,78 C323.953125,78 315,86.953125 315,98 C315,109.046875 323.953125,118 335,118 C346.046875,118 355,109.046875 355,98 Z M355,254 C355,242.953125 346.046875,234 335,234 C323.953125,234 315,242.953125 315,254 C315,265.046875 323.953125,274 335,274 C346.046875,274 355,265.046875 355,254 Z M355,332 C355,320.953125 346.046875,312 335,312 C323.953125,312 315,320.953125 315,332 C315,343.046875 323.953125,352 335,352 C346.046875,352 355,343.046875 355,332 Z M194,412 C194,400.953125 185.046875,392 174,392 C162.953125,392 154,400.953125 154,412 C154,423.046875 162.953125,432 174,432 C185.046875,432 194,423.046875 194,412 Z M355,412 C355,400.953125 346.046875,392 335,392 C323.953125,392 315,400.953125 315,412 C315,423.046875 323.953125,432 335,432 C346.046875,432 355,423.046875 355,412 Z"/>
</svg>
