<svg xmlns="http://www.w3.org/2000/svg" width="512" height="512" viewBox="0 0 512 512">
  <path d="M93.0273158 256.000073C139.846664 256.058293 179.393931 221.268518 185.304444 174.823705 191.214957 128.378892 161.641698 84.7929185 116.300043 73.1229091L116.300043 23.2727273C116.300043 10.4195549 105.880488 0 93.0273158 0 80.1741434 0 69.7545885 10.4195549 69.7545885 23.2727273L69.7545885 73.1229091C24.4129336 84.7929185-5.16032587 128.378892.750187317 174.823705 6.66070051 221.268518 46.2079673 256.058293 93.0273158 256.000073L93.0273158 256.000073zM93.0273158 116.363636C118.73366 116.363636 139.57277 137.202746 139.57277 162.909091 139.57277 188.615436 118.73366 209.454545 93.0273158 209.454545 67.320971 209.454545 46.4818612 188.615436 46.4818612 162.909091 46.4818612 137.202746 67.320971 116.363636 93.0273158 116.363636zM93.0273158 302.545455C80.1741434 302.545455 69.7545885 312.965009 69.7545885 325.818182L69.7545885 488.727273C69.7545885 501.580445 80.1741434 512 93.0273158 512 105.880488 512 116.300043 501.580445 116.300043 488.727273L116.300043 325.818182C116.300043 312.965009 105.880488 302.545455 93.0273158 302.545455z" transform="rotate(90 174.527 337.5)"/>
</svg>
