<svg xmlns="http://www.w3.org/2000/svg" width="512" height="512" viewBox="0 0 512 512">
  <path d="M512,180 C512,191.046 503.046,200 492,200 L260,200 C248.954,200 240,191.046 240,180 C240,168.954 248.954,160 260,160 L492,160 C503.046,160 512,168.954 512,180 Z M260,40 L492,40 C503.046,40 512,31.046 512,20 C512,8.954 503.046,0 492,0 L260,0 C248.954,0 240,8.954 240,20 C240,31.046 248.954,40 260,40 Z M260,120 L422,120 C433.046,120 442,111.046 442,100 C442,88.954 433.046,80 422,80 L260,80 C248.954,80 240,88.954 240,100 C240,111.046 248.954,120 260,120 Z M422,240 L260,240 C248.954,240 240,248.954 240,260 C240,271.046 248.954,280 260,280 L422,280 C433.046,280 442,271.046 442,260 C442,248.954 433.046,240 422,240 Z M180,40 C191.046,40 200,31.046 200,20 C200,8.954 191.046,0 180,0 C147.324,0 118.259,15.755 100,40.066 C81.741,15.755 52.676,0 20,0 C8.954,0 0,8.954 0,20 C0,31.046 8.954,40 20,40 C53.084,40 80,66.916 80,100 L80,294 L40,294 C28.954,294 20,302.954 20,314 C20,325.046 28.954,334 40,334 L80,334 L80,412 C80,445.084 53.084,472 20,472 C8.954,472 0,480.954 0,492 C0,503.046 8.954,512 20,512 C52.676,512 81.741,496.245 100,471.934 C118.259,496.245 147.324,512 180,512 C191.046,512 200,503.046 200,492 C200,480.954 191.046,472 180,472 C146.916,472 120,445.084 120,412 L120,334 L160,334 C171.046,334 180,325.046 180,314 C180,302.954 171.046,294 160,294 L120,294 L120,100 C120,66.916 146.916,40 180,40 Z"/>
</svg>
