<svg xmlns="http://www.w3.org/2000/svg" width="512" height="512" viewBox="0 0 512 512">
  <path d="M380,0 L132,0 C59.215,0 0,59.215 0,132 C0,204.785 59.215,264 132,264 C204.785,264 264,204.785 264,132 C264,96.26 249.722,63.792 226.571,40 L380,40 C430.729,40 472,81.271 472,132 C472,182.729 430.729,224 380,224 L307,224 C295.954,224 287,232.954 287,244 C287,255.046 295.954,264 307,264 L380,264 C452.785,264 512,204.785 512,132 C512,59.215 452.785,0 380,0 Z M132,224 C81.271,224 40,182.729 40,132 C40,81.271 81.271,40 132,40 C182.729,40 224,81.271 224,132 C224,182.729 182.729,224 132,224 Z" transform="translate(0 124)"/>
</svg>
