<svg xmlns="http://www.w3.org/2000/svg" width="512" height="512" viewBox="0 0 512 512">
  <path d="M306,432 L306,492 C306,503.046875 297.046875,512 286,512 L246,512 C212.914062,512 186,485.085938 186,452 L186,441.925781 C186,439.277344 184.332031,436.875 181.746094,435.808594 L181.484375,435.699219 C181.449219,435.6875 181.414062,435.671875 181.382812,435.65625 C178.785156,434.578125 175.898438,435.09375 174.027344,436.96875 L166.902344,444.09375 C143.511719,467.484375 105.445312,467.484375 82.050781,444.09375 L67.90625,429.949219 C56.574219,418.617188 50.335938,403.550781 50.335938,387.523438 C50.335938,371.496094 56.574219,356.429688 67.910156,345.097656 L75.03125,337.972656 C76.902344,336.101562 77.417969,333.214844 76.34375,330.621094 L76.179688,330.230469 C75.125,327.667969 72.722656,326 70.074219,326 L60,326 C26.914062,326 0,299.085938 0,266 L0,246 C0,212.914062 26.914062,186 60,186 L70.074219,186 C72.722656,186 75.125,184.332031 76.191406,181.75 L76.34375,181.386719 C77.421875,178.785156 76.90625,175.902344 75.03125,174.027344 L67.910156,166.90625 C56.578125,155.574219 50.335938,140.507812 50.335938,124.480469 C50.335938,108.453125 56.578125,93.382812 67.910156,82.050781 L82.050781,67.910156 C93.382812,56.578125 108.449219,50.335938 124.476562,50.335938 C140.503906,50.335938 155.570312,56.578125 166.90625,67.910156 L174.027344,75.03125 C175.902344,76.90625 178.789062,77.417969 181.382812,76.34375 C181.414062,76.328125 181.449219,76.316406 181.484375,76.300781 L181.816406,76.164062 C184.332031,75.125 186.003906,72.722656 186.003906,70.074219 L186.003906,60 C186.003906,26.914062 212.917969,-1.13686838e-13 246.003906,-1.13686838e-13 L286.003906,-1.13686838e-13 C297.046875,-1.13686838e-13 306.003906,8.953125 306.003906,20 L306.003906,80 C306.003906,91.046875 297.046875,100 286.003906,100 C274.957031,100 266.003906,91.046875 266.003906,80 L266.003906,40 L246.003906,40 C234.972656,40 226.003906,48.972656 226.003906,60 L226.003906,70.074219 C226.003906,88.976562 214.625,105.890625 197.019531,113.160156 L196.695312,113.296875 C179.101562,120.59375 159.105469,116.675781 145.746094,103.316406 L138.621094,96.195312 C134.84375,92.414062 129.820312,90.335938 124.480469,90.335938 C119.136719,90.335938 114.117188,92.414062 110.339844,96.195312 L96.195312,110.335938 C92.417969,114.113281 90.339844,119.136719 90.339844,124.480469 C90.339844,129.820312 92.417969,134.84375 96.195312,138.621094 L103.316406,145.742188 C116.683594,159.109375 120.597656,179.121094 113.285156,196.726562 L113.175781,196.996094 C105.890625,214.621094 88.980469,226 70.074219,226 L60,226 C48.972656,226 40,234.972656 40,246 L40,266 C40,277.027344 48.972656,286 60,286 L70.074219,286 C88.976562,286 105.890625,297.378906 113.160156,314.984375 L113.308594,315.335938 C120.59375,332.878906 116.683594,352.890625 103.316406,366.257812 L96.191406,373.378906 C92.414062,377.15625 90.335938,382.179688 90.335938,387.523438 C90.335938,392.863281 92.414062,397.886719 96.191406,401.664062 L110.335938,415.808594 C118.132812,423.605469 130.820312,423.605469 138.621094,415.808594 L145.742188,408.683594 C159.101562,395.328125 179.097656,391.410156 196.695312,398.707031 L196.953125,398.8125 C214.625,406.109375 226,423.023438 226,441.925781 L226,452 C226,463.027344 234.972656,472 246,472 L266,472 L266,432 C266,420.953125 274.953125,412 286,412 C297.046875,412 306,420.953125 306,432 Z M477,221 C465.109375,221 454.609375,226.9375 448.285156,236 L292.714844,236 C286.390625,226.9375 275.890625,221 264,221 C244.671875,221 229,236.671875 229,256 C229,275.328125 244.671875,291 264,291 C275.890625,291 286.390625,285.0625 292.714844,276 L448.285156,276 C454.609375,285.0625 465.109375,291 477,291 C496.328125,291 512,275.328125 512,256 C512,236.671875 496.328125,221 477,221 Z M477,385 C474.503906,385 472.070312,385.265625 469.722656,385.761719 L421.042969,337.757812 C417.300781,334.070312 412.257812,332 407,332 L256,332 C214.09375,332 180,297.90625 180,256 C180,214.09375 214.09375,180 256,180 L407,180 C412.304688,180 417.390625,177.894531 421.140625,174.144531 L469.988281,125.296875 C472.253906,125.757812 474.597656,126 477,126 C496.328125,126 512,110.332031 512,91 C512,71.671875 496.328125,56 477,56 C457.671875,56 442,71.671875 442,91 C442,92.808594 442.136719,94.582031 442.402344,96.316406 L398.714844,140 L256,140 C192.039062,140 140,192.035156 140,256 C140,319.964844 192.039062,372 256,372 L398.796875,372 L442.367188,414.964844 C442.128906,416.609375 442,418.289062 442,420 C442,439.328125 457.671875,455 477,455 C496.328125,455 512,439.328125 512,420 C512,400.671875 496.328125,385 477,385 Z"/>
</svg>
