<svg xmlns="http://www.w3.org/2000/svg" width="512" height="512" viewBox="0 0 512 512">
  <path d="M253.550781,512 C253.457031,512 253.363281,512 253.265625,512 C237.128906,511.925781 222.019531,505.542969 210.71875,494.027344 L17.203125,297.371094 C6.125,286.085938 0.0195312,271.183594 6.77626358e-21,255.394531 C-0.0195312,239.601562 6.042969,224.683594 17.074219,213.386719 L209.496094,18.023438 C220.789062,6.460938 235.988281,0.0351562 252.242188,-2.84217094e-14 C268.496094,-0.0117188 283.722656,6.320312 295.125,17.898438 L304.429688,27.34375 C315.679688,38.765625 321.808594,53.882812 321.6875,69.914062 C321.566406,85.945312 315.207031,100.96875 303.785156,112.21875 L157.632812,255.496094 L199.738281,296.742188 C207.632812,304.472656 207.761719,317.136719 200.03125,325.03125 C192.300781,332.921875 179.632812,333.050781 171.742188,325.320312 L115.054688,269.792969 C111.214844,266.03125 109.050781,260.878906 109.046875,255.503906 C109.046875,250.128906 111.210938,244.980469 115.046875,241.214844 L275.746094,83.679688 C279.523438,79.964844 281.640625,74.957031 281.683594,69.613281 C281.722656,64.265625 279.679688,59.226562 275.929688,55.421875 L266.625,45.976562 C262.824219,42.117188 257.757812,39.992188 252.332031,40.011719 C246.914062,40.023438 241.847656,42.164062 238.0625,46.039062 L45.640625,241.402344 C38.160156,249.066406 38.175781,261.621094 45.738281,269.328125 L239.253906,465.984375 C243.039062,469.839844 248.074219,471.96875 253.453125,471.992188 C258.8125,472.023438 263.890625,469.9375 267.695312,466.132812 L276.847656,456.980469 C280.652344,453.175781 282.734375,448.113281 282.707031,442.730469 C282.675781,437.34375 280.542969,432.304688 276.695312,428.539062 L240.753906,393.316406 C232.863281,385.585938 232.738281,372.917969 240.472656,365.027344 C248.203125,357.136719 260.871094,357.011719 268.761719,364.742188 L304.691406,399.957031 C316.222656,411.246094 322.628906,426.363281 322.714844,442.515625 C322.800781,458.664062 316.558594,473.847656 305.136719,485.269531 L295.988281,494.421875 C284.640625,505.761719 269.582031,512 253.550781,512 Z" transform="translate(87)"/>
</svg>
