<svg xmlns="http://www.w3.org/2000/svg" width="512" height="512" viewBox="0 0 512 512">
  <path d="M283.446394,381.256359 L190.62768,381.256359 C179.603212,381.256359 170.666667,390.192904 170.666667,401.217372 L170.666667,491.041934 C170.666667,502.066402 179.603212,511.002947 190.62768,511.002947 L283.446394,511.002947 C294.470862,511.002947 303.407407,502.066402 303.407407,491.041934 L303.407407,401.217372 C303.407407,390.192904 294.470862,381.256359 283.446394,381.256359 Z M263.48538,471.08092 L210.588694,471.08092 L210.588694,421.178386 L263.48538,421.178386 L263.48538,471.08092 Z M456.109162,381.256359 L363.290448,381.256359 C352.265981,381.256359 343.329435,390.192904 343.329435,401.217372 L343.329435,491.041934 C343.329435,502.066402 352.265981,511.002947 363.290448,511.002947 L456.109162,511.002947 C467.13363,511.002947 476.070175,502.066402 476.070175,491.041934 L476.070175,401.217372 C476.070175,390.192904 467.13363,381.256359 456.109162,381.256359 Z M436.148148,471.08092 L383.251462,471.08092 L383.251462,421.178386 L436.148148,421.178386 L436.148148,471.08092 Z M110.783626,381.256359 L19.9610136,381.256359 C8.93654581,381.256359 0,390.192904 0,401.217372 L0,491.041934 C0,502.066402 8.93654581,511.002947 19.9610136,511.002947 L110.783626,511.002947 C121.808094,511.002947 130.744639,502.066402 130.744639,491.041934 L130.744639,401.217372 C130.744639,390.192904 121.808094,381.256359 110.783626,381.256359 Z M90.8226121,471.08092 L39.9220273,471.08092 L39.9220273,421.178386 L90.8226121,421.178386 L90.8226121,471.08092 Z M64.8732943,346.324585 C75.8977622,346.324585 84.834308,337.388039 84.834308,326.363571 L84.834308,300.414253 C84.834308,278.401248 102.743329,260.492226 124.756335,260.492226 L215.578947,260.492226 L215.578947,325.36552 C215.578947,336.389988 224.515493,345.326534 235.539961,345.326534 C246.564429,345.326534 255.500975,336.389988 255.500975,325.36552 L255.500975,129.747587 L287.438596,129.747587 C298.463064,129.747587 307.39961,120.811041 307.39961,109.786573 L307.39961,19.9620117 C307.39961,8.93754386 298.463064,0.000998050682 287.438596,0.000998050682 L183.641326,0.000998050682 C172.616858,0.000998050682 163.680312,8.93754386 163.680312,19.9620117 L163.680312,109.786573 C163.680312,120.811041 172.616858,129.747587 183.641326,129.747587 L215.578947,129.747587 L215.578947,220.570199 L124.756335,220.570199 C80.7303236,220.570199 44.9122807,256.388242 44.9122807,300.414253 L44.9122807,326.363571 C44.9122807,337.388039 53.8488265,346.324585 64.8732943,346.324585 Z M203.602339,39.9230253 L267.477583,39.9230253 L267.477583,89.8255595 L203.602339,89.8255595 L203.602339,39.9230253 Z M508.875103,270.553575 L500.806862,286.605224 C496.467337,295.235368 486.569669,299.519002 477.308756,296.781349 L453.288671,289.513544 C448.18963,293.494768 442.597552,296.868179 436.61324,299.528982 L432.407454,324.52616 C430.857481,334.210246 422.503797,341.333333 412.696951,341.333333 L393.728998,341.333333 C383.922152,341.333333 375.568468,334.209248 374.018495,324.52616 L369.81271,299.528982 C363.829396,296.868179 358.237318,293.494768 353.137279,289.513544 L329.118191,296.781349 C319.857279,299.52 309.95961,295.236366 305.620086,286.605224 L297.551844,270.553575 C293.146448,261.791688 295.760343,251.128515 303.715805,245.394713 L322.566986,231.866136 C322.451212,230.109567 322.419275,223.611259 322.498121,222.152109 L303.270674,207.467789 C295.005817,201.156117 292.971789,189.556772 298.594807,180.809856 L309.48853,163.864951 C314.632483,155.862581 324.708803,152.604943 333.566503,156.076164 L353.010526,163.702269 C358.274246,159.575329 364.063938,156.093131 370.270815,153.379431 L374.083368,132.198799 C375.795025,122.691368 384.067867,115.773879 393.728998,115.773879 L412.696951,115.773879 C422.357084,115.773879 430.630924,122.691368 432.342581,132.198799 L436.155135,153.379431 C442.362012,156.093131 448.151704,159.575329 453.415423,163.702269 L472.859446,156.076164 C481.717146,152.603945 491.794464,155.862581 496.937419,163.864951 L507.831142,180.809856 C513.455158,189.556772 511.420133,201.156117 503.155275,207.467789 L483.927828,222.152109 C484.007673,223.611259 483.974737,230.109567 483.858963,231.866136 L502.710144,245.394713 C510.667602,251.128515 513.280499,261.792686 508.875103,270.553575 Z M443.134503,228.554604 C443.134503,206.506667 425.261411,188.632577 403.213474,188.632577 C381.165536,188.632577 363.292444,206.506667 363.292444,228.554604 C363.292444,250.602542 381.165536,268.475634 403.213474,268.476632 C425.261411,268.475634 443.134503,250.602542 443.134503,228.554604 Z"/>
</svg>
