<svg xmlns="http://www.w3.org/2000/svg" width="512" height="512" viewBox="0 0 512 512">
  <path d="M346,275.980469 L166,275.980469 C154.953125,275.980469 146,267.027344 146,255.980469 C146,244.9375 154.953125,235.980469 166,235.980469 L346,235.980469 C357.046875,235.980469 366,244.9375 366,255.980469 C366,267.027344 357.046875,275.980469 346,275.980469 Z M366,176 C366,164.953125 357.046875,156 346,156 L166,156 C154.953125,156 146,164.953125 146,176 C146,187.046875 154.953125,196 166,196 L346,196 C357.046875,196 366,187.046875 366,176 Z M366,336 C366,324.953125 357.046875,316 346,316 L166,316 C154.953125,316 146,324.953125 146,336 C146,347.046875 154.953125,356 166,356 L346,356 C357.046875,356 366,347.046875 366,336 Z M388.460938,475.105469 C397.910156,469.382812 400.929688,457.085938 395.207031,447.636719 C389.480469,438.1875 377.183594,435.167969 367.738281,440.894531 C334.144531,461.242188 295.503906,472 256,472 C136.898438,472 40,375.101562 40,256 C40,136.898438 136.898438,40 256,40 C375.101562,40 472,136.898438 472,256 C472,298.589844 459.335938,340.042969 435.375,375.882812 C429.234375,385.066406 431.703125,397.488281 440.882812,403.625 C450.070312,409.765625 462.488281,407.296875 468.625,398.117188 C497.003906,355.675781 512,306.53125 512,256 C512,187.621094 485.371094,123.332031 437.019531,74.980469 C388.667969,26.628906 324.378906,0 256,0 C187.621094,0 123.332031,26.628906 74.980469,74.980469 C26.628906,123.332031 0,187.621094 0,256 C0,324.378906 26.628906,388.667969 74.980469,437.019531 C123.332031,485.371094 187.621094,512 256,512 C302.8125,512 348.617188,499.242188 388.460938,475.105469 Z"/>
</svg>
