<svg xmlns="http://www.w3.org/2000/svg" width="512" height="512" viewBox="0 0 512 512">
  <path d="M508.425485,267.210938 C501.174932,284.695312 484.251767,295.988281 465.312823,295.988281 L403.01901,295.988281 L403.01901,353.992188 C403.01901,365.039062 394.065202,373.992188 383.017485,373.992188 C371.969768,373.992188 363.012054,365.039062 363.012054,353.992188 L363.012054,275.988281 C363.012054,264.941406 371.969768,255.988281 383.017485,255.988281 L465.312823,255.988281 C469.192025,255.988281 470.836681,253.421875 471.469542,251.890625 C472.239132,250.035156 472.614161,247.285156 470.039745,244.707031 L271.403506,45.828125 C263.59041,38.03125 250.855065,38.03125 243.022436,45.847656 L41.9016329,244.765625 C39.3858151,247.277344 39.7608437,250.03125 40.5265281,251.886719 C41.1632946,253.417969 42.8040447,255.988281 46.6910601,255.988281 L132.986702,255.988281 C144.03442,255.988281 152.988227,264.945312 152.988227,275.988281 L152.988227,353.992188 C152.988227,365.039062 144.03442,373.996094 132.986702,373.996094 C121.938986,373.996094 112.981271,365.039062 112.981271,353.992188 L112.981271,295.992188 L46.6910601,295.992188 C27.7325836,295.992188 10.8055119,284.679688 3.56277168,267.179688 C-3.67215496,249.699219 0.308617563,229.761719 13.7041699,216.390625 L214.824974,17.476562 C238.170504,-5.835938 276.271065,-5.835938 299.686912,17.539062 L498.346592,216.441406 C511.710892,229.824219 515.664318,249.75 508.425485,267.210938 Z M132.986702,472 C121.938986,472 112.981271,480.953125 112.981271,492 C112.981271,503.046875 121.938986,512 132.986702,512 C144.03442,512 152.988227,503.046875 152.988227,492 C152.988227,480.953125 144.03442,472 132.986702,472 Z M132.986702,401.996094 C121.938986,401.996094 112.981271,410.949219 112.981271,421.996094 C112.981271,433.042969 121.938986,441.996094 132.986702,441.996094 C144.03442,441.996094 152.988227,433.042969 152.988227,421.996094 C152.988227,410.949219 144.03442,401.996094 132.986702,401.996094 Z M383.013579,472 C371.969768,472 363.012054,480.953125 363.012054,492 C363.012054,503.046875 371.969768,512 383.013579,512 C394.061296,512 403.01901,503.046875 403.01901,492 C403.01901,480.953125 394.061296,472 383.013579,472 Z M383.013579,401.996094 C371.969768,401.996094 363.012054,410.949219 363.012054,421.996094 C363.012054,433.042969 371.969768,441.996094 383.013579,441.996094 C394.061296,441.996094 403.01901,433.042969 403.01901,421.996094 C403.01901,410.949219 394.061296,401.996094 383.013579,401.996094 Z" transform="rotate(-180 256 256)"/>
</svg>
