<svg xmlns="http://www.w3.org/2000/svg" width="512" height="512" viewBox="0 0 512 512">
  <path d="M313,0 L80,0 C35.886719,0 0,35.886719 0,80 L0,313 C0,357.113281 35.886719,393 80,393 L313,393 C357.113281,393 393,357.113281 393,313 L393,80 C393,35.886719 357.113281,0 313,0 Z M353,313 C353,335.054688 335.054688,353 313,353 L80,353 C57.945312,353 40,335.054688 40,313 L40,80 C40,57.945312 57.945312,40 80,40 L313,40 C335.054688,40 353,57.945312 353,80 L353,313 Z M312,193 L312,253 C312,286.085938 285.085938,313 252,313 L192,313 C180.953125,313 172,304.046875 172,293 C172,281.953125 180.953125,273 192,273 L243.714844,273 L172.355469,201.640625 C164.546875,193.832031 164.546875,181.167969 172.355469,173.359375 C180.167969,165.546875 192.832031,165.546875 200.640625,173.359375 L272,244.714844 L272,193 C272,181.953125 280.953125,173 292,173 C303.046875,173 312,181.953125 312,193 Z M512,293 C512,304.046875 503.046875,313 492,313 C480.953125,313 472,304.046875 472,293 C472,281.953125 480.953125,273 492,273 C503.046875,273 512,281.953125 512,293 Z M432,173 C432,161.953125 440.953125,153 452,153 C485.085938,153 512,179.914062 512,213 C512,224.046875 503.046875,233 492,233 C480.953125,233 472,224.046875 472,213 C472,201.972656 463.027344,193 452,193 C440.953125,193 432,184.046875 432,173 Z M311,492 C311,503.046875 302.046875,512 291,512 C279.953125,512 271,503.046875 271,492 C271,480.953125 279.953125,472 291,472 C302.046875,472 311,480.953125 311,492 Z M229,491.964844 C229,503.011719 220.046875,511.964844 209,511.964844 C175.914062,511.964844 149,485.050781 149,451.964844 C149,440.921875 157.953125,431.964844 169,431.964844 C180.046875,431.964844 189,440.921875 189,451.964844 C189,462.992188 197.972656,471.964844 209,471.964844 C220.046875,471.964844 229,480.921875 229,491.964844 Z M512,370 C512,381.046875 503.046875,390 492,390 C480.953125,390 472,381.046875 472,370 C472,358.953125 480.953125,350 492,350 C503.046875,350 512,358.953125 512,370 Z M392,492 C392,503.046875 383.046875,512 372,512 C360.953125,512 352,503.046875 352,492 C352,480.953125 360.953125,472 372,472 C383.046875,472 392,480.953125 392,492 Z M512,452 C512,485.085938 485.085938,512 452,512 C440.953125,512 432,503.046875 432,492 C432,480.953125 440.953125,472 452,472 C463.027344,472 472,463.027344 472,452 C472,440.953125 480.953125,432 492,432 C503.046875,432 512,440.953125 512,452 Z"/>
</svg>
