<svg xmlns="http://www.w3.org/2000/svg" width="512" height="512" viewBox="0 0 512 512">
  <path d="M326.949219,143 C326.949219,120.910156 344.855469,103 366.949219,103 C389.039062,103 406.949219,120.910156 406.949219,143 C406.949219,165.089844 389.039062,183 366.949219,183 C344.855469,183 326.949219,165.089844 326.949219,143 Z M273.921875,482.707031 L335.109375,421.503906 C342.917969,413.691406 342.914062,401.03125 335.105469,393.222656 C327.292969,385.410156 314.628906,385.414062 306.820312,393.226562 L245.632812,454.425781 C234.300781,465.757812 219.234375,472 203.207031,472 C187.179688,472 172.113281,465.757812 160.78125,454.425781 L57.523438,351.167969 C34.144531,327.789062 34.128906,289.734375 57.496094,266.335938 L283.464844,40 L431.949219,40 C454.003906,40 471.949219,57.945312 471.949219,80 L471.949219,228.023438 L378.476562,321.535156 C370.667969,329.347656 370.671875,342.011719 378.484375,349.820312 C386.296875,357.628906 398.960938,357.625 406.769531,349.816406 L506.09375,250.445312 C509.84375,246.695312 511.949219,241.609375 511.949219,236.304688 L511.949219,80 C511.949219,35.886719 476.058594,-2.84217094e-14 431.949219,-2.84217094e-14 L275.171875,-2.84217094e-14 C269.863281,-2.84217094e-14 264.769531,2.113281 261.019531,5.867188 L29.191406,238.074219 C-9.75,277.066406 -9.726562,340.484375 29.238281,379.449219 L132.496094,482.710938 C151.382812,501.597656 176.496094,512 203.207031,512 C229.917969,512 255.03125,501.597656 273.921875,482.707031 L273.921875,482.707031 Z"/>
</svg>
