<svg xmlns="http://www.w3.org/2000/svg" width="512" height="512" viewBox="0 0 512 512">
  <path d="M512,122.039062 L512,316.039062 C512,327.085938 503.046875,336.039062 492,336.039062 C480.953125,336.039062 472,327.085938 472,316.039062 L472,182.039062 L115,182.042969 C103.953125,182.042969 95,173.089844 95,162.042969 C95,150.996094 103.953125,142.042969 115,142.042969 L472,142.039062 L472,122.039062 C472,116.695312 469.921875,111.675781 466.144531,107.894531 C462.367188,104.121094 457.34375,102.039062 452.003906,102.042969 L216,102.039062 C204.953125,102.039062 196,93.085938 196,82.039062 L196,80.023438 C196,57.972656 178.058594,40.03125 156.007812,40.023438 L79.992188,40 C57.945312,40 40,57.945312 40,80 L40,212.9375 C40,212.972656 40.003906,213.007812 40.003906,213.042969 L40,389.074219 C40,411.132812 57.945312,429.074219 80,429.074219 L285,429.074219 C296.046875,429.074219 305,438.027344 305,449.074219 C305,460.121094 296.046875,469.074219 285,469.074219 L80,469.074219 C35.886719,469.074219 0,433.1875 0,389.074219 L0.003906,267.113281 C0.003906,267.085938 0,267.0625 0,267.039062 L0,80 C0,35.886719 35.886719,0 80,0 L156.019531,0.023437 C193.9375,0.03125 225.777344,26.566406 233.960938,62.035156 L452,62.039062 L452.011719,62.039062 C468.03125,62.039062 483.09375,68.28125 494.425781,79.609375 C505.757812,90.941406 512,106.011719 512,122.039062 Z M492,376.039062 L437,376.039062 L437,321.039062 C437,309.992188 428.046875,301.039062 417,301.039062 C405.953125,301.039062 397,309.992188 397,321.039062 L397,376.039062 L342,376.039062 C330.953125,376.039062 322,384.992188 322,396.039062 C322,407.085938 330.953125,416.039062 342,416.039062 L397,416.039062 L397,471.039062 C397,482.085938 405.953125,491.039062 417,491.039062 C428.046875,491.039062 437,482.085938 437,471.039062 L437,416.039062 L492,416.039062 C503.046875,416.039062 512,407.085938 512,396.039062 C512,384.992188 503.046875,376.039062 492,376.039062 Z" transform="translate(0 10)"/>
</svg>
