<svg xmlns="http://www.w3.org/2000/svg" width="513" height="512" viewBox="0 0 513 512">
  <path d="M491.041934,309.5 C502.066402,309.5 511.002947,300.546 511.002947,289.5 L511.002947,122.5 C511.002947,106.473 504.774113,91.405 493.463205,80.073 C482.153294,68.743 467.118659,62.504 451.129887,62.504 L451.118908,62.504 L233.505934,62.5 C225.338885,27.028 193.559953,0.495 155.716865,0.487 L79.8450526,0.463 C35.8190409,0.463 0.000998050682,36.351 0.000998050682,80.463 L0.000998050682,389.537 C0.000998050682,433.649 35.8190409,469.537 79.8450526,469.537 L431.158893,469.537 C475.184904,469.537 511.002947,433.649 511.002947,389.537 C511.002947,378.491 502.066402,369.537 491.041934,369.537 C480.017466,369.537 471.08092,378.491 471.08092,389.537 C471.08092,411.593 453.171899,429.537 431.158893,429.537 L79.8450526,429.537 C57.8320468,429.537 39.9230253,411.593 39.9230253,389.538 L39.9230253,80.463 C39.9230253,80.414 39.9230253,80.42 39.9240234,80.437 C39.9379961,58.393 57.8410292,40.463 79.8380663,40.463 L155.705887,40.487 C177.713903,40.492 195.618932,58.435 195.618932,80.487 L195.618932,82.5 C195.618932,93.546 204.555478,102.5 215.579945,102.5 L451.122901,102.504 C456.453489,102.503 461.464702,104.582 465.235337,108.359 C469.004975,112.135 471.08092,117.158 471.08092,122.5 L471.08092,289.5 C471.08092,300.546 480.017466,309.5 491.041934,309.5 Z" transform="translate(0 21)"/>
</svg>
