<svg xmlns="http://www.w3.org/2000/svg" width="512" height="512" viewBox="0 0 512 512">
  <path d="M112.989,402.977 C112.989,414.023 104.035,422.977 92.989,422.977 C81.943,422.977 72.989,414.023 72.989,402.977 C72.989,391.931 81.943,382.977 92.989,382.977 C104.035,382.977 112.989,391.932 112.989,402.977 Z M498.307,216.431 L299.672,17.54 C276.259,-5.835 238.163,-5.835 214.818,17.474 L13.721,216.382 C0.329,229.753 -3.651,249.687 3.581,267.167 C10.822,284.669 27.749,295.978 46.704,295.978 L72.989,295.978 L72.989,332.978 C72.989,344.024 81.943,352.978 92.989,352.978 C104.035,352.978 112.989,344.024 112.989,332.978 L112.989,275.978 C112.989,264.932 104.035,255.978 92.989,255.978 L46.704,255.978 C42.82,255.978 41.177,253.407 40.543,251.875 C39.774,250.02 39.401,247.267 41.916,244.755 L243.014,45.847 C250.843,38.032 263.58,38.03 271.39,45.826 L470.003,244.696 C472.578,247.275 472.202,250.026 471.434,251.879 C470.799,253.409 469.156,255.977 465.275,255.977 L422.99,255.977 C411.944,255.977 402.99,264.931 402.99,275.977 L402.99,332.977 C402.99,344.023 411.944,352.977 422.99,352.977 C434.036,352.977 442.99,344.023 442.99,332.977 L442.99,295.977 L465.275,295.977 C484.214,295.977 501.135,284.681 508.384,267.2 C515.623,249.74 511.668,229.812 498.307,216.431 Z M393.134,462.975 C395.643,475.066 392.605,487.503 384.797,497.097 C377.102,506.554 365.746,511.977 353.643,511.977 L158.336,511.977 C146.165,511.977 134.775,506.56 127.089,497.113 C119.355,487.61 116.35,475.263 118.845,463.24 C125.307,432.115 142.419,403.793 167.031,383.491 C176.344,375.809 186.577,369.415 197.428,364.415 C185.343,350.673 177.99,332.672 177.99,312.976 C177.99,269.967 212.98,234.976 255.99,234.976 C299,234.976 333.99,269.967 333.99,312.976 C333.99,332.672 326.637,350.673 314.552,364.415 C325.404,369.415 335.637,375.808 344.949,383.491 C369.067,403.387 385.984,430.985 392.733,461.373 C392.887,461.898 393.021,462.432 393.134,462.975 L393.134,462.975 Z M217.989,312.977 C217.989,333.93 235.036,350.977 255.989,350.977 C276.942,350.977 293.989,333.93 293.989,312.977 C293.989,292.024 276.942,274.977 255.989,274.977 C235.036,274.977 217.989,292.024 217.989,312.977 L217.989,312.977 Z M353.977,471.411 C353.974,471.397 353.971,471.384 353.969,471.37 C344.366,425.116 303.159,391.544 255.99,391.544 C208.821,391.544 167.613,425.116 158.011,471.37 C157.918,471.819 158.227,471.967 158.23,471.969 C158.237,471.971 158.272,471.977 158.337,471.977 L353.644,471.977 C353.654,471.967 353.922,471.763 353.977,471.411 L353.977,471.411 Z M422.989,382.977 C411.943,382.977 402.989,391.931 402.989,402.977 C402.989,414.023 411.943,422.977 422.989,422.977 C434.035,422.977 442.989,414.023 442.989,402.977 C442.989,391.932 434.035,382.977 422.989,382.977 Z"/>
</svg>
