<svg xmlns="http://www.w3.org/2000/svg" width="513" height="512" viewBox="0 0 513 512">
  <path d="M202.615267,189.306261 L202.615267,40.3202495 C202.615267,24.5061365 211.535844,10.5284366 225.895797,3.84249513 C240.300663,-2.86440546 256.799439,-0.681668616 268.9537,9.53936842 C269.130355,9.68807797 376.839984,106.88524 377.200281,107.265497 C388.248702,118.935704 391.307727,135.502347 385.180694,150.501053 C379.082604,165.430893 365.365396,175.075057 349.379618,175.669895 C349.132101,175.678877 348.885583,175.683867 348.638066,175.683867 L330.173131,175.683867 L366.321528,250.871018 C371.098199,260.806612 366.916366,272.733318 356.980772,277.509988 C354.192218,278.85037 351.245973,279.485131 348.346635,279.485131 C340.913154,279.485131 333.77809,275.316273 330.341801,268.169232 L280.439267,164.371961 C277.466074,158.186043 277.878269,150.907259 281.532133,145.097606 C285.184998,139.287953 291.567532,135.76184 298.430129,135.76184 L348.018277,135.76184 C348.185949,135.579197 348.344639,135.150035 348.335657,134.908507 L243.133131,39.995883 C243.083228,39.9619493 243.052288,39.9439844 243.039314,39.9389942 C242.986417,39.9379961 242.669037,40.0477817 242.545279,40.1575673 C242.541287,40.1934971 242.537294,40.2463938 242.537294,40.3202495 L242.537294,189.306261 C242.537294,189.846207 243.370667,190.518893 243.814799,190.656624 C254.769404,190.808327 263.56722,199.771821 263.496359,210.746386 C263.424499,221.724943 254.49993,230.575657 243.538339,230.576655 C243.493427,230.576655 243.449513,230.576655 243.4046,230.576655 C221.294784,230.43094 202.615267,211.531852 202.615267,189.306261 Z M495.352515,109.282558 C484.575563,106.905201 473.934347,113.710908 471.559984,124.474885 L437.01246,281.093988 C432.944405,299.535969 416.997552,312.415813 398.234199,312.415813 C387.209731,312.415813 378.273185,321.352359 378.273185,332.376827 C378.273185,343.401294 387.209731,352.33784 398.234199,352.33784 C416.359797,352.33784 434.097154,346.07607 448.178651,334.705279 C462.214238,323.371415 472.09494,307.385637 475.997318,289.692195 L510.544842,133.073092 C512.919205,122.309115 506.117489,111.65692 495.352515,109.282558 L495.352515,109.282558 Z M457.118191,452.142908 C457.118191,484.612491 430.701786,511.027899 398.233201,511.027899 C365.764616,511.027899 339.348211,484.612491 339.348211,452.142908 C339.348211,445.508865 340.467025,439.135314 342.499057,433.179945 L256.35331,433.179945 C258.385341,439.135314 259.504156,445.508865 259.504156,452.142908 C259.504156,484.612491 233.08775,511.027899 200.619166,511.027899 C168.150581,511.027899 141.734175,484.612491 141.734175,452.142908 C141.734175,445.508865 142.85299,439.135314 144.885021,433.179945 L136.743922,433.179945 C103.724413,433.179945 76.8608811,405.318363 76.8608811,372.298854 C76.8608811,348.070175 91.332616,327.171992 112.079096,317.753388 L88.3504405,99.7601559 C83.770386,65.6477817 54.410729,39.9489747 19.9719922,39.9489747 C8.94752437,39.9489747 0.0109785575,31.0124288 0.0109785575,19.987961 C0.0109785575,8.96349318 8.94752437,0.0269473684 19.9719922,0.0269473684 C74.4485926,0.0269473684 120.873918,40.7583938 127.960078,94.7728967 L151.655797,312.416811 L298.428133,312.416811 C309.4526,312.416811 318.389146,321.353357 318.389146,332.377825 C318.389146,343.402292 309.4526,352.338838 298.428133,352.338838 L136.743922,352.338838 C125.737419,352.338838 116.782908,361.293349 116.782908,372.299852 C116.782908,383.306355 125.737419,393.258916 136.743922,393.258916 L398.233201,393.258916 C430.701786,393.257918 457.118191,419.674324 457.118191,452.142908 Z M219.582129,452.142908 C219.582129,441.686331 211.075743,433.179945 200.619166,433.179945 C190.162589,433.179945 181.656203,441.686331 181.656203,452.142908 C181.656203,462.599485 190.162589,471.105871 200.619166,471.105871 C211.075743,471.105871 219.582129,462.599485 219.582129,452.142908 Z M417.196164,452.142908 C417.196164,441.686331 408.689778,433.179945 398.233201,433.179945 C387.776624,433.179945 379.270238,441.686331 379.270238,452.142908 C379.270238,462.599485 387.776624,471.105871 398.233201,471.105871 C408.689778,471.105871 417.196164,462.599485 417.196164,452.142908 Z"/>
</svg>
