<svg id="Capa_1" enable-background="new 0 0 512 512" height="512" viewBox="0 0 512 512" width="512" xmlns="http://www.w3.org/2000/svg"><path d="m359.99 422.12c4.304 10.173-.455 21.908-10.627 26.212-11.352 4.802-23.105 9.013-34.472 13.086-31.503 11.286-61.259 21.947-76.95 42.659-3.741 4.938-9.558 7.863-15.752 7.922-.063.001-.127.001-.19.001-6.125 0-11.915-2.807-15.709-7.622-16.406-20.824-46.12-31.493-77.577-42.789-27.986-10.048-56.924-20.439-79.786-39.297-27.541-22.717-40.928-53.232-40.928-93.292 0-28.556 6.405-50.973 12.6-72.65 5.862-20.518 11.4-39.896 11.4-64.35 0-31.409-21.655-83.038-30-100.281-3.708-7.663-2.163-16.841 3.857-22.861l44-44c6.395-6.395 16.285-7.701 24.121-3.19 24.495 14.103 42.069 19.718 60.624 19.337.132-.003.265-.004.397-.004 39.172 0 72.011-34.249 72.332-34.596 3.881-4.187 9.348-6.513 15.077-6.4 5.709.117 11.096 2.668 14.803 7.011.24.273 30.022 33.984 71.789 33.984 19.492 0 37.171-5.601 61.021-19.333 7.836-4.511 17.727-3.203 24.121 3.19l44 44c7.811 7.811 7.811 20.475 0 28.285s-20.474 7.811-28.284 0l-33.468-33.469c-24.017 12.061-44.807 17.327-67.39 17.327-39.521 0-70.294-19.634-87.36-33.808-17.522 13.998-48.873 33.739-86.436 33.808-22.097.424-42.945-4.852-67.607-17.312l-23.663 23.663c9.768 22.519 28.066 69.406 28.066 104.649 0 30.056-6.578 53.077-12.939 75.339-5.688 19.906-11.061 38.708-11.061 61.661 0 58.155 35.807 73.965 94.23 94.942 28.164 10.113 57.092 20.501 79.579 39.364 22.225-18.991 51.291-29.405 79.591-39.545 10.847-3.887 22.063-7.905 32.38-12.27 10.173-4.299 21.908.455 26.211 10.629zm152.009-169.12v100c0 11.046-8.954 20-20 20h-168c-11.046 0-20-8.954-20-20v-100c0-25.533 19.241-46.643 43.983-49.625v-16.375c0-32.525 26.916-58.986 60-58.986s60 26.461 60 58.986v16.371c24.758 2.967 44.017 24.085 44.017 49.629zm-124.016-66v16h40v-16c0-10.469-8.972-18.986-20-18.986s-20 8.517-20 18.986zm84.016 66c0-5.514-4.486-10-10-10h-108c-5.514 0-10 4.486-10 10v80h128z"/></svg>