<svg xmlns="http://www.w3.org/2000/svg" width="512" height="512" viewBox="0 0 512 512">
  <g transform="translate(79)">
    <path d="M334,352.122 C345.046,352.122 354,343.167 354,332.122 L354,80 C354,35.888 318.112,0 274,0 L80,0 C35.888,0 0,35.888 0,80 L0,432 C0,476.112 35.888,512 80,512 L274,512 C318.112,512 354,476.112 354,432 C354,420.954 345.046,412 334,412 C322.954,412 314,420.954 314,432 C314,454.056 296.056,472 274,472 L80,472 C57.944,472 40,454.056 40,432 L40,80 C40,57.944 57.944,40 80,40 L274,40 C296.056,40 314,57.944 314,80 L314,332.122 C314,343.167 322.954,352.122 334,352.122 Z"/>
    <circle cx="177" cy="421.122" r="20"/>
    <path d="M217,91.122 C217,80.076 208.046,71.122 197,71.122 L157,71.122 C145.954,71.122 137,80.076 137,91.122 C137,102.168 145.954,111.122 157,111.122 L197,111.122 C208.046,111.122 217,102.167 217,91.122 Z"/>
  </g>
</svg>
