<svg xmlns="http://www.w3.org/2000/svg" width="512" height="512" viewBox="0 0 512 512">
  <path d="M500.526316,89.7270958 C490.830409,84.4873297 478.717349,88.0974656 473.477583,97.7972707 L418.71345,199.107213 L92.2846006,199.107213 L37.5243662,97.7972707 C32.2807018,88.0974656 20.1715405,84.4873297 10.4717354,89.7270958 C0.775828709,94.9707602 -2.83820663,107.083821 2.40545784,116.779727 L57.5906433,218.873294 L15.8440546,292.717348 C15.7621835,292.869395 15.676413,293.021442 15.5945419,293.17349 C9.07212501,305.442495 9.45419078,319.875244 16.6120855,331.789474 C23.7660819,343.695907 36.3352827,350.807018 50.2300195,350.807018 L59.8830409,350.807018 L59.8830409,431.649123 C59.8830409,475.672514 95.6998053,511.493178 139.727096,511.493178 L371.270955,511.493178 C415.294347,511.493178 451.11501,475.672514 451.11501,431.649123 C451.11501,420.623781 442.175438,411.68811 431.153996,411.68811 C420.128655,411.68811 411.192983,420.623781 411.192983,431.649123 C411.192983,453.660819 393.282651,471.571151 371.270955,471.571151 L275.45809,471.571151 L275.45809,379.750488 C275.45809,368.725146 266.522417,359.789474 255.497076,359.789474 C244.475634,359.789474 235.536063,368.725146 235.536063,379.750488 L235.536063,471.571151 L139.727096,471.571151 C117.715399,471.571151 99.8050682,453.660819 99.8050682,431.649123 L99.8050682,350.807018 L168.771929,350.807018 C193.575049,350.807018 216.218324,337.20078 227.863548,315.294347 L254.998051,264.241715 L282.132554,315.294347 C293.777777,337.20078 316.421052,350.807018 341.22807,350.807018 L459.766081,350.807018 C473.660819,350.807018 486.23002,343.695907 493.387914,331.789474 C500.54191,319.875244 500.923977,305.442495 494.40156,293.17349 C494.319688,293.021442 494.237817,292.869395 494.152047,292.717348 L452.916179,219.777778 L508.592593,116.779727 C513.836258,107.079922 510.226121,94.9707602 500.526316,89.7270958 Z M192.612086,296.557505 C187.91423,305.395712 178.779727,310.884991 168.771929,310.884991 L51.4346976,310.884991 L92.0545809,239.02924 L223.192982,239.02924 L192.612086,296.557505 Z M341.22807,310.884991 C331.220273,310.884991 322.08577,305.395712 317.387914,296.557505 L286.807018,239.02924 L417.945419,239.02924 L458.569201,310.884991 L341.22807,310.884991 Z M176.588694,114.05848 C168.752436,106.304094 168.68616,93.6647171 176.440546,85.8323587 C184.194932,77.9961019 196.834308,77.9298243 204.666666,85.6803116 L235.539961,116.230019 L235.539961,20.460039 C235.539961,9.43469786 244.475634,0.499025341 255.500975,0.499025341 C266.526316,0.499025341 275.461988,9.43469786 275.461988,20.460039 L275.461988,116.88499 L307.185185,84.8304096 C314.939572,76.9941518 327.575049,76.9317736 335.411306,84.6861593 C343.247564,92.4405461 343.31384,105.076023 335.559454,112.91228 L298.304094,150.553606 C298.280702,150.580897 298.253412,150.604289 298.230019,150.62768 C286.557505,162.304094 271.224171,168.140351 255.88694,168.140351 C240.5731,168.140351 225.263158,162.319688 213.594542,150.674464 L176.588694,114.05848 Z"/>
</svg>
