<svg xmlns="http://www.w3.org/2000/svg" width="512" height="512" viewBox="0 0 512 512">
  <path d="M406.388269,432.001648 C406.388269,476.115097 370.501413,512.001953 326.387964,512.001953 L80.5003071,512.001953 C36.3868578,512.001953 0.500001907,476.115097 0.500001907,432.001648 L0.500001907,119.000454 C0.500001907,74.8870047 36.3868578,39.0001488 80.5003071,39.0001488 L84.3011026,39.0001488 C92.8323851,16.24225 114.801219,0 140.500536,0 C173.5866,0 200.500765,26.9141647 200.500765,60.0002289 L200.500765,201.000767 C200.500765,234.086831 173.5866,261.000996 140.500536,261.000996 C107.414472,261.000996 80.5003071,234.086831 80.5003071,201.000767 L80.5003071,139.00053 C80.5003071,127.953613 89.4534662,119.000454 100.500383,119.000454 C111.547301,119.000454 120.50046,127.953613 120.50046,139.00053 L120.50046,201.000767 C120.50046,212.028153 129.47315,221.000843 140.500536,221.000843 C151.527922,221.000843 160.500612,212.028153 160.500612,201.000767 L160.500612,60.0002289 C160.500612,48.9728428 151.527922,40.0001526 140.500536,40.0001526 C131.148938,40.0001526 123.301251,46.4611152 121.121556,55.1447414 C121.363744,56.3947461 121.500463,57.679908 121.500463,59.0002251 C121.500463,64.7775911 119.03561,69.9690169 115.117627,73.6174688 C111.469175,77.5354518 106.277749,80.0003052 100.500383,80.0003052 C98.3245941,80.0003052 96.2386481,79.6409288 94.2777036,79.0003014 L80.5003071,79.0003014 C58.445535,79.0003014 40.5001545,96.9456818 40.5001545,119.000454 L40.5001545,432.001648 C40.5001545,454.05642 58.445535,472.001801 80.5003071,472.001801 L326.39187,472.001801 C348.446641,472.001801 366.392023,454.05642 366.392023,432.001648 C366.392023,420.954731 375.345182,412.001572 386.392099,412.001572 C397.43511,412.001572 406.388269,420.954731 406.388269,432.001648 Z M99.5003796,382.001457 C88.4534624,382.001457 79.5003033,390.954616 79.5003033,402.001534 C79.5003033,413.048451 88.4534624,422.00161 99.5003796,422.00161 L245.500937,422.00161 C256.547854,422.00161 265.501013,413.048451 265.501013,402.001534 C265.501013,390.954616 256.547854,382.001457 245.500937,382.001457 L99.5003796,382.001457 Z M325.501242,321.001225 C325.501242,309.954307 316.548083,301.001148 305.501165,301.001148 L99.5003796,301.001148 C88.4534624,301.001148 79.5003033,309.954307 79.5003033,321.001225 C79.5003033,332.048142 88.4534624,341.001301 99.5003796,341.001301 L305.501165,341.001301 C316.548083,341.001301 325.501242,332.048142 325.501242,321.001225 Z M326.387964,39.0001488 L259.50099,39.0001488 C248.454073,39.0001488 239.500914,47.9533079 239.500914,59.0002251 C239.500914,70.0471422 248.454073,79.0003014 259.50099,79.0003014 L326.387964,79.0003014 C348.446641,79.0003014 366.388117,96.9456818 366.388117,119.000454 L366.388117,332.001266 C366.388117,343.048184 375.345182,352.001343 386.388193,352.001343 C397.43511,352.001343 406.388269,343.048184 406.388269,332.001266 L406.388269,119.000454 C406.388269,74.8870047 370.501413,39.0001488 326.387964,39.0001488 Z" transform="translate(52)"/>
</svg>
