<svg xmlns="http://www.w3.org/2000/svg" width="513" height="512" viewBox="0 0 513 512">
  <path d="M257.007812,218.065765 C278.546875,218.065765 296.007812,235.492624 296.007812,256.98965 C296.007812,278.482777 278.546875,295.909636 257.007812,295.909636 C235.46875,295.909636 218.007812,278.482777 218.007812,256.98965 C218.007812,235.492624 235.46875,218.065765 257.007812,218.065765 L257.007812,218.065765 Z M257.007812,143.216038 C319.867188,143.216038 371.003906,194.252954 371.003906,256.98965 C371.003906,319.722445 319.867188,370.763261 257.007812,370.763261 C194.152344,370.763261 143.011719,319.722445 143.011719,256.98965 C143.011719,194.252954 194.152344,143.216038 257.007812,143.216038 L257.007812,143.216038 Z M257.007812,183.134073 C216.207031,183.134073 183.011719,216.264599 183.011719,256.98965 C183.011719,297.710802 216.207031,330.841328 257.007812,330.841328 C297.8125,330.841328 331.003906,297.710802 331.003906,256.98965 C331.003906,216.264599 297.8125,183.134073 257.007812,183.134073 L257.007812,183.134073 Z M442.300781,340.190234 C434.742188,332.151266 422.085938,331.749708 414.035156,339.293549 C379.257812,371.858776 323.6875,410.681296 256.445312,410.681296 C159.34375,410.681296 78.839844,327.843284 46.582031,278.896031 C37.8125,265.586121 37.8125,248.38928 46.582031,235.079369 C78.839844,186.132116 159.34375,103.294105 256.445312,103.294105 C353.542969,103.294105 433.554688,186.210089 465.523438,235.204125 C474.160156,248.436063 474.160156,265.539337 465.523438,278.771275 C459.496094,288.00712 462.113281,300.373564 471.367188,306.389143 C480.625,312.404724 493.015625,309.792645 499.039062,300.556798 C516.308594,274.089025 516.308594,239.886376 499.039062,213.418602 C488.421875,197.145736 458.460938,155.368056 409.691406,118.974379 C360.25,82.081679 308.691406,63.372171 256.445312,63.372171 C204.269531,63.372171 152.667969,82.0309961 103.066406,118.822333 C54.082031,155.161429 23.878906,196.888427 13.164062,213.1418 C-4.386719,239.777215 -4.386719,274.198186 13.164062,300.833601 C23.878906,317.086974 54.082031,358.813972 103.066406,395.153067 C152.667969,431.948303 204.269531,450.60323 256.445312,450.60323 C336.769531,450.60323 401.359375,405.90158 441.402344,368.404592 C449.457031,360.86075 449.859375,348.229201 442.300781,340.190234 Z M20.015625,120.260926 C31.0625,120.260926 40.015625,111.325275 40.015625,100.299959 L40.015625,50.3975426 C40.015625,44.8965807 44.5,40.4209576 50.015625,40.4209576 L100.015625,40.4209576 C111.058594,40.4209576 120.011719,31.4814078 120.011719,20.4599909 C120.011719,9.43467569 111.058594,0.499024168 100.015625,0.499024168 L50.015625,0.499024168 C22.445312,0.499024168 0.015625,22.884937 0.015625,50.3975426 L0.015625,100.299959 C0.015625,111.325275 8.972656,120.260926 20.015625,120.260926 Z M100.015625,471.562245 L50.015625,471.562245 C44.5,471.562245 40.015625,467.082723 40.015625,461.581761 L40.015625,411.679345 C40.015625,400.657928 31.0625,391.718378 20.015625,391.718378 C8.972656,391.718378 0.015625,400.657928 0.015625,411.679345 L0.015625,461.581761 C0.015625,489.094367 22.445312,511.48028 50.015625,511.48028 L100.015625,511.48028 C111.058594,511.48028 120.011719,502.544628 120.011719,491.519313 C120.011719,480.497896 111.058594,471.562245 100.015625,471.562245 L100.015625,471.562245 Z M462,0.499024168 L412.003906,0.499024168 C400.957031,0.499024168 392.003906,9.43467569 392.003906,20.4599909 C392.003906,31.4814078 400.957031,40.4209576 412.003906,40.4209576 L462,40.4209576 C467.515625,40.4209576 472,44.8965807 472,50.3975426 L472,100.299959 C472,111.325275 480.953125,120.260926 492,120.260926 C503.046875,120.260926 512,111.325275 512,100.299959 L512,50.3975426 C512,22.884937 489.570312,0.499024168 462,0.499024168 L462,0.499024168 Z M492,391.718378 C480.953125,391.718378 472,400.657928 472,411.679345 L472,461.581761 C472,467.082723 467.515625,471.562245 462,471.562245 L412.003906,471.562245 C400.957031,471.562245 392.003906,480.497896 392.003906,491.519313 C392.003906,502.544628 400.957031,511.48028 412.003906,511.48028 L462,511.48028 C489.570312,511.48028 512,489.094367 512,461.581761 L512,411.679345 C512,400.657928 503.046875,391.718378 492,391.718378 L492,391.718378 Z" transform="translate(1)"/>
</svg>
