<svg xmlns="http://www.w3.org/2000/svg" width="512" height="512" viewBox="0 0 512 512">
  <path d="M352.003906,511.984375 L190,511.984375 C85.234375,511.984375 -2.84217094e-14,426.75 -2.84217094e-14,321.984375 C-2.84217094e-14,217.214844 85.234375,131.980469 190,131.980469 L328.007812,131.980469 L328.007812,40.058594 C328.007812,23.824219 337.703125,9.308594 352.714844,3.082031 C367.746094,-3.152344 384.898438,0.242188 396.410156,11.730469 L494.371094,109.484375 C505.738281,120.832031 512,135.921875 512,151.980469 C512,168.039062 505.738281,183.128906 494.371094,194.476562 L396.410156,292.230469 C384.894531,303.71875 367.746094,307.113281 352.714844,300.878906 C337.703125,294.652344 328.007812,280.140625 328.007812,263.902344 L328.007812,241.980469 C328.007812,230.933594 336.960938,221.980469 348.007812,221.980469 C359.050781,221.980469 368.007812,230.933594 368.007812,241.980469 L368.007812,263.902344 L368.007812,263.917969 C368.039062,263.933594 368.074219,263.945312 368.109375,263.957031 C368.125,263.945312 368.140625,263.929688 368.15625,263.914062 L466.117188,166.160156 C469.910156,162.375 472,157.339844 472,151.980469 C472,146.621094 469.910156,141.585938 466.117188,137.800781 L368.15625,40.042969 C368.140625,40.027344 368.125,40.015625 368.109375,40 C368.074219,40.011719 368.039062,40.027344 368.007812,40.042969 L368.007812,40.054688 L368.007812,131.980469 C368.007812,154.035156 350.0625,171.980469 328.007812,171.980469 L190,171.980469 C107.289062,171.980469 40,239.269531 40,321.980469 C40,404.691406 107.289062,471.980469 190,471.980469 L352.003906,471.980469 C363.046875,471.980469 372.003906,480.933594 372.003906,491.980469 C372.003906,503.027344 363.046875,511.984375 352.003906,511.984375 L352.003906,511.984375 Z"/>
</svg>
