<svg xmlns="http://www.w3.org/2000/svg" width="512" height="512" viewBox="0 0 512 512">
  <path d="M506.213 243.929C498.441 236.078 485.778 236.016 477.929 243.788L432 289.261 432 216C432 158.304 409.532 104.062 368.735 63.265 327.938 22.468 273.695 0 216 0 180.572 0 145.618 8.721 114.542 25.269 114.5 25.291 114.458 25.313 114.416 25.335 114.328 25.382 114.24 25.429 114.152 25.477 114.145 25.48 114.139 25.484 114.132 25.487 113.936 25.592 113.74 25.697 113.545 25.803 113.45 25.854 113.355 25.906 113.26 25.957 113.191 25.994 113.122 26.032 113.053 26.069 111.888 26.701 110.728 27.344 109.574 27.999 109.497 28.042 109.421 28.086 109.345 28.131 104.641 30.808 100.017 33.672 95.543 36.683 86.379 42.85 83.949 55.279 90.116 64.442 93.978 70.181 100.294 73.278 106.727 73.278 110.567 73.278 114.45 72.174 117.874 69.869 122.811 66.547 127.971 63.444 133.211 60.645 158.546 47.126 187.071 40 216 40 313.047 40 392 118.953 392 216L392 289.734 345.971 244.799C338.067 237.082 325.404 237.236 317.689 245.14 309.973 253.043 310.126 265.706 318.03 273.422L369.747 323.909C381.37 335.255 396.584 340.92 411.798 340.92 427.153 340.92 442.509 335.147 454.157 323.612L506.072 272.213C513.921 264.44 513.983 251.777 506.213 243.929zM21.565 184.052C10.515 183.375 1.061 191.785.396 202.811.134 207.172 0 211.609 0 216.008.001 218.94.061 221.9.177 224.805.61 235.569 9.471 244.003 20.148 244.003 20.418 244.003 20.689 243.998 20.963 243.987 31.999 243.544 40.588 234.238 40.146 223.201 40.05 220.823 40.001 218.397 40 216 40 212.409 40.109 208.782 40.324 205.221 40.989 194.196 32.591 184.718 21.565 184.052zM65.994 308.108C62.864 303.025 59.968 297.731 57.383 292.373 52.585 282.425 40.631 278.247 30.681 283.048 20.732 287.846 16.557 299.801 21.356 309.75 24.531 316.333 28.088 322.835 31.929 329.075 35.707 335.214 42.265 338.595 48.98 338.595 52.556 338.595 56.176 337.636 59.445 335.624 68.852 329.834 71.784 317.515 65.994 308.108zM216 392C210.014 392 203.977 391.696 198.058 391.099 187.082 389.982 177.259 397.995 176.149 408.986 175.038 419.976 183.046 429.786 194.037 430.896 201.287 431.629 208.677 432 216.001 432L216.005 432C227.051 432 236.003 423.046 236.003 412 236.003 400.954 227.046 392 216 392zM130.087 369.646C124.888 366.732 119.776 363.513 114.896 360.082 105.859 353.728 93.385 355.902 87.032 364.938 80.678 373.973 82.853 386.449 91.888 392.802 97.876 397.013 104.148 400.961 110.529 404.538 113.623 406.272 116.978 407.096 120.29 407.096 127.291 407.096 134.088 403.412 137.755 396.871 143.154 387.237 139.723 375.048 130.087 369.646zM61.931 93.194C52.646 87.215 40.268 89.892 34.287 99.179 30.317 105.342 26.626 111.772 23.316 118.289 18.313 128.138 22.242 140.176 32.089 145.178 34.991 146.653 38.084 147.351 41.131 147.351 48.421 147.351 55.45 143.35 58.978 136.405 61.674 131.097 64.681 125.86 67.916 120.838 73.896 111.551 71.217 99.175 61.931 93.194z" transform="translate(0 40)"/>
</svg>
