<svg xmlns="http://www.w3.org/2000/svg" width="512" height="512" viewBox="0 0 512 512">
  <path d="M70.152344,512 C54.125,512 39.066406,505.765625 27.726562,494.421875 L18.574219,485.273438 C7.15625,473.851562 0.9140625,458.671875 1,442.519531 C1.0859375,426.371094 7.492188,411.253906 19.035156,399.957031 L166.273438,256.394531 L19.972656,112.199219 C8.558594,100.960938 2.199219,85.9375 2.078125,69.90625 C1.957031,53.875 8.085938,38.761719 19.335938,27.339844 L28.636719,17.894531 C40.042969,6.320312 55.277344,-0.00390625 71.519531,2.84217094e-14 C87.769531,0.0351562 102.96875,6.457031 114.320312,18.085938 L306.777344,214.332031 C317.839844,225.660156 323.902344,240.578125 323.882812,256.367188 C323.859375,272.15625 317.757812,287.054688 306.699219,298.320312 L247.824219,358.027344 C240.066406,365.890625 227.402344,365.980469 219.535156,358.222656 C211.671875,350.46875 211.582031,337.804688 219.339844,329.9375 L278.179688,270.265625 C285.714844,262.59375 285.730469,250.039062 278.1875,242.3125 L85.730469,46.0625 C81.914062,42.15625 76.847656,40.015625 71.429688,40.003906 C66,39.96875 60.9375,42.109375 57.136719,45.96875 L47.835938,55.414062 C44.082031,59.21875 42.042969,64.257812 42.082031,69.601562 C42.125,74.945312 44.242188,79.953125 48.050781,83.703125 L208.886719,242.226562 C212.714844,246 214.859375,251.152344 214.847656,256.527344 C214.832031,261.898438 212.65625,267.042969 208.808594,270.792969 L46.988281,428.574219 C43.167969,432.3125 41.035156,437.351562 41.003906,442.734375 C40.976562,448.117188 43.054688,453.179688 46.863281,456.984375 L56.011719,466.136719 C59.816406,469.9375 64.875,472.007812 70.253906,471.996094 C75.628906,471.96875 80.667969,469.84375 84.433594,466.007812 C84.464844,465.972656 84.496094,465.941406 84.527344,465.910156 L148.890625,401.234375 C156.683594,393.402344 169.347656,393.371094 177.175781,401.164062 C185.007812,408.957031 185.039062,421.621094 177.246094,429.449219 L112.929688,494.082031 C101.636719,505.5625 86.546875,511.925781 70.4375,512 C70.34375,512 70.246094,512 70.152344,512 L70.152344,512 Z" transform="translate(94)"/>
</svg>
