<svg xmlns="http://www.w3.org/2000/svg" width="512" height="512" viewBox="0 0 512 512">
  <path d="M305,148 C316.046,148 325,139.046 325,128 L325,90 C325,78.954 316.046,70 305,70 C293.954,70 285,78.954 285,90 L285,128 C285,139.046 293.954,148 305,148 Z"/>
  <path d="M492,352 C503.046,352 512,343.046 512,332 L512,102 C512,96.696 509.893,91.608 506.142,87.858 L424.142,5.858 C420.392,2.107 415.304,0 410,0 L80,0 C35.888,0 0,35.888 0,80 L0,432 C0,476.112 35.888,512 80,512 L432,512 C476.112,512 512,476.112 512,432 C512,420.954 503.046,412 492,412 C480.954,412 472,420.954 472,432 C472,454.056 454.056,472 432,472 L432,312 C432,300.954 423.046,292 412,292 L100,292 C88.954,292 80,300.954 80,312 L80,472 C57.944,472 40,454.056 40,432 L40,80 C40,57.944 57.944,40 80,40 L80,158 C80,191.084 106.916,218 140,218 L341,218 C374.084,218 401,191.084 401,158 L401,40 L401.716,40 L472,110.284 L472,332 C472,343.046 480.954,352 492,352 Z M120,332 L392,332 L392,472 L120,472 L120,332 Z M361,158 C361,169.028 352.028,178 341,178 L140,178 C128.972,178 120,169.028 120,158 L120,40 L361,40 L361,158 Z"/>
</svg>
