<svg xmlns="http://www.w3.org/2000/svg" width="512" height="512" viewBox="0 0 512 512">
  <path d="M322.342425,0 C217.779649,0 132.712795,85.233 132.712795,190 C132.712795,226.143 142.840016,259.958 160.395727,288.754 C60.8741053,367.13 49.8785809,378.143 46.1708226,381.857 L18.5088499,409.573 C-4.83954776,432.968 -4.83954776,471.032 18.5088499,494.427 C30.1830487,506.123 45.5180975,511.972 60.8521481,511.972 C76.1861988,511.972 91.5212476,506.123 103.195446,494.427 L130.857419,466.711 C134.544218,463.017 145.56669,451.97 223.325817,351.978 C252.164491,369.741 286.078253,380 322.342425,380 C350.834776,380 378.235259,373.819 403.782363,361.629 C413.735922,356.88 417.961669,344.945 413.221926,334.973 C408.481185,325 396.56945,320.763 386.617887,325.516 C366.47423,335.127 344.849466,340 322.342425,340 C239.793653,340 172.634823,272.71 172.634823,190 C172.634823,107.29 239.793653,40 322.342425,40 C404.891197,40 472.050027,107.29 472.050027,190 C472.050027,217.091 464.771244,243.631 450.999142,266.75 C445.349177,276.234 448.443135,288.513 457.909645,294.174 C467.377154,299.835 479.630222,296.735 485.280187,287.25 C502.74308,257.935 511.973053,224.307 511.973053,190 C511.972055,85.233 426.904203,0 322.342425,0 Z M102.629552,438.426 L74.9675789,466.142 C67.1847797,473.941 54.5215127,473.941 46.7387135,466.142 C38.9559142,458.344 38.9559142,445.657 46.7387135,437.859 L74.4006862,410.143 C79.3470253,405.187 100.389926,386.894 184.665326,320.518 C186.945871,322.932 189.2863,325.29 191.688608,327.582 C125.660569,412.484 107.531977,433.514 102.629552,438.426 Z M423.094643,146.246 C427.483072,156.379 422.842136,168.157 412.728889,172.555 C410.141942,173.68 407.445209,174.212 404.793388,174.212 C397.080452,174.212 389.737793,169.708 386.472172,162.168 C375.37784,136.552 350.206004,120 322.342425,120 C311.317957,120 302.381411,111.046 302.381411,100 C302.381411,88.954 311.317957,80 322.342425,80 C366.118924,80 405.666682,106.003 423.094643,146.246 Z"/>
</svg>
