<svg xmlns="http://www.w3.org/2000/svg" width="513" height="512" viewBox="0 0 513 512">
  <path d="M512,196.383562 C512,207.452055 503.046875,216.422701 492,216.422701 L426.121094,216.422701 C415.074219,216.422701 406.121094,207.452055 406.121094,196.383562 C406.121094,185.315068 415.074219,176.344423 426.121094,176.344423 L492,176.344423 C503.046875,176.344423 512,185.315068 512,196.383562 Z M20,216.422701 L326,216.422701 L326,236.46184 C326,247.530333 334.953125,256.500978 346,256.500978 C357.046875,256.500978 366,247.530333 366,236.46184 L366,156.305284 C366,145.236791 357.046875,136.266145 346,136.266145 C334.953125,136.266145 326,145.236791 326,156.305284 L326,176.344423 L20,176.344423 C8.953125,176.344423 0,185.315068 0,196.383562 C0,207.452055 8.953125,216.422701 20,216.422701 Z M164.121094,80.1565558 L492,80.1565558 C503.046875,80.1565558 512,71.18591 512,60.1174168 C512,49.0489237 503.046875,40.0782779 492,40.0782779 L164.121094,40.0782779 C153.074219,40.0782779 144.121094,49.0489237 144.121094,60.1174168 C144.121094,71.18591 153.074219,80.1565558 164.121094,80.1565558 Z M20,80.1565558 L64.242188,80.1565558 L64.242188,100.195695 C64.242188,111.264188 73.199219,120.234834 84.242188,120.234834 C95.289062,120.234834 104.242188,111.264188 104.242188,100.195695 L104.242188,20.0391389 C104.242188,8.97064579 95.289062,0 84.242188,0 C73.199219,0 64.242188,8.97064579 64.242188,20.0391389 L64.242188,40.0782779 L20,40.0782779 C8.953125,40.0782779 0,49.0489237 0,60.1174168 C0,71.18591 8.953125,80.1565558 20,80.1565558 Z M492,431.843444 L191.167969,431.843444 C180.121094,431.843444 171.167969,440.81409 171.167969,451.882583 C171.167969,462.951076 180.121094,471.921722 191.167969,471.921722 L492,471.921722 C503.046875,471.921722 512,462.951076 512,451.882583 C512,440.81409 503.046875,431.843444 492,431.843444 Z M111.121094,391.765166 C100.074219,391.765166 91.121094,400.735812 91.121094,411.804305 L91.121094,431.843444 L20,431.843444 C8.953125,431.843444 2.84217094e-14,440.81409 2.84217094e-14,451.882583 C2.84217094e-14,462.951076 8.953125,471.921722 20,471.921722 L91.121094,471.921722 L91.121094,491.960861 C91.121094,503.029354 100.074219,512 111.121094,512 C122.167969,512 131.121094,503.029354 131.121094,491.960861 L131.121094,411.804305 C131.121094,400.735812 122.167969,391.765166 111.121094,391.765166 Z M492,301.589041 L338.121094,301.589041 C327.074219,301.589041 318.121094,310.559687 318.121094,321.62818 C318.121094,332.696673 327.074219,341.667319 338.121094,341.667319 L492,341.667319 C503.046875,341.667319 512,332.696673 512,321.62818 C512,310.559687 503.046875,301.589041 492,301.589041 Z M20,341.667319 L238.242188,341.667319 L238.242188,361.706458 C238.242188,372.774951 247.199219,381.745597 258.242188,381.745597 C269.289062,381.745597 278.242188,372.774951 278.242188,361.706458 L278.242188,281.549902 C278.242188,270.481409 269.289062,261.510763 258.242188,261.510763 C247.199219,261.510763 238.242188,270.481409 238.242188,281.549902 L238.242188,301.589041 L20,301.589041 C8.953125,301.589041 0,310.559687 0,321.62818 C0,332.696673 8.953125,341.667319 20,341.667319 Z" transform="translate(1)"/>
</svg>
