<svg xmlns="http://www.w3.org/2000/svg" width="512" height="512" viewBox="0 0 512 512">
  <path d="M333,256 C333,214.09375 298.90625,180 257,180 C227.054688,180 199.738281,198.082031 187.410156,226.0625 C182.953125,236.171875 171.148438,240.753906 161.042969,236.300781 C150.933594,231.847656 146.351562,220.042969 150.804688,209.933594 C169.523438,167.449219 211.207031,140 257,140 C320.960938,140 373,192.039062 373,256 C373,302.394531 345.460938,344.230469 302.847656,362.582031 C300.269531,363.691406 297.585938,364.21875 294.945312,364.21875 C287.199219,364.21875 279.828125,359.691406 276.566406,352.121094 C272.199219,341.976562 276.882812,330.210938 287.027344,325.84375 C314.953125,313.816406 333,286.402344 333,256 L333,256 Z M453,186 L442.925781,186 C440.277344,186 437.875,184.332031 436.835938,181.8125 L436.65625,181.378906 C435.578125,178.785156 436.09375,175.898438 437.96875,174.027344 L445.089844,166.902344 C468.484375,143.507812 468.484375,105.445312 445.089844,82.050781 L430.949219,67.910156 C419.613281,56.578125 404.546875,50.335938 388.519531,50.335938 C372.496094,50.335938 357.425781,56.578125 346.09375,67.910156 L338.972656,75.03125 C337.097656,76.90625 334.207031,77.417969 331.625,76.347656 L331.25,76.191406 C328.667969,75.125 327,72.722656 327,70.074219 L327,60 C327,26.914062 300.082031,0 267,0 L247,0 C213.914062,0 187,26.914062 187,60 L187,70.074219 C187,72.722656 185.332031,75.125 182.769531,76.179688 L182.378906,76.34375 C179.785156,77.417969 176.898438,76.90625 175.023438,75.03125 L167.902344,67.910156 C156.570312,56.578125 141.503906,50.335938 125.476562,50.335938 C109.449219,50.335938 94.382812,56.578125 83.050781,67.910156 L68.910156,82.050781 C45.515625,105.445312 45.515625,143.511719 68.910156,166.90625 L76.03125,174.027344 C77.90625,175.902344 78.417969,178.789062 77.3125,181.457031 L77.191406,181.75 C76.125,184.332031 73.722656,186 71.074219,186 L61,186 C27.914062,186 1,212.917969 1,246 L1,266 C1,292.351562 17.882812,315.359375 43.007812,323.25 C53.542969,326.558594 64.769531,320.699219 68.082031,310.164062 C71.390625,299.625 65.53125,288.398438 54.992188,285.089844 C46.621094,282.460938 41,274.789062 41,266 L41,246 C41,234.972656 49.972656,226 61,226 L71.074219,226 C89.976562,226 106.890625,214.625 114.1875,196.953125 L114.28125,196.726562 C121.59375,179.121094 117.683594,159.109375 104.316406,145.742188 L97.195312,138.621094 C89.394531,130.824219 89.394531,118.136719 97.195312,110.335938 L111.335938,96.195312 C115.113281,92.417969 120.136719,90.335938 125.476562,90.335938 C130.820312,90.335938 135.839844,92.414062 139.621094,96.195312 L146.742188,103.316406 C160.113281,116.683594 180.125,120.59375 197.734375,113.277344 L198.015625,113.160156 C215.621094,105.890625 227,88.976562 227,70.074219 L227,60 C227,48.972656 235.972656,40 247,40 L267,40 C278.027344,40 287,48.972656 287,60 L287,70.074219 C287,88.980469 298.375,105.890625 316.003906,113.171875 L316.273438,113.285156 C333.878906,120.59375 353.890625,116.683594 367.257812,103.316406 L374.378906,96.195312 C378.15625,92.417969 383.179688,90.335938 388.523438,90.335938 C393.863281,90.335938 398.886719,92.417969 402.664062,96.195312 L416.804688,110.335938 C424.605469,118.136719 424.605469,130.824219 416.808594,138.621094 L409.683594,145.742188 C396.316406,159.109375 392.40625,179.121094 399.6875,196.652344 L399.839844,197.019531 C407.109375,214.625 424.019531,226 442.925781,226 L453,226 C464.027344,226 473,234.972656 473,246 L473,266 C473,277.027344 464.027344,286 453,286 L442.925781,286 C424.019531,286 407.109375,297.375 399.835938,314.980469 L399.707031,315.296875 C392.40625,332.894531 396.320312,352.894531 409.683594,366.257812 L416.804688,373.378906 C420.582031,377.15625 422.664062,382.179688 422.664062,387.519531 C422.664062,392.863281 420.582031,397.886719 416.804688,401.664062 L402.664062,415.804688 C398.886719,419.582031 393.863281,421.664062 388.519531,421.664062 C383.175781,421.664062 378.15625,419.582031 374.378906,415.804688 L367.253906,408.683594 C353.886719,395.316406 333.875,391.40625 316.265625,398.71875 L315.980469,398.835938 C298.375,406.105469 287,423.019531 287,441.925781 L287,452 C287,463.027344 278.027344,472 267,472 L247,472 C238.691406,472 231.15625,466.773438 228.25,459 C224.386719,448.652344 212.867188,443.398438 202.515625,447.265625 C192.167969,451.132812 186.914062,462.652344 190.785156,473 C199.5,496.324219 222.089844,512 247,512 L267,512 C300.082031,512 327,485.082031 327,452 L327,441.925781 C327,439.277344 328.667969,436.875 331.226562,435.816406 L331.621094,435.65625 C334.214844,434.578125 337.101562,435.09375 338.972656,436.96875 L346.09375,444.089844 C357.425781,455.421875 372.496094,461.664062 388.523438,461.664062 C404.546875,461.664062 419.617188,455.421875 430.949219,444.089844 L445.089844,429.945312 C456.421875,418.613281 462.664062,403.546875 462.664062,387.519531 C462.664062,371.496094 456.421875,356.425781 445.089844,345.09375 L437.96875,337.972656 C436.09375,336.097656 435.582031,333.210938 436.65625,330.617188 L436.808594,330.253906 C437.875,327.667969 440.277344,326 442.925781,326 L453,326 C486.082031,326 513,299.085938 513,266 L513,246 C513,212.914062 486.082031,186 453,186 L453,186 Z M225.425781,374.425781 L115.851562,483.792969 C113.414062,486.230469 110.386719,487.992188 107.0625,488.910156 L26.339844,511.273438 C24.574219,511.761719 22.78125,512 21,512 C15.683594,512 10.5,509.878906 6.683594,505.964844 C1.589844,500.746094 -0.257812,493.167969 1.863281,486.1875 L25.777344,407.460938 C26.734375,404.308594 28.453125,401.441406 30.785156,399.117188 L140.589844,289.558594 C163.96875,266.179688 202.03125,266.179688 225.425781,289.574219 C248.820312,312.96875 248.820312,351.03125 225.425781,374.425781 L225.425781,374.425781 Z M164.96875,378.253906 L136.679688,349.964844 L62.589844,423.886719 L50.703125,463.015625 L91.316406,451.765625 L164.96875,378.253906 Z M197.140625,317.855469 C189.34375,310.058594 176.65625,310.058594 168.859375,317.855469 L164.996094,321.710938 L193.28125,349.996094 L197.15625,346.128906 C204.941406,338.34375 204.941406,325.65625 197.140625,317.855469 L197.140625,317.855469 Z" transform="translate(-1)"/>
</svg>
