<svg xmlns="http://www.w3.org/2000/svg" width="512" height="512" viewBox="0 0 512 512">
  <path d="M472 412C460.954 412 452 420.954 452 432 452 454.056 434.056 472 412 472L100 472C77.944 472 60 454.056 60 432L60 210C60 198.954 51.046 190 40 190 28.954 190 20 198.954 20 210L20 432C20 476.112 55.888 512 100 512L412 512C456.112 512 492 476.112 492 432 492 420.954 483.046 412 472 412zM452 0L60 0C26.916 0 0 26.916 0 60L0 120C0 131.046 8.954 140 20 140L452 140 452 331C452 342.046 460.954 351 472 351 483.046 351 492 342.046 492 331L492 140C503.046 140 512 131.046 512 120L512 60C512 26.916 485.084 0 452 0zM472 100L40 100 40 60C40 48.972 48.972 40 60 40L452 40C463.028 40 472 48.972 472 60L472 100z"/>
  <path d="M300,220 C311.046,220 320,211.046 320,200 C320,188.954 311.046,180 300,180 L210,180 C198.954,180 190,188.954 190,200 C190,211.046 198.954,220 210,220 L300,220 Z"/>
</svg>
