<svg xmlns="http://www.w3.org/2000/svg" width="512" height="512" viewBox="0 0 512 512">
  <g transform="translate(0 119)">
    <path d="M494.933333,0 L17.0666667,0 C7.64586667,0 0,7.6288 0,17.0666667 L0,256 C0,265.437867 7.64586667,273.066667 17.0666667,273.066667 L494.933333,273.066667 C504.354133,273.066667 512,265.437867 512,256 L512,17.0666667 C512,7.6288 504.354133,0 494.933333,0 Z M477.866667,238.933333 L34.1333333,238.933333 L34.1333333,34.1333333 L477.866667,34.1333333 L477.866667,238.933333 Z"/>
    <path d="M260.881067,170.666667 L221.866667,170.666667 C212.445867,170.666667 204.8,178.295467 204.8,187.733333 C204.8,197.1712 212.445867,204.8 221.866667,204.8 L260.881067,204.8 C286.4128,204.8 307.2,185.668267 307.2,162.133333 C307.2,138.5984 286.4128,119.466667 260.881067,119.466667 L251.136,119.466667 C243.933867,119.466667 238.933333,114.961067 238.933333,110.933333 C238.933333,106.9056 243.933867,102.4 251.118933,102.4 L290.133333,102.4 C299.554133,102.4 307.2,94.7712 307.2,85.3333333 C307.2,75.8954667 299.554133,68.2666667 290.133333,68.2666667 L251.118933,68.2666667 C225.5872,68.2666667 204.8,87.3984 204.8,110.933333 C204.8,134.468267 225.5872,153.6 251.118933,153.6 L260.864,153.6 C268.066133,153.6 273.066667,158.1056 273.066667,162.133333 C273.066667,166.161067 268.066133,170.666667 260.881067,170.666667 Z"/>
  </g>
</svg>
