<svg xmlns="http://www.w3.org/2000/svg" width="512" height="512" viewBox="0 0 512 512">
  <g transform="translate(0 119)">
    <path d="M494.933333,0 L17.0666667,0 C7.64586667,0 0,7.6288 0,17.0666667 L0,256 C0,265.437867 7.64586667,273.066667 17.0666667,273.066667 L494.933333,273.066667 C504.354133,273.066667 512,265.437867 512,256 L512,17.0666667 C512,7.6288 504.354133,0 494.933333,0 Z M477.866667,238.933333 L34.1333333,238.933333 L34.1333333,34.1333333 L477.866667,34.1333333 L477.866667,238.933333 Z"/>
    <path d="M221.866667,204.8 L290.133333,204.8 C299.554133,204.8 307.2,197.1712 307.2,187.733333 C307.2,178.295467 299.554133,170.666667 290.133333,170.666667 L238.933333,170.666667 L238.933333,85.3333333 C238.933333,75.8954667 231.287467,68.2666667 221.866667,68.2666667 C212.445867,68.2666667 204.8,75.8954667 204.8,85.3333333 L204.8,187.733333 C204.8,197.1712 212.445867,204.8 221.866667,204.8 Z"/>
  </g>
</svg>
