<svg xmlns="http://www.w3.org/2000/svg" width="512" height="512" viewBox="0 0 512 512">
  <g transform="translate(0 119)">
    <path d="M494.933333,0 L17.0666667,0 C7.64586667,0 0,7.6288 0,17.0666667 L0,256 C0,265.437867 7.64586667,273.066667 17.0666667,273.066667 L494.933333,273.066667 C504.354133,273.066667 512,265.437867 512,256 L512,17.0666667 C512,7.6288 504.354133,0 494.933333,0 Z M477.866667,238.933333 L34.1333333,238.933333 L34.1333333,34.1333333 L477.866667,34.1333333 L477.866667,238.933333 Z"/>
    <path d="M142.677333 200.8576C145.8688 203.502933 149.742933 204.8 153.6 204.8 158.498133 204.8 163.345067 202.717867 166.724267 198.673067L196.283733 163.208533 225.8432 198.673067C229.205333 202.717867 234.052267 204.8 238.933333 204.8 242.7904 204.8 246.664533 203.502933 249.856 200.8576 257.092267 194.816 258.065067 184.064 252.040533 176.810667L218.487467 136.533333 252.040533 96.2730667C258.082133 89.0197333 257.092267 78.2506667 249.856 72.2261333 242.619733 66.2186667 231.867733 67.1744 225.826133 74.4106667L196.266667 109.8752 166.7072 74.4106667C160.682667 67.1573333 149.9136 66.2186667 142.677333 72.2261333 135.441067 78.2677333 134.468267 89.0197333 140.4928 96.2730667L174.045867 136.533333 140.4928 176.7936C134.4512 184.046933 135.441067 194.816 142.677333 200.8576zM290.133333 204.8L358.4 204.8C367.8208 204.8 375.466667 197.1712 375.466667 187.733333 375.466667 178.295467 367.8208 170.666667 358.4 170.666667L307.2 170.666667 307.2 85.3333333C307.2 75.8954667 299.554133 68.2666667 290.133333 68.2666667 280.712533 68.2666667 273.066667 75.8954667 273.066667 85.3333333L273.066667 187.733333C273.066667 197.1712 280.712533 204.8 290.133333 204.8z"/>
  </g>
</svg>
