<svg xmlns="http://www.w3.org/2000/svg" width="512" height="512" viewBox="0 0 512 512">
  <g transform="translate(0 119)">
    <path d="M494.933333,0 L17.0666667,0 C7.64586667,0 0,7.6288 0,17.0666667 L0,256 C0,265.437867 7.64586667,273.066667 17.0666667,273.066667 L494.933333,273.066667 C504.354133,273.066667 512,265.437867 512,256 L512,17.0666667 C512,7.6288 504.354133,0 494.933333,0 Z M477.866667,238.933333 L34.1333333,238.933333 L34.1333333,34.1333333 L477.866667,34.1333333 L477.866667,238.933333 Z"/>
    <path d="M201.984,204.561067 C211.387733,206.267733 220.074667,199.816533 221.627733,190.532267 L231.594667,130.7136 L241.783467,146.005333 C248.1152,155.511467 263.850667,155.511467 270.1824,146.005333 L280.3712,130.7136 L290.338133,190.532267 C291.754667,198.877867 298.990933,204.8 307.182933,204.8 C308.104533,204.8 309.060267,204.731733 310.016,204.561067 C319.300267,203.008 325.597867,194.218667 324.0448,184.9344 L306.978133,82.5344 C305.834667,75.6224 300.578133,70.1098667 293.7344,68.6592 C286.805333,67.0890667 279.842133,70.0416 275.950933,75.8784 L256,105.762133 L236.066133,75.8613333 C232.174933,70.0245333 225.143467,67.0890667 218.282667,68.6421333 C211.438933,70.1098667 206.1824,75.6053333 205.038933,82.5173333 L187.972267,184.917333 C186.4192,194.218667 192.699733,203.025067 201.984,204.561067 Z"/>
  </g>
</svg>
