<svg xmlns="http://www.w3.org/2000/svg" width="512" height="512" viewBox="0 0 512 512">
  <g transform="translate(0 119)">
    <path d="M494.933333,0 L17.0666667,0 C7.6288,0 0,7.6288 0,17.0666667 L0,256 C0,265.437867 7.6288,273.066667 17.0666667,273.066667 L494.933333,273.066667 C504.3712,273.066667 512,265.437867 512,256 L512,17.0666667 C512,7.6288 504.3712,0 494.933333,0 Z M477.866667,238.933333 L34.1333333,238.933333 L34.1333333,34.1333333 L477.866667,34.1333333 L477.866667,238.933333 Z"/>
    <path d="M142.660267 200.8576C145.8688 203.502933 149.725867 204.8 153.582933 204.8 158.481067 204.8 163.328 202.717867 166.724267 198.673067L196.266667 163.208533 225.809067 198.673067C229.205333 202.717867 234.052267 204.8 238.9504 204.8 242.807467 204.8 246.664533 203.502933 249.873067 200.8576 257.109333 194.816 258.082133 184.064 252.0576 176.810667L218.487467 136.533333 252.040533 96.2730667C258.082133 89.0197333 257.092267 78.2506667 249.856 72.2261333 242.5856 66.1845333 231.8336 67.1744 225.809067 74.4106667L196.266667 109.858133 166.724267 74.3936C160.682667 67.1573333 149.9648 66.1845333 142.677333 72.2090667 135.441067 78.2506667 134.468267 89.0026667 140.4928 96.256L174.045867 136.533333 140.4928 176.7936C134.4512 184.046933 135.441067 194.816 142.660267 200.8576zM329.147733 170.666667L290.133333 170.666667C280.695467 170.666667 273.066667 178.295467 273.066667 187.733333 273.066667 197.1712 280.695467 204.8 290.133333 204.8L329.147733 204.8C354.679467 204.8 375.466667 185.668267 375.466667 162.133333 375.466667 138.5984 354.679467 119.466667 329.147733 119.466667L319.3856 119.466667C312.200533 119.466667 307.2 114.961067 307.2 110.933333 307.2 106.9056 312.200533 102.4 319.3856 102.4L358.4 102.4C367.837867 102.4 375.466667 94.7712 375.466667 85.3333333 375.466667 75.8954667 367.837867 68.2666667 358.4 68.2666667L319.3856 68.2666667C293.853867 68.2666667 273.066667 87.3984 273.066667 110.933333 273.066667 134.468267 293.853867 153.6 319.3856 153.6L329.147733 153.6C336.3328 153.6 341.333333 158.1056 341.333333 162.133333 341.333333 166.161067 336.3328 170.666667 329.147733 170.666667z"/>
  </g>
</svg>
