<svg xmlns="http://www.w3.org/2000/svg" width="512" height="512" viewBox="0 0 512 512">
  <g transform="translate(0 119)">
    <path d="M494.933333,0 L17.0666667,0 C7.64586667,0 0,7.6288 0,17.0666667 L0,256 C0,265.437867 7.64586667,273.066667 17.0666667,273.066667 L494.933333,273.066667 C504.354133,273.066667 512,265.437867 512,256 L512,17.0666667 C512,7.6288 504.354133,0 494.933333,0 Z M477.866667,238.933333 L34.1333333,238.933333 L34.1333333,34.1333333 L477.866667,34.1333333 L477.866667,238.933333 Z"/>
    <path d="M210.944 200.8576C214.135467 203.502933 218.0096 204.8 221.866667 204.8 226.7648 204.8 231.611733 202.717867 234.990933 198.673067L264.5504 163.208533 294.109867 198.673067C297.472 202.717867 302.318933 204.8 307.2 204.8 311.057067 204.8 314.9312 203.502933 318.122667 200.8576 325.358933 194.816 326.331733 184.064 320.3072 176.810667L286.754133 136.533333 320.3072 96.2730667C326.3488 89.0197333 325.358933 78.2506667 318.122667 72.2261333 310.8864 66.2186667 300.117333 67.1744 294.0928 74.4106667L264.533333 109.8752 234.973867 74.4106667C228.932267 67.1573333 218.180267 66.2186667 210.944 72.2261333 203.707733 78.2677333 202.734933 89.0197333 208.759467 96.2730667L242.312533 136.533333 208.759467 176.7936C202.717867 184.046933 203.707733 194.816 210.944 200.8576zM74.4106667 200.8576C77.6021333 203.502933 81.4762667 204.8 85.3333333 204.8 90.2314667 204.8 95.0784 202.717867 98.4576 198.673067L128 163.191467 157.559467 198.656C160.938667 202.717867 165.7856 204.8 170.666667 204.8 174.523733 204.8 178.397867 203.502933 181.589333 200.8576 188.8256 194.816 189.7984 184.064 183.773867 176.810667L150.2208 136.533333 183.773867 96.2730667C189.815467 89.0197333 188.8256 78.2506667 181.589333 72.2261333 174.336 66.2186667 163.584 67.1744 157.559467 74.4106667L128 109.8752 98.4405333 74.4106667C92.3989333 67.1573333 81.6469333 66.2186667 74.4106667 72.2261333 67.1744 78.2677333 66.2016 89.0197333 72.2261333 96.2730667L105.7792 136.533333 72.2261333 176.7936C66.1845333 184.046933 67.1744 194.816 74.4106667 200.8576zM358.4 204.8L426.666667 204.8C436.087467 204.8 443.733333 197.1712 443.733333 187.733333 443.733333 178.295467 436.087467 170.666667 426.666667 170.666667L375.466667 170.666667 375.466667 85.3333333C375.466667 75.8954667 367.8208 68.2666667 358.4 68.2666667 348.9792 68.2666667 341.333333 75.8954667 341.333333 85.3333333L341.333333 187.733333C341.333333 197.1712 348.9792 204.8 358.4 204.8z"/>
  </g>
</svg>
