<svg xmlns="http://www.w3.org/2000/svg" width="512" height="512" viewBox="0 0 512 512">
  <path d="M366.996094 512C355.949219 512 346.996094 503.046875 346.996094 492L346.996094 175.992188 261.003906 175.992188C245.226562 175.992188 231.109375 166.558594 225.035156 151.957031 218.9375 137.296875 222.222656 120.558594 233.402344 109.308594L324.496094 17.675781C335.828125 6.277344 350.921875 0 366.996094 0 383.070312 0 398.164062 6.277344 409.496094 17.675781L500.589844 109.308594C511.773438 120.554688 515.058594 137.296875 508.960938 151.957031 502.886719 166.558594 488.765625 175.992188 472.988281 175.992188L451 175.992188C439.953125 175.992188 431 167.039062 431 155.992188 431 144.945312 439.953125 135.992188 451 135.992188L470.710938 135.992188 381.128906 45.878906C377.359375 42.089844 372.34375 40 366.996094 40 361.652344 40 356.632812 42.089844 352.863281 45.878906L263.28125 135.992188 346.996094 135.992188C369.054688 135.992188 386.996094 153.9375 386.996094 175.992188L386.996094 492C386.996094 503.042969 378.042969 512 366.996094 512L366.996094 512zM144.988281 512C128.914062 512 113.820312 505.722656 102.488281 494.324219L11.394531 402.691406C.210938 391.441406-3.074219 374.703125 3.027344 360.042969 9.097656 345.441406 23.21875 336.003906 38.996094 336.003906L124.988281 336.003906 124.988281 20C124.988281 8.953125 133.941406 0 144.988281 0 156.035156 0 164.988281 8.953125 164.988281 20L164.988281 336.007812C164.988281 358.0625 147.042969 376.007812 124.988281 376.007812L41.273438 376.007812 130.855469 466.121094C134.625 469.910156 139.644531 472 144.988281 472 150.332031 472 155.351562 469.910156 159.121094 466.121094L248.703125 376.007812 228.992188 376.007812C217.945312 376.007812 208.992188 367.054688 208.992188 356.007812 208.992188 344.960938 217.945312 336.007812 228.992188 336.007812L250.980469 336.007812C266.757812 336.007812 280.875 345.441406 286.949219 360.042969 293.046875 374.703125 289.765625 391.445312 278.582031 402.691406L187.488281 494.324219C176.15625 505.722656 161.0625 512 144.988281 512z"/>
</svg>
