<svg xmlns="http://www.w3.org/2000/svg" width="512" height="512" viewBox="0 0 512 512">
  <path d="M82.066406,196 C82.066406,184.953125 91.023438,176 102.066406,176 L242.066406,176 C253.113281,176 262.066406,184.953125 262.066406,196 C262.066406,207.046875 253.113281,216 242.066406,216 L102.066406,216 C91.023438,216 82.066406,207.046875 82.066406,196 Z M342,275 C342,263.953125 333.046875,255 322,255 L182,255 C170.953125,255 162,263.953125 162,275 C162,286.046875 170.953125,295 182,295 L322,295 C333.046875,295 342,286.046875 342,275 Z M102,375 L242,375 C253.046875,375 262,366.046875 262,355 C262,343.953125 253.046875,335 242,335 L102,335 C90.953125,335 82,343.953125 82,355 C82,366.046875 90.953125,375 102,375 Z M512,60 L512,292 C512,303.046875 503.046875,312 492,312 C480.953125,312 472,303.046875 472,292 L472,121 L40,121 L40,392 C40,414.054688 57.945312,432 80,432 L432,432 C454.054688,432 472,414.054688 472,392 C472,380.953125 480.953125,372 492,372 C503.046875,372 512,380.953125 512,392 C512,436.113281 476.113281,472 432,472 L80,472 C35.886719,472 0,436.113281 0,392 L0,60 C0,26.914062 26.914062,0 60,0 L452,0 C485.085938,0 512,26.914062 512,60 Z M351,60 C351,71.027344 359.972656,80 371,80 C382.027344,80 391,71.027344 391,60 C391,48.972656 382.027344,40 371,40 C359.972656,40 351,48.972656 351,60 Z M451,40 C439.972656,40 431,48.972656 431,60 C431,71.027344 439.972656,80 451,80 C462.027344,80 471,71.027344 471,60 C471,48.972656 462.027344,40 451,40 Z M40,81 L314.800781,81 C312.347656,74.460938 311,67.386719 311,60 C311,52.988281 312.21875,46.261719 314.441406,40 L60,40 C48.972656,40 40,48.972656 40,60 L40,81 Z" transform="translate(0 20)"/>
</svg>
