<svg xmlns="http://www.w3.org/2000/svg" width="512" height="512" viewBox="0 0 512 512">
  <path d="M492,241 C503.046875,241 512,232.046875 512,221 L512,160 C512,115.886719 476.113281,80 432,80 L160,80 C115.886719,80 80,115.886719 80,160 L80,432 C80,476.113281 115.886719,512 160,512 L361.515625,512 C366.835938,512 371.9375,509.878906 375.691406,506.109375 L506.175781,374.996094 C509.90625,371.25 512,366.175781 512,360.890625 L512,321 C512,309.953125 503.046875,301 492,301 C480.953125,301 472,309.953125 472,321 L472,340.890625 L411.890625,340.890625 C373.289062,340.890625 341.890625,372.289062 341.890625,410.890625 L341.890625,472 L160,472 C137.945312,472 120,454.054688 120,432 L120,160 C120,137.945312 137.945312,120 160,120 L432,120 C454.054688,120 472,137.945312 472,160 L472,221 C472,232.046875 480.953125,241 492,241 Z M411.890625,380.890625 L443.878906,380.890625 L381.890625,443.175781 L381.890625,410.890625 C381.890625,394.347656 395.347656,380.890625 411.890625,380.890625 Z M80,40 C57.945312,40 40,57.945312 40,80 L40,393 C40,404.046875 31.046875,413 20,413 C8.953125,413 0,404.046875 0,393 L0,80 C0,35.886719 35.886719,0 80,0 L392,0 C403.046875,0 412,8.953125 412,20 C412,31.046875 403.046875,40 392,40 L80,40 Z M411,200 C411,211.046875 402.046875,220 391,220 L200,220 C188.953125,220 180,211.046875 180,200 C180,188.953125 188.953125,180 200,180 L391,180 C402.046875,180 411,188.953125 411,200 Z M391,300 L200,300 C188.953125,300 180,291.046875 180,280 C180,268.953125 188.953125,260 200,260 L391,260 C402.046875,260 411,268.953125 411,280 C411,291.046875 402.046875,300 391,300 Z M281,340 C292.046875,340 301,348.953125 301,360 C301,371.046875 292.046875,380 281,380 L200,380 C188.953125,380 180,371.046875 180,360 C180,348.953125 188.953125,340 200,340 L281,340 Z"/>
</svg>
