<svg xmlns="http://www.w3.org/2000/svg" width="512" height="512" viewBox="0 0 512 512">
  <path d="M492,352 C503.046,352 512,343.046 512,332 L512,80 C512,35.888 476.112,0 432,0 L80,0 C35.888,0 0,35.888 0,80 L0,432 C0,476.112 35.888,512 80,512 L432,512 C476.112,512 512,476.112 512,432 C512,420.954 503.046,412 492,412 C480.954,412 472,420.954 472,432 C472,454.056 454.056,472 432,472 L356,472 L356,394 L392,394 C403.046,394 412,385.046 412,374 C412,362.954 403.046,354 392,354 L356,354 L356,276 L472,276 L472,332 C472,343.046 480.954,352 492,352 Z M156,472 L80,472 C57.944,472 40,454.056 40,432 L40,394 L156,394 L156,472 Z M156,354 L40,354 L40,276 L156,276 L156,354 Z M156,236 L40,236 L40,158 L156,158 L156,236 Z M156,118 L40,118 L40,80 C40,57.944 57.944,40 80,40 L156,40 L156,118 Z M316,472 L196,472 L196,394 L316,394 L316,472 Z M316,354 L196,354 L196,276 L316,276 L316,354 Z M316,236 L196,236 L196,158 L316,158 L316,236 Z M316,118 L196,118 L196,40 L316,40 L316,118 Z M356,40 L432,40 C454.056,40 472,57.944 472,80 L472,118 L356,118 L356,40 Z M356,236 L356,158 L472,158 L472,236 L356,236 Z"/>
</svg>
