<svg xmlns="http://www.w3.org/2000/svg" width="512" height="512" viewBox="0 0 512 512">
  <path d="M376.98,242 C302.541,242 241.98,302.561 241.98,377 C241.98,451.439 302.541,512 376.98,512 C451.419,512 511.98,451.439 511.98,377 C511.98,302.561 451.42,242 376.98,242 Z M376.98,472 C324.597,472 281.98,429.383 281.98,377 C281.98,324.617 324.597,282 376.98,282 C429.363,282 471.98,324.617 471.98,377 C471.98,429.383 429.364,472 376.98,472 Z M436.98,377 C436.98,388.046 428.026,397 416.98,397 L396.98,397 L396.98,417 C396.98,428.046 388.026,437 376.98,437 C365.934,437 356.98,428.046 356.98,417 L356.98,397 L336.98,397 C325.934,397 316.98,388.046 316.98,377 C316.98,365.954 325.934,357 336.98,357 L356.98,357 L356.98,337 C356.98,325.954 365.934,317 376.98,317 C388.026,317 396.98,325.954 396.98,337 L396.98,357 L416.98,357 C428.026,357 436.98,365.954 436.98,377 Z M226.765,462.452 C225.239,472.335 216.723,479.403 207.024,479.403 C206.009,479.403 204.981,479.326 203.947,479.166 C147.684,470.478 96.085,441.861 58.655,398.586 C20.831,354.854 0,298.889 0,241 C0,176.626 25.068,116.106 70.587,70.587 C116.106,25.068 176.626,0 241,0 C299.657,0 356.185,21.322 400.17,60.038 C443.749,98.396 472.029,151.054 479.799,208.31 C481.284,219.255 473.616,229.332 462.67,230.818 C451.726,232.298 441.648,224.635 440.162,213.69 C426.724,114.67 341.102,40 241,40 C130.168,40 40,130.168 40,241 C40,339.271 113.106,424.666 210.052,439.635 C220.968,441.32 228.451,451.536 226.765,462.452 Z M241,72 C252.046,72 261,80.954 261,92 L261,241 C261,241 255.237,255.047 255.237,255.047 L181.237,330.047 C177.324,334.013 172.163,336 166.999,336 C161.926,336 156.85,334.082 152.953,330.236 C145.09,322.478 145.005,309.815 152.763,301.953 L221,232.794 L221,92 C221,80.954 229.954,72 241,72 Z"/>
</svg>
