<svg xmlns="http://www.w3.org/2000/svg" width="512" height="512" viewBox="0 0 512 512">
  <path d="M207.023592,479.40074 C206.007599,479.40074 204.981606,479.32374 203.946613,479.163741 C147.683996,470.4758 96.0853465,441.858995 58.6556011,398.583289 C20.8308583,354.851587 0,298.885967 0,240.998361 C0,176.624799 25.0678295,116.10521 70.58652,70.58652 C116.10521,25.0678295 176.624799,0 240.998361,0 C299.654962,0 356.182578,21.321855 400.167279,60.0375917 C443.745982,98.3953308 472.02579,151.052973 479.795737,208.308583 C481.280727,219.253509 473.612779,229.33044 462.667853,230.81643 C451.714928,232.30142 441.645996,224.632472 440.160007,213.688547 C426.722098,114.66922 341.10068,39.999728 240.998361,39.999728 C130.167115,39.999728 39.999728,130.167115 39.999728,240.998361 C39.999728,339.268693 113.105231,424.663112 210.050571,439.63201 C220.966497,441.317999 228.449446,451.532929 226.763458,462.449855 C225.238468,472.330788 216.721526,479.40074 207.023592,479.40074 Z M181.235767,330.044755 L255.235264,255.045265 C258.928239,251.302291 260.998225,246.256325 260.998225,240.998361 L260.998225,91.9993743 C260.998225,80.9534494 252.044286,71.9995103 240.998361,71.9995103 C229.952436,71.9995103 220.998497,80.9534494 220.998497,91.9993743 L220.998497,232.792417 L152.761961,301.950946 C145.004014,309.813893 145.089013,322.476807 152.95196,330.234754 C156.848933,334.079728 161.924899,335.997715 166.997864,335.997715 C172.161829,335.997715 177.322794,334.009728 181.235767,330.044755 Z M511.66452,401.626269 C513.668507,390.764342 506.488555,380.333413 495.625629,378.329427 C484.763703,376.326441 474.332774,383.505392 472.328788,394.368318 C464.028844,439.349012 424.741111,471.99679 378.910423,471.99679 C326.527779,471.99679 283.911069,429.38008 283.911069,376.997436 C283.911069,324.614792 326.527779,281.998082 378.910423,281.998082 C387.618364,281.998082 396.239305,283.172074 404.531249,285.488058 C415.171176,288.459038 426.202101,282.242081 429.173081,271.604153 C432.144061,260.966225 425.927103,249.9333 415.289176,246.96232 C403.494256,243.669343 391.255339,241.999354 378.910423,241.999354 C304.471929,241.999354 243.911341,302.559942 243.911341,376.998436 C243.911341,451.43693 304.471929,511.997518 378.910423,511.997518 C444.03298,511.997518 499.8636,465.578834 511.66452,401.626269 L511.66452,401.626269 Z M403.585255,411.7132 L490.978661,325.211788 C498.829608,317.441841 498.894607,304.778927 491.12366,296.927981 C483.353713,289.077034 470.690799,289.012034 462.839852,296.782982 L378.982423,379.784417 L353.052599,353.854593 C345.241652,346.043647 332.578738,346.043647 324.768791,353.854593 C316.958844,361.66554 316.957844,374.328454 324.768791,382.138401 L354.216591,411.586201 C361.028545,418.398155 369.996484,421.806131 378.966423,421.806131 C387.874362,421.806131 396.786302,418.444154 403.585255,411.7132 L403.585255,411.7132 Z"/>
</svg>
