<svg xmlns="http://www.w3.org/2000/svg" width="513" height="512" viewBox="0 0 513 512">
  <g transform="translate(20)">
    <path d="M452,83 L331,83 L331,60 C331,26.916 304.084,0 271,0 L201,0 C167.916,0 141,26.916 141,60 L141,83 L20,83 C8.954,83 0,91.954 0,103 C0,114.046 8.954,123 20,123 L40.712,123 L65.086,438.987 C65.093,439.079 65.101,439.172 65.109,439.265 C66.925,459.189 76.063,477.591 90.839,491.081 C105.615,504.571 124.771,512 144.778,512 L327.222,512 C368.889,512 403.139,480.968 406.891,439.817 C407.894,428.816 399.79,419.086 388.79,418.083 C377.779,417.08 368.059,425.184 367.056,436.184 C365.195,456.603 348.07,472 327.222,472 L144.778,472 C124.001,472 106.903,456.429 104.955,435.758 L80.831,123 L391.169,123 L374.087,344.462 C373.238,355.475 381.477,365.091 392.49,365.941 C393.014,365.981 393.533,366.001 394.05,366.001 C404.397,366.001 413.16,358.027 413.969,347.538 L431.288,123 L452,123 C463.046,123 472,114.046 472,103 C472,91.954 463.046,83 452,83 Z M291,83 L181,83 L181,60 C181,48.972 189.972,40 201,40 L271,40 C282.028,40 291,48.972 291,60 L291,83 Z"/>
    <path d="M145.127 163.019C134.092 163.501 125.537 172.837 126.019 183.873L136.019 412.806C136.488 423.544 145.341 431.934 155.985 431.934 156.279 431.934 156.576 431.928 156.873 431.914 167.908 431.432 176.463 422.096 175.981 411.06L165.981 182.126C165.499 171.092 156.145 162.523 145.127 163.019zM306.019 182.127L296.019 411.061C295.537 422.096 304.092 431.433 315.127 431.915 315.424 431.928 315.72 431.935 316.015 431.935 326.658 431.935 335.512 423.545 335.981 412.807L345.981 183.874C346.463 172.839 337.908 163.502 326.873 163.02 315.856 162.527 306.501 171.092 306.019 182.127zM216 183L216 411.933C216 422.979 224.954 431.933 236 431.933 247.046 431.933 256 422.979 256 411.933L256 183C256 171.954 247.046 163 236 163 224.954 163 216 171.954 216 183z"/>
  </g>
</svg>
