<svg xmlns="http://www.w3.org/2000/svg" width="512" height="512" viewBox="0 0 512 512">
  <path d="M322,511.984375 L159.996094,511.984375 C148.949219,511.984375 139.996094,503.03125 139.996094,491.984375 C139.996094,480.9375 148.949219,471.984375 159.996094,471.984375 L322,471.984375 C404.710938,471.984375 472,404.691406 472,321.980469 C472,239.273438 404.710938,171.980469 322,171.980469 L183.996094,171.980469 C161.9375,171.980469 143.992188,154.035156 143.992188,131.980469 L143.992188,40.058594 C143.992188,40.054688 143.992188,40.046875 143.992188,40.042969 C143.960938,40.027344 143.921875,40.015625 143.886719,40.003906 C143.875,40.015625 143.859375,40.027344 143.84375,40.046875 L45.882812,137.800781 C42.089844,141.585938 40,146.621094 40,151.980469 C40,157.339844 42.089844,162.375 45.882812,166.160156 L143.84375,263.914062 C143.859375,263.933594 143.875,263.945312 143.886719,263.957031 C143.921875,263.949219 143.960938,263.933594 143.992188,263.917969 C143.992188,263.914062 143.992188,263.910156 143.992188,263.90625 L143.992188,241.980469 C143.992188,230.933594 152.949219,221.980469 163.996094,221.980469 C175.039062,221.980469 183.996094,230.933594 183.996094,241.980469 L183.996094,263.90625 C183.996094,280.140625 174.296875,294.652344 159.285156,300.878906 C144.257812,307.117188 127.101562,303.722656 115.589844,292.230469 L17.628906,194.476562 C6.261719,183.132812 0,168.039062 0,151.980469 C0,135.921875 6.261719,120.832031 17.628906,109.488281 L115.589844,11.730469 C127.105469,0.242188 144.257812,-3.152344 159.285156,3.082031 C174.296875,9.308594 183.996094,23.820312 183.996094,40.058594 L183.996094,131.980469 L322,131.980469 C426.765625,131.980469 512,217.214844 512,321.984375 C512,426.75 426.765625,511.984375 322,511.984375 L322,511.984375 Z"/>
</svg>
