<svg xmlns="http://www.w3.org/2000/svg" width="512" height="512" viewBox="0 0 512 512">
  <path d="M175.995457,471.987816 L144.774263,471.987816 C123.996799,471.987816 106.89824,456.413218 104.952291,435.740751 L80.8289134,122.996825 L391.158902,122.996825 L386.032034,189.457109 C385.182056,200.469825 393.421844,210.085577 404.434559,210.935555 C404.957546,210.975554 405.477533,210.995553 405.994519,210.995553 C416.341252,210.995553 425.104026,203.021759 425.913005,192.53303 L431.276866,122.996825 L451.988332,122.996825 C463.034047,122.996825 471.987816,114.043056 471.987816,102.997341 C471.987816,91.9516262 463.034047,82.9978574 451.988332,82.9978574 L330.991455,82.9978574 L330.991455,59.9984511 C330.991455,26.9153052 304.07615,0 270.993004,0 L200.994811,0 C167.911665,0 140.99636,26.9153052 140.99636,59.9984511 L140.99636,82.9978574 L19.9994837,82.9978574 C8.95376886,82.9978574 0,91.9516262 0,102.997341 C0,114.043056 8.95376886,122.996825 19.9994837,122.996825 L40.710949,122.996825 L65.0833199,438.974668 C65.0903197,439.067665 65.0983195,439.160663 65.1063193,439.252661 C66.9232724,459.177146 76.0610365,477.578671 90.8356551,491.067323 C105.610274,504.556975 124.766779,511.985783 144.773263,511.985783 L175.995457,511.985783 C187.041171,511.985783 195.99494,503.032014 195.99494,491.986299 C195.99494,480.940584 187.041171,471.987816 175.995457,471.987816 Z M180.995328,59.9984511 C180.995328,48.9707358 189.967096,39.9989674 200.994811,39.9989674 L270.993004,39.9989674 C282.02072,39.9989674 290.992488,48.9707358 290.992488,59.9984511 L290.992488,82.9978574 L180.995328,82.9978574 L180.995328,59.9984511 Z M235.993908,311.991946 C224.948193,311.991946 215.994424,303.038177 215.994424,291.992462 L215.994424,182.995276 C215.994424,171.949561 224.948193,162.995792 235.993908,162.995792 C247.039623,162.995792 255.993391,171.949561 255.993391,182.995276 L255.993391,291.992462 C255.993391,303.038177 247.039623,311.991946 235.993908,311.991946 Z M327.239552,163.034791 C338.263268,163.723773 346.641051,173.218528 345.952069,184.242244 L343.952121,216.241418 C343.290138,226.840144 334.485365,234.993934 324.010636,234.993934 C323.590646,234.993934 323.169657,234.980934 322.743668,234.953935 C311.719953,234.264952 303.342169,224.770198 304.031151,213.746482 L306.0311,181.747308 C306.720082,170.723593 316.216837,162.341809 327.239552,163.034791 L327.239552,163.034791 Z M165.976715,182.122298 L175.976457,411.050389 C176.458445,422.085104 167.903666,431.421863 156.86895,431.90385 C156.571958,431.91685 156.275966,431.92285 155.980973,431.92285 C145.337248,431.92285 136.484477,423.534066 136.015489,412.796344 L126.015747,183.868253 C125.533759,172.833538 134.088538,163.496779 145.123254,163.014792 C156.154969,162.515805 165.494728,171.087583 165.976715,182.122298 Z M446.292479,448.364425 C425.030028,469.621877 402.178618,482.469545 378.372232,486.55344 C377.228262,486.749434 376.089291,486.844432 374.96732,486.844432 C365.405567,486.844432 356.950785,479.96561 355.279828,470.222861 C353.411877,459.336142 360.723688,448.997409 371.610407,447.130457 C387.104007,444.472526 402.715604,435.370761 418.013209,420.077156 C460.101122,377.999242 469.47088,309.946999 471.469829,276.550861 C438.012693,278.607808 369.823453,288.057564 327.913535,329.956482 C309.003023,348.861994 299.870259,367.484513 299.993256,386.888012 C300.025255,391.905883 300.711237,396.67476 301.74921,401.103645 C327.360549,374.849323 355.464824,352.669896 385.866039,334.775358 C395.386793,329.169502 407.643477,332.34642 413.246332,341.865175 C418.849187,351.384929 415.675269,363.642612 406.156515,369.245468 C353.354878,400.325665 309.777003,443.954539 272.931954,502.624025 C269.133052,508.672868 262.62822,511.989783 255.976392,511.989783 C252.342486,511.989783 248.663581,510.999808 245.358666,508.924862 C236.004907,503.050014 233.18398,490.705332 239.058829,481.351574 C249.287565,465.063994 260.157284,449.710391 271.635988,435.300763 C266.280126,423.829059 260.124285,407.327485 259.996288,387.143006 C259.804293,356.914786 273.140949,328.158529 299.634265,301.671212 C368.999474,232.323003 487.70841,235.876911 492.72828,236.064906 C503.721996,236.470895 512.323774,245.680658 511.979783,256.676374 C511.975783,256.797371 511.970783,256.917368 511.964784,257.037365 C512.273776,272.751959 511.989783,382.683121 446.292479,448.364425 L446.292479,448.364425 Z"/>
</svg>
