<svg xmlns="http://www.w3.org/2000/svg" width="512" height="512" viewBox="0 0 512 512">
  <path d="M146,492 C146,503.046875 137.046875,512 126,512 L80,512 C35.886719,512 0,476.113281 0,432 L0,80 C0,35.886719 35.886719,0 80,0 L325.890625,0 C370,0 405.890625,35.886719 405.890625,80 L405.890625,199 C405.890625,210.046875 396.933594,219 385.890625,219 C374.84375,219 365.890625,210.046875 365.890625,199 L365.890625,80 C365.890625,57.945312 347.945312,40 325.890625,40 L80,40 C57.945312,40 40,57.945312 40,80 L40,432 C40,454.054688 57.945312,472 80,472 L126,472 C137.046875,472 146,480.953125 146,492 Z M325.886719,140 C325.886719,128.953125 316.933594,120 305.886719,120 L99.886719,120 C88.84375,120 79.886719,128.953125 79.886719,140 C79.886719,151.046875 88.84375,160 99.886719,160 L305.886719,160 C316.933594,160 325.886719,151.046875 325.886719,140 Z M246,220 C246,208.953125 237.046875,200 226,200 L99.886719,200 C88.84375,200 79.886719,208.953125 79.886719,220 C79.886719,231.046875 88.84375,240 99.886719,240 L226,240 C237.046875,240 246,231.046875 246,220 Z M99.886719,280 C88.84375,280 79.886719,288.953125 79.886719,300 C79.886719,311.046875 88.84375,320 99.886719,320 L183,320 C194.046875,320 203,311.046875 203,300 C203,288.953125 194.046875,280 183,280 L99.886719,280 Z M448.808594,497.121094 C441.113281,506.578125 429.757812,512 417.652344,512 L222.347656,512 C210.175781,512 198.785156,506.582031 191.097656,497.136719 C183.363281,487.632812 180.359375,475.285156 182.855469,463.261719 C189.316406,432.136719 206.429688,403.816406 231.039062,383.515625 C240.359375,375.828125 250.601562,369.429688 261.460938,364.429688 C249.359375,350.683594 242,332.671875 242,312.964844 C242,269.953125 276.988281,234.964844 320,234.964844 C363.011719,234.964844 398,269.953125 398,312.964844 C398,332.671875 390.640625,350.683594 378.539062,364.429688 C389.398438,369.429688 399.640625,375.824219 408.960938,383.515625 C433.078125,403.410156 449.992188,431.007812 456.742188,461.394531 C456.898438,461.921875 457.03125,462.453125 457.144531,462.996094 C459.652344,475.089844 456.613281,487.527344 448.808594,497.121094 L448.808594,497.121094 Z M282,312.964844 C282,333.917969 299.046875,350.964844 320,350.964844 C340.953125,350.964844 358,333.917969 358,312.964844 C358,292.011719 340.953125,274.964844 320,274.964844 C299.046875,274.964844 282,292.011719 282,312.964844 Z M417.988281,471.433594 C417.984375,471.421875 417.980469,471.40625 417.980469,471.394531 C408.375,425.140625 367.167969,391.566406 320,391.566406 C272.832031,391.566406 231.621094,425.140625 222.019531,471.394531 C221.929688,471.84375 222.238281,471.988281 222.238281,471.992188 C222.246094,471.992188 222.28125,472 222.347656,472 L417.652344,472 C417.664062,471.988281 417.933594,471.785156 417.988281,471.433594 L417.988281,471.433594 Z" transform="translate(27)"/>
</svg>
