<svg xmlns="http://www.w3.org/2000/svg" xmlns:xlink="http://www.w3.org/1999/xlink" width="256" height="256" viewBox="0 0 256 256">
  <defs>
    <path id="wpeformsymbolcolor-a" d="M33.6842105,130.051234 C33.6842105,125.403486 29.9109053,121.630181 25.2631579,121.630181 L8.42105263,121.630181 C3.77344,121.630181 3.73969861e-15,125.403486 3.73969861e-15,130.051234 L3.73969861e-15,153.630181 C3.73969861e-15,158.277794 3.77344,162.051234 8.42105263,162.051234 L25.2631579,162.051234 C29.9109053,162.051234 33.6842105,158.277794 33.6842105,153.630181 L33.6842105,130.051234 Z M67.3684211,74.2561684 C67.3684211,68.6794105 62.8404547,64.1509053 57.2631579,64.1509053 L10.1052632,64.1509053 C4.52810105,64.1509053 3.73969861e-15,68.6794105 3.73969861e-15,74.2561684 L3.73969861e-15,94.4673684 C3.73969861e-15,100.044665 4.52810105,104.572632 10.1052632,104.572632 L57.2631579,104.572632 C62.8404547,104.572632 67.3684211,100.044665 67.3684211,94.4673684 L67.3684211,74.2561684 Z M134.737112,10.1052632 C134.737112,4.52715789 130.208606,3.73969861e-15 124.631848,3.73969861e-15 L10.1052632,3.73969861e-15 C4.52810105,3.73969861e-15 3.73969861e-15,4.52715789 3.73969861e-15,10.1052632 L3.73969861e-15,30.3157895 C3.73969861e-15,35.8925474 4.52810105,40.4210526 10.1052632,40.4210526 L124.631848,40.4210526 C130.208606,40.4210526 134.737112,35.8925474 134.737112,30.3157895 L134.737112,10.1052632 Z"/>
  </defs>
  <g fill="none" fill-rule="evenodd">
    <path fill="#1F2933" fill-rule="nonzero" d="M237.136842,119.076379 L222.970611,133.043604 C222.848,133.165002 222.72,133.280337 222.586611,133.388396 C220.809432,135.035688 218.431326,136.039747 215.820126,136.039747 C210.313432,136.039747 205.841516,131.568505 205.841516,126.059385 L205.856337,125.523267 L129.426998,201.708059 C128.799933,202.333103 128.037726,202.805625 127.198989,203.088977 C127.198989,203.088977 113.206164,207.817027 104.012126,210.923655 C100.452109,212.126585 96.5181979,211.225331 93.8369347,208.592573 C91.1556716,205.959815 90.1828716,202.043015 91.3205895,198.461709 C94.2810274,189.142771 98.8067032,174.897044 98.8067032,174.897044 C99.08736,174.01344 99.5767242,173.210408 100.233432,172.555722 L176.580716,96.4527158 C176.580716,96.4527158 225.614147,47.5769263 225.607411,47.5850105 C228.566232,44.2624 232.586779,41.8977684 237.136842,41.0206316 L237.136842,32.3368421 C237.136842,14.4896 222.647242,0 204.8,0 L32.3368421,0 C14.4896,0 0,14.4896 0,32.3368421 L0,223.663158 C0,241.5104 14.4896,256 32.3368421,256 L204.8,256 C222.647242,256 237.136842,241.5104 237.136842,223.663158 L237.136842,119.076379 Z"/>
    <path fill="#1F2933" fill-rule="nonzero" d="M175.450274,106.338358 L104.310029,177.250762 C104.310029,177.250762 99.7843537,191.496354 96.8239158,200.815293 C96.3451958,202.322055 96.7545263,203.970021 97.8826779,205.077693 C99.0106947,206.185364 100.665802,206.564514 102.163672,206.058442 C111.357709,202.951815 125.350535,198.223764 125.350535,198.223764 L196.490779,127.311225 L175.450274,106.338358 Z M213.160421,129.920808 C212.218611,129.149171 211.616337,127.976691 211.616337,126.664623 C211.616337,125.340295 212.229389,124.158248 213.186021,123.387149 L231.083116,105.741474 C236.636968,100.265768 239.051453,92.8134737 238.315789,85.6212211 L201.698358,122.120758 L180.657853,101.148295 L229.820632,52.1418105 C232.557137,49.0078316 236.587116,47.0258526 241.079242,47.0258526 C249.314358,47.0258526 256,53.6899368 256,61.8994526 C256,66.4171789 253.974905,70.4673684 250.778947,73.1971368 L245.433937,78.5246316 C248.885895,89.9045053 246.064505,102.769179 237.000758,111.706274 L218.916379,129.537078 L218.902905,129.522931 C218.134905,130.351697 217.0368,130.870568 215.820126,130.870568 C214.839242,130.870568 213.937853,130.534131 213.2224,129.970661 L213.160421,129.920808 Z"/>
    <g transform="translate(46.453 46.975)">
      <mask id="wpeformsymbolcolor-b" fill="#fff">
        <use xlink:href="#wpeformsymbolcolor-a"/>
      </mask>
      <g fill-rule="nonzero" mask="url(#wpeformsymbolcolor-b)">
        <g transform="translate(-24.895 -44.28)">
          <ellipse cx="123.284" cy="71.411" fill="#F35627" rx="58.611" ry="71.411"/>
          <ellipse cx="42.442" cy="92.968" fill="#F0B429" rx="42.442" ry="61.979"/>
          <ellipse cx="74.779" cy="173.811" fill="#F35627" rx="66.695" ry="66.021"/>
        </g>
      </g>
    </g>
  </g>
</svg>
