<svg height="512" viewBox="0 0 512 512" width="512" xmlns="http://www.w3.org/2000/svg" xmlns:xlink="http://www.w3.org/1999/xlink"><mask id="a" fill="#fff"><path d="m33.6842105 130.051234c0-4.647748-3.7733052-8.421053-8.4210526-8.421053h-16.84210527c-4.64761263 0-8.42105263 3.773305-8.42105263 8.421053v23.578947c0 4.647613 3.77344 8.421053 8.42105263 8.421053h16.84210527c4.6477474 0 8.4210526-3.77344 8.4210526-8.421053zm33.6842106-55.7950656c0-5.5767579-4.5279664-10.1052631-10.1052632-10.1052631h-47.1578947c-5.57716215 0-10.1052632 4.5285052-10.1052632 10.1052631v20.2112c0 5.5772966 4.52810105 10.1052636 10.1052632 10.1052636h47.1578947c5.5772968 0 10.1052632-4.527967 10.1052632-10.1052636zm67.3686909-64.1509052c0-5.57810531-4.528506-10.1052632-10.105264-10.1052632h-114.5265848c-5.57716215 0-10.1052632 4.52715789-10.1052632 10.1052632v20.2105263c0 5.5767579 4.52810105 10.1052631 10.1052632 10.1052631h114.5265848c5.576758 0 10.105264-4.5285052 10.105264-10.1052631z" fill="#fff" fill-rule="evenodd"/></mask><g fill="none" fill-rule="evenodd"><rect fill="#dde4ee" height="512" rx="40" width="512"/><g fill-rule="nonzero"><g transform="translate(127 63)"><path d="m237.136842 119.076379-14.166231 13.967225c-.122611.121398-.250611.236733-.384.344792-1.777179 1.647292-4.155285 2.651351-6.766485 2.651351-5.506694 0-9.97861-4.471242-9.97861-9.980362l.014821-.536118-76.429339 76.184792c-.627065.625044-1.389272 1.097566-2.228009 1.380918 0 0-13.992825 4.72805-23.186863 7.834678-3.560017 1.20293-7.4939281.301676-10.1751913-2.331082-2.6812631-2.632758-3.6540631-6.549558-2.5163452-10.130864 2.9604379-9.318938 7.4861137-23.564665 7.4861137-23.564665.2806568-.883604.770021-1.686636 1.4267288-2.341322l76.347284-76.1030062s49.033431-48.8757895 49.026695-48.8677053c2.958821-3.3226105 6.979368-5.6872421 11.529431-6.5643789v-8.6837895c0-17.8472421-14.4896-32.3368421-32.336842-32.3368421h-172.4631579c-17.8472421 0-32.3368421 14.4896-32.3368421 32.3368421v191.3263159c0 17.847242 14.4896 32.336842 32.3368421 32.336842h172.4631579c17.847242 0 32.336842-14.4896 32.336842-32.336842z" fill="#1f2933"/><path d="m175.450274 106.338358-71.140245 70.912404s-4.5256753 14.245592-7.4861132 23.564531c-.47872 1.506762-.0693895 3.154728 1.0587621 4.2624 1.1280168 1.107671 2.7831241 1.486821 4.2809941.980749 9.194037-3.106627 23.186863-7.834678 23.186863-7.834678l71.140244-70.912539zm37.710147 23.58245c-.94181-.771637-1.544084-1.944117-1.544084-3.256185 0-1.324328.613052-2.506375 1.569684-3.277474l17.897095-17.645675c5.553852-5.475706 7.968337-12.9280003 7.232673-20.1202529l-36.617431 36.4995369-21.040505-20.972463 49.162779-49.0064845c2.736505-3.1339789 6.766484-5.1159579 11.25861-5.1159579 8.235116 0 14.920758 6.6640842 14.920758 14.8736 0 4.5177263-2.025095 8.5679158-5.221053 11.2976842l-5.34501 5.3274948c3.451958 11.3798737.630568 24.2445474-8.433179 33.1816424l-18.084379 17.830804-.013474-.014147c-.768.828766-1.866105 1.347637-3.082779 1.347637-.980884 0-1.882273-.336437-2.597726-.899907z" fill="#1f2933"/><g mask="url(#a)" transform="translate(46.453 46.975)"><g transform="translate(-24.895 -44.28)"><ellipse cx="123.284" cy="71.411" fill="#f35627" rx="58.611" ry="71.411"/><ellipse cx="42.442" cy="92.968" fill="#f0b429" rx="42.442" ry="61.979"/><ellipse cx="74.779" cy="173.811" fill="#f35627" rx="66.695" ry="66.021"/></g></g></g><g transform="translate(47 359)"><path d="m57.492082 71.9696787c4.0669772 0 6.9005269-2.0367585 8.500649-6.1102755l14.0010691-34.9587896c1.0667481-2.5376007 1.1667557-4.8080856.3000229-6.8114547-.8667329-2.003369-2.7335421-3.0050535-5.6004276-3.0050535-1.5334505 0-2.9168894.4006738-4.1503169 1.2020214s-2.2501718 2.2704849-3.0502329 4.4074119l-10.0007636 27.1456503-10.2007789-28.0471664c-1.2000916-3.1386115-3.3669237-4.7079172-6.5004963-4.7079172s-5.2670688 1.5693057-6.4004887 4.7079172l-10.3007865 27.6464926-9.8007483-26.3443027c-.8667328-2.3372639-1.8501413-3.9232644-2.9502253-4.7580015-1.100084-.834737-2.5168588-1.2521056-4.25032449-1.2521056-3.06690083 0-5.15039324.9516003-6.25047724 2.8548009-1.10008399 1.9032005-1.11675193 4.2237697-.05000381 6.9617073l14.10107664 34.9587896c1.6001222 4.073517 4.4336719 6.1102755 8.5006491 6.1102755s6.867191-2.070148 8.4006414-6.210444l8.500649-22.63807 8.7006643 22.7382385c1.6001222 4.073517 4.4336719 6.1102755 8.5006491 6.1102755zm39.0030588 18.0303213c5.0003822 0 7.5005722-2.5709903 7.5005722-7.7129708v-17.8299843c1.466779 2.3372638 3.550272 4.2070749 6.250478 5.6094333 2.700206 1.4023583 5.683767 2.1035374 8.950683 2.1035374 4.266993 0 8.017279-1.0517687 11.250859-3.1553062s5.750439-5.0752015 7.550577-8.9149922c1.800137-3.8397906 2.700206-8.3974551 2.700206-13.6729936 0-5.2755384-.900069-9.8165082-2.700206-13.6229094-1.800138-3.8064011-4.316997-6.7446757-7.550577-8.8148237s-6.983866-3.105222-11.250859-3.105222c-3.40026 0-6.46716.7345686-9.200702 2.2037059s-4.800367 3.4391169-6.200474 5.9099387v-.3005054c0-5.0752015-2.500191-7.6128023-7.5005725-7.6128023-4.93371 0-7.4005651 2.5376008-7.4005651 7.6128023v53.5901215c0 5.1419805 2.5335268 7.7129708 7.6005804 7.7129708zm18.2013892-29.1490194c-3.266916 0-5.90045-1.1686319-7.900603-3.5058958-2.000152-2.3372638-3.000229-5.9767176-3.000229-10.9183612 0-4.8748646 1.000077-8.4642341 3.000229-10.7681085 2.000153-2.3038744 4.633687-3.4558116 7.900603-3.4558116 3.200245 0 5.800443 1.1519372 7.800596 3.4558116s3.000229 5.8932439 3.000229 10.7681085c0 4.9416436-1.000076 8.5810974-3.000229 10.9183612-2.000153 2.3372639-4.600351 3.5058958-7.800596 3.5058958z" fill="#0967d2"/><path d="m175.001216 72.1700156c2.600198 0 5.317072-.3172001 8.150622-.9516002 2.83355-.6344002 5.41708-1.5860005 7.750592-2.8548009 1.733466-.9349056 2.850217-2.1202322 3.350256-3.55598.500038-1.4357478.500038-2.8214114 0-4.1569908-.500039-1.3355793-1.416775-2.2871796-2.75021-2.8548008-1.333436-.5676213-2.966894-.3839791-4.900375.5509264-1.866809.9349056-3.816958 1.5860005-5.850446 1.9532848-2.033489.3672844-3.850294.5509265-5.450416.5509265-4.066978 0-7.250554-.8848213-9.55073-2.6544639-2.300175-1.7696427-3.71695-4.5910541-4.250324-8.4642342h29.402245c3.133572 0 4.700359-1.2688004 4.700359-3.8064011 0-7.6795813-2.100161-13.7731621-6.300481-18.2807424-4.200321-4.5075803-9.86742-6.7613705-17.001298-6.7613705-4.93371 0-9.284043 1.0851582-13.050997 3.2554747-3.766954 2.1703164-6.733847 5.17537-8.90068 9.0151606-2.166832 3.8397906-3.250248 8.2972867-3.250248 13.3724883 0 5.2087594 1.116752 9.7330345 3.350256 13.5728251 2.233504 3.8397907 5.433748 6.8114547 9.600733 8.9149922s9.150699 3.1553062 14.951142 3.1553062zm8.100618-30.2508723h-21.601649c.466702-3.4725063 1.683462-6.1770545 3.650279-8.1136446 1.966816-1.93659 4.550347-2.9048851 7.750591-2.9048851 6.400489 0 9.800749 3.6728433 10.200779 11.0185297zm32.002524 30.0505354c5.000382 0 7.500573-2.5709902 7.500573-7.7129707v-31.05222h7.100542c3.933634 0 5.900451-1.8698111 5.900451-5.6094333 0-3.8064011-1.966817-5.7096017-5.900451-5.7096017h-7.100542v-1.7028637c0-2.9382745.766725-5.1252857 2.300176-6.5610335 1.53345-1.4357478 4.100313-2.2871797 7.700588-2.5542955l1.400107-.1001685c1.466778-.1335579 2.58353-.7846529 3.350255-1.9532848.766726-1.16863193 1.100084-2.48751654 1.000077-3.95665383-.100008-1.46913729-.666718-2.72124293-1.70013-3.75631693s-2.650202-1.45244255-4.85037-1.25210564l-3.200245.30050535c-6.800519.66778968-11.984248 2.72124293-15.551187 6.16035977-3.566939 3.43911683-5.41708 8.56440258-5.550424 15.37585728h-3.600275c-3.933633 0-5.90045 1.9032006-5.90045 5.7096017 0 3.7396222 1.966817 5.6094333 5.90045 5.6094333h3.600275v31.05222c0 2.4708218.65005 4.3740224 1.950149 5.7096017 1.300099 1.3355794 3.183576 2.003369 5.650431 2.003369zm48.103896.2003369c5.267068 0 9.850752-1.0517687 13.751049-3.1553062 3.900298-2.1035375 6.933863-5.0752015 9.100695-8.9149922 2.166832-3.8397906 3.250248-8.3974551 3.250248-13.6729936 0-5.2087595-1.083416-9.7330345-3.250248-13.5728252-2.166832-3.8397906-5.200397-6.7947599-9.100695-8.8649079-3.900297-2.070148-8.483981-3.105222-13.751049-3.105222-5.267069 0-9.850753 1.035074-13.75105 3.105222-3.900298 2.070148-6.917195 5.0251173-9.050691 8.8649079-2.133497 3.8397907-3.200245 8.3640657-3.200245 13.5728252 0 5.2755385 1.066748 9.833203 3.200245 13.6729936 2.133496 3.8397907 5.150393 6.8114547 9.050691 8.9149922 3.900297 2.1035375 8.483981 3.1553062 13.75105 3.1553062zm0-11.319035c-3.200245 0-5.800443-1.1686319-7.800596-3.5058958-2.000153-2.3372638-3.000229-5.9767176-3.000229-10.9183612 0-4.8748646 1.000076-8.4642341 3.000229-10.7681085s4.600351-3.4558116 7.800596-3.4558116c3.200244 0 5.81711 1.1519372 7.850599 3.4558116s3.050233 5.8932439 3.050233 10.7681085c0 4.9416436-1.016744 8.5810974-3.050233 10.9183612-2.033489 2.3372639-4.650355 3.5058958-7.850599 3.5058958zm43.093292 11.1186981c5.067053 0 7.60058-2.5709902 7.60058-7.7129707v-18.631332c0-6.8782337 3.733619-10.6846348 11.200855-11.4192035l2.300176-.2003369c2.26684-.2671158 3.88363-1.0016845 4.85037-2.2037059.966741-1.2020214 1.383439-2.8381061 1.250096-4.9082541-.066672-2.2037059-.550042-3.7897064-1.450111-4.7580015-.900069-.968295-2.1835-1.3856635-3.850294-1.2521056-7.533908.4674528-12.500954 3.6728432-14.901138 9.6161713v-1.8030321c0-5.0752015-2.466855-7.6128023-7.400565-7.6128023s-7.400565 2.5376008-7.400565 7.6128023v35.5598003c0 5.1419805 2.600199 7.7129707 7.800596 7.7129707zm103.197881 0c2.400184 0 4.250325-.6677896 5.550424-2.003369 1.300099-1.3355793 1.950149-3.2387799 1.950149-5.7096017v-22.7382385c0-7.0117916-1.366771-12.2038563-4.100313-15.5761942s-6.900527-5.0585068-12.500955-5.0585068c-3.533603 0-6.750515.8180424-9.650736 2.4541271-2.900222 1.6360847-5.117058 3.9232643-6.650508 6.8615389-1.266764-3.1386115-3.116905-5.4758754-5.550424-7.0117916-2.433519-1.5359163-5.383744-2.3038744-8.850676-2.3038744-3.400259 0-6.383821.7178739-8.950683 2.1536217-2.566863 1.4357478-4.583683 3.4224221-6.050462 5.9600229v-.3005054c0-5.0752015-2.466855-7.6128023-7.400565-7.6128023s-7.400565 2.5376008-7.400565 7.6128023v35.5598003c0 5.1419805 2.533527 7.7129707 7.60058 7.7129707 5.000382 0 7.500573-2.5709902 7.500573-7.7129707v-20.1338588c0-3.6728432.800061-6.5109493 2.400183-8.5143183 1.600122-2.0033691 3.833626-3.0050536 6.700512-3.0050536 2.400183 0 4.133649.7512634 5.200397 2.2537902 1.066748 1.5025267 1.600122 3.8898748 1.600122 7.1620443v22.2373962c0 2.4708218.666717 4.3740224 2.000153 5.7096017 1.333435 1.3355794 3.200244 2.003369 5.600427 2.003369 5.000382 0 7.500573-2.5709902 7.500573-7.7129707v-20.1338588c0-3.6728432.800061-6.5109493 2.400183-8.5143183 1.600122-2.0033691 3.833626-3.0050536 6.700512-3.0050536 2.466855 0 4.216988.7512634 5.250401 2.2537902 1.033412 1.5025267 1.550118 3.8898748 1.550118 7.1620443v22.2373962c0 5.1419805 2.533527 7.7129707 7.60058 7.7129707z" fill="#1f2933"/></g></g></g></svg>