<svg xmlns="http://www.w3.org/2000/svg" width="512" height="512" viewBox="0 0 512 512">
  <path d="M392,275.878906 L120,275.878906 C97.945312,275.878906 80,257.933594 80,235.878906 L80,196 C80,173.945312 97.945312,156 120,156 L392,156 C414.054688,156 432,173.945312 432,196 L432,235.878906 C432,257.933594 414.054688,275.878906 392,275.878906 Z M120,196 C119.980469,196 119.976562,196 119.976562,196 L120,235.878906 L392,235.878906 L392,196 L120,196 Z M432,99 C432,87.953125 423.046875,79 412,79 L100,79 C88.953125,79 80,87.953125 80,99 C80,110.046875 88.953125,119 100,119 L412,119 C423.046875,119 432,110.046875 432,99 Z M432,373 C432,361.953125 423.046875,353 412,353 L260,353 C248.953125,353 240,361.953125 240,373 C240,384.046875 248.953125,393 260,393 L412,393 C423.046875,393 432,384.046875 432,373 Z M160,432.757812 L120,432.757812 C97.945312,432.757812 80,414.8125 80,392.757812 L80,352.878906 C80,330.820312 97.945312,312.878906 120,312.878906 L160,312.878906 C182.054688,312.878906 200,330.820312 200,352.878906 L200,392.757812 C200,414.8125 182.054688,432.757812 160,432.757812 L160,432.757812 Z M120,352.878906 C119.980469,352.878906 119.976562,352.878906 119.976562,352.878906 L120,392.757812 L160,392.757812 L160,352.878906 L120,352.878906 Z M512,432 C512,420.953125 503.046875,412 492,412 C480.953125,412 472,420.953125 472,432 C472,454.054688 454.054688,472 432,472 L80,472 C57.945312,472 40,454.054688 40,432 L40,80 C40,57.945312 57.945312,40 80,40 L432,40 C454.054688,40 472,57.945312 472,80 L472,332 C472,343.046875 480.953125,352 492,352 C503.046875,352 512,343.046875 512,332 L512,80 C512,35.886719 476.113281,0 432,0 L80,0 C35.886719,0 0,35.886719 0,80 L0,432 C0,476.113281 35.886719,512 80,512 L432,512 C476.113281,512 512,476.113281 512,432 Z"/>
</svg>
